<svg width="1494" height="242" viewBox="0 0 1494 242" fill="none" xmlns="http://www.w3.org/2000/svg">
<path fill-rule="evenodd" clip-rule="evenodd" d="M937.924 40.8851C927.03 42.5261 918.516 47.141 911.647 55.1274C910.234 56.7708 908.85 58.1704 908.573 58.2375C908.23 58.3206 907.55 56.2163 906.442 51.6385C905.3 46.922 904.565 44.6682 903.98 44.0827C903.161 43.263 902.785 43.2462 882.919 43.1369C870.372 43.0682 862.299 43.1759 861.655 43.4206C861.084 43.6375 860.291 44.3118 859.893 44.9189C859.25 45.899 859.154 47.2253 859.039 56.6901C858.87 70.6166 859.049 71.2056 863.682 72.0217C866.774 72.5666 868.485 73.6193 869.339 75.5026C869.968 76.8897 870.017 81.8618 870.005 142.697L869.991 208.394L869.076 210.279C868.064 212.364 866.196 213.528 863.063 214.024C862.111 214.175 860.846 214.717 860.25 215.229L859.169 216.16V227.88V239.601L860.49 240.781L861.81 241.96L891.719 241.853L921.629 241.745L922.544 240.83C923.448 239.926 923.46 239.778 923.577 228.26L923.695 216.604L922.572 215.484C921.787 214.699 920.727 214.22 919.039 213.888C916.061 213.301 914.276 212.248 913.333 210.521C912.681 209.327 912.598 207.75 912.491 194.431C912.39 181.869 912.458 179.664 912.944 179.664C913.259 179.664 913.756 179.954 914.049 180.307C915.083 181.552 919.068 184.39 921.519 185.626C929.149 189.474 941.433 189.927 950.066 186.678C969.412 179.398 982.277 158.634 985.747 129.091C987.618 113.167 986.549 92.456 983.137 78.5026C978.155 58.1246 967.743 45.4971 952.882 41.8081C949.656 41.0073 940.759 40.458 937.924 40.8851ZM1089.43 41.2576C1081.59 42.7391 1072.78 48.1399 1067.91 54.4528C1065.69 57.3398 1065.5 57.0646 1065.5 50.8561C1065.5 47.8582 1065.32 45.0744 1065.11 44.6702C1064.89 44.266 1064.14 43.7356 1063.44 43.4913C1061.81 42.9227 1016.6 42.8665 1015.12 43.431C1014.56 43.6424 1013.78 44.3122 1013.39 44.9197C1012.73 45.9166 1012.66 47.1056 1012.66 57.0927C1012.66 63.1802 1012.8 68.6557 1012.97 69.2605C1013.38 70.7227 1014.64 71.4861 1017.52 72.0165C1020.42 72.5517 1021.76 73.3027 1022.75 74.9457C1023.48 76.1488 1023.51 77.6877 1023.51 114.771C1023.51 150.922 1023.47 153.427 1022.8 154.647C1021.95 156.201 1019.81 157.378 1017.08 157.786C1015.71 157.992 1014.75 158.428 1013.98 159.2L1012.86 160.315V171.744C1012.86 182.663 1012.9 183.219 1013.69 184.221C1014.14 184.798 1015.18 185.465 1016 185.703C1017.02 186 1026.56 186.098 1046.35 186.014L1075.21 185.892L1076.33 184.638L1077.45 183.383L1077.63 173.893C1077.84 162.134 1077.66 160.169 1076.26 158.964C1075.69 158.471 1074.38 157.943 1073.36 157.789C1070.9 157.422 1069.11 156.643 1068.06 155.49C1066.08 153.317 1066.1 153.692 1066.1 116.579C1066.1 83.6663 1066.14 81.7006 1066.86 79.5248C1068.67 74.0159 1074.08 70.8999 1079.3 72.3609C1082.82 73.3477 1084.66 76.3055 1085.16 81.7718C1085.71 87.7833 1085.85 87.8496 1098.09 87.8496C1107.91 87.8496 1108.72 87.7001 1109.76 85.6959C1110.18 84.8641 1110.33 81.0368 1110.43 67.9598C1110.5 58.7884 1110.44 50.1116 1110.29 48.6783C1110.04 46.316 1109.86 45.9154 1108.35 44.4054C1107.11 43.1626 1105.97 42.5145 1103.87 41.8527C1100.19 40.6906 1093.83 40.4286 1089.43 41.2576ZM1185.04 40.8731C1175.11 42.3095 1170.35 43.646 1164.35 46.6825C1159.28 49.2453 1157.02 50.7316 1153.09 54.0972C1141.26 64.2129 1132.84 80.8379 1129.98 99.7031C1129.07 105.741 1128.73 120.561 1129.37 126.908C1130.56 138.798 1133.87 150.602 1138.31 158.77C1147.22 175.149 1160.33 184.562 1179.01 187.997C1184.62 189.028 1196.64 188.904 1202.02 187.759C1213.17 185.384 1222.6 180.128 1230.53 171.879C1236.65 165.517 1241.21 158.042 1243.93 149.931C1245.32 145.785 1245.25 144.389 1243.62 143.104C1242.63 142.324 1242.02 142.295 1226.33 142.295C1212.36 142.295 1209.89 142.385 1208.74 142.929C1207.39 143.568 1206.67 144.723 1205.73 147.72C1203.48 154.879 1198.34 158.348 1190.69 157.866C1182.6 157.358 1178.38 152.939 1176.21 142.697C1175.53 139.481 1174.8 131.844 1174.8 127.931L1174.79 125.017L1209.05 124.995C1234.51 124.978 1243.66 124.849 1244.67 124.493C1247.07 123.652 1247.7 122.307 1247.86 117.71C1248.28 105.622 1245.39 87.7568 1241.3 77.1457C1233.67 57.3667 1220.73 45.3215 1203.32 41.798C1199.64 41.0519 1187.91 40.4584 1185.04 40.8731ZM1314.63 41.0635C1290.58 43.7292 1275.15 57.0666 1271.39 78.4226C1270.55 83.2199 1270.54 91.2148 1271.37 95.3856C1273.06 103.841 1276.06 109.412 1282.25 115.606C1288.42 121.782 1296.53 126.772 1309.8 132.571C1323.06 138.361 1327.83 141.112 1329.82 144.114C1332.76 148.551 1331.27 154.826 1326.74 157.128C1323.22 158.918 1317.51 159.167 1313.26 157.716C1310.51 156.781 1308.11 154.316 1307.04 151.336C1304.96 145.58 1306.17 145.912 1287.33 145.912C1270.34 145.912 1269.83 145.979 1268.59 148.372C1266.53 152.367 1270.65 166.244 1275.99 173.28C1281.86 181.016 1291.69 185.955 1305.58 188.147C1309.99 188.842 1325.61 188.859 1329.49 188.172C1337.08 186.829 1344.09 184.349 1349.66 181.027C1353.83 178.545 1360.81 171.784 1363.45 167.674C1369.14 158.809 1371.6 149.089 1371.16 137.273C1370.73 126.096 1367.91 118.629 1361.57 111.946C1355.54 105.593 1347.9 101.319 1330.7 94.6764C1317.76 89.6831 1312.59 86.6349 1310.96 83.0435C1310.05 81.0485 1310.02 79.8258 1310.83 77.5547C1312.21 73.6434 1316.04 71.4777 1321.67 71.4379C1327.06 71.4001 1330.08 73.4345 1331.32 77.9316C1332.24 81.2988 1332.56 81.9064 1333.78 82.7052C1334.79 83.3718 1336.12 83.4296 1350.37 83.4296C1367.19 83.4296 1367.74 83.3645 1368.99 81.241C1369.89 79.7225 1369.85 77.2023 1368.86 72.3215C1365.23 54.5368 1355.01 45.1733 1335.53 41.7984C1330.14 40.865 1319.72 40.4986 1314.63 41.0635ZM1437.18 41.0928C1424.18 42.4233 1413.22 47.2507 1405.58 55.0141C1392.52 68.282 1389.44 92.6115 1398.85 108.178C1402.3 113.872 1408.18 119.478 1415.28 123.823C1419.07 126.146 1427.81 130.595 1431.75 132.218C1438.51 134.997 1448.65 140.202 1450.51 141.848C1452.93 143.996 1454.06 146.324 1454.05 149.153C1454.03 153.063 1452.1 155.879 1448.23 157.624C1445.54 158.835 1439.27 158.933 1436.03 157.814C1433.22 156.842 1430.68 154.38 1429.77 151.738C1429.39 150.633 1428.81 149.132 1428.5 148.401C1427.46 145.987 1426.91 145.912 1409.97 145.913C1392.95 145.913 1392.66 145.956 1391.26 148.725C1390.43 150.366 1390.57 152.47 1391.87 158.163C1393.61 165.823 1396.5 171.213 1401.58 176.276C1407.8 182.48 1415.03 185.793 1427.01 187.939C1432.57 188.933 1447.92 188.976 1453.05 188.011C1472.42 184.374 1485.87 173.449 1491.4 156.851C1494.96 146.192 1494.85 131.931 1491.15 122.666C1486.29 110.478 1476.55 103.338 1452.45 94.2758C1436.02 88.0987 1430.97 83.3883 1433.92 77.0006C1435.56 73.4654 1439.22 71.4331 1444.01 71.3977C1447.79 71.3696 1450.3 72.2845 1452.2 74.3896C1452.98 75.2479 1453.81 76.7294 1454.06 77.6809C1454.96 81.1899 1455.33 81.9735 1456.39 82.6935C1457.38 83.3658 1458.69 83.4409 1471.53 83.559C1479.27 83.6302 1486.55 83.5715 1487.72 83.428C1492.65 82.8237 1493.47 79.4348 1491.02 69.8784C1487.94 57.918 1481.93 50.4089 1471.66 45.6848C1462.87 41.6461 1449.36 39.8464 1437.18 41.0928ZM922.375 72.5401C918.653 73.5426 916.162 75.8402 914.257 80.0311C912.439 84.0292 912.366 85.583 912.492 117.584L912.61 147.72L913.532 150C916.101 156.356 923.048 159.019 930.569 156.531C934.404 155.263 937.453 150.804 938.701 144.639C939.747 139.469 940.141 133.471 940.399 118.789C940.785 96.876 939.704 83.5048 937.139 78.4439C934.489 73.2139 928.608 70.8625 922.375 72.5401ZM1186.83 72.5252C1182.13 73.7913 1178.89 77.4623 1177.03 83.6306C1176.29 86.0808 1175.22 93.3328 1175.2 95.9864L1175.2 97.6941H1190.46H1205.73L1205.73 95.5845C1205.71 92.1723 1204.66 85.1924 1203.73 82.4006C1202.62 79.0635 1200.54 75.9089 1198.43 74.384C1195.34 72.1471 1190.88 71.4323 1186.83 72.5252Z" fill="white"/>
<path fill-rule="evenodd" clip-rule="evenodd" d="M100.782 9.36416C95.1392 14.6538 74.3232 34.3432 55.4489 52.2431C47.8064 59.4913 40.3487 66.5611 38.8766 67.9536C30.0485 76.3042 1.78261 103.1 0.97071 103.888L0 104.831L0.0774409 145.252L0.155241 185.673L1.67198 185.645C2.50636 185.63 11.4594 185.605 21.568 185.59L39.9472 185.563V145.115V104.668L46.9956 97.9054C50.8723 94.186 59.0224 86.4128 65.1071 80.6321C71.1919 74.851 82.905 63.6953 91.1357 55.8419C108.62 39.1589 115.662 32.4635 131.987 16.9989C138.582 10.7517 144.031 5.49203 144.096 5.31109C144.168 5.11338 136.501 4.98633 124.825 4.9924L105.434 5.00239L100.782 9.36416ZM147.356 11.6849C144.11 14.7702 134.658 23.7185 126.351 31.5699C118.044 39.4212 109.126 47.8524 106.532 50.306C103.939 52.7595 95.2477 60.9499 87.2186 68.5068C79.1896 76.0637 68.3008 86.3418 63.0212 91.347C57.7415 96.3522 52.3965 101.384 51.1439 102.529L48.8663 104.611L48.957 145.107L49.0476 185.603L59.2186 185.749C64.8127 185.83 74.0873 185.797 79.8284 185.675L90.2671 185.454V145.389C90.2671 123.353 90.3584 105.086 90.4698 104.796C90.5811 104.505 95.4347 99.714 101.255 94.1492C107.076 88.5841 118.271 77.8481 126.133 70.2912C133.996 62.7343 145.724 51.4962 152.196 45.3172C158.667 39.1385 166.097 31.9895 168.706 29.4307L173.45 24.7781L163.657 15.5171C158.271 10.4234 153.727 6.21506 153.56 6.16546C153.393 6.11585 150.601 8.59973 147.356 11.6849ZM167.145 40.384C155.713 51.1675 138.646 67.3451 119.404 85.637C113.725 91.0347 106.943 97.4586 104.332 99.9121L99.5845 104.373L99.5652 144.937L99.5459 185.5L100.884 185.655C102.237 185.812 119.824 185.809 134.431 185.65L142.371 185.563V145.086V104.609L152.988 94.494C158.828 88.9306 170.51 77.877 178.949 69.93C199.911 50.19 199.829 50.2692 199.829 49.7603C199.829 49.5123 199.227 48.7878 198.49 48.1504C197.755 47.513 193.137 43.192 188.23 38.5479C183.323 33.9038 179.135 29.9996 178.922 29.8718C178.709 29.7434 173.439 34.4474 167.145 40.384ZM201.207 57.7194C180.841 76.8035 172.948 84.2112 162.981 93.5961L151.293 104.602V145.057V185.512L172.438 185.627C184.068 185.69 194.171 185.686 194.889 185.618C195.866 185.525 196.246 185.301 196.401 184.726C196.514 184.303 196.612 166.051 196.618 144.165L196.628 104.373L211.522 89.9406C219.714 82.0025 226.416 75.3175 226.416 75.0851C226.416 74.8525 222.555 71.051 217.835 66.6375C206.006 55.5742 204.934 54.5885 204.728 54.5885C204.63 54.5885 203.045 55.9975 201.207 57.7194ZM224.261 86.4439C220.343 90.19 214.533 95.788 211.35 98.8836L205.562 104.513L205.527 145.04L205.492 185.567L231.746 185.654L258 185.741V145.191V104.64L252.201 99.1744C249.011 96.1681 243.511 90.9509 239.978 87.5805C236.445 84.2098 233.066 81.0429 232.469 80.5422L231.384 79.6325L224.261 86.4439Z" fill="white"/>
<path fill-rule="evenodd" clip-rule="evenodd" d="M481.02 0.335608C480.886 0.469268 480.777 8.11937 480.777 17.336V34.0936L485.884 34.3674C488.693 34.5179 491.695 34.9785 492.556 35.3899C495.735 36.9104 495.66 35.5417 495.66 92.3113C495.66 121.203 495.449 145.839 495.191 147.058C494.469 150.465 492.226 151.549 485.884 151.551L480.777 151.553V168.771V185.989H517.506H554.234L554.598 182.925C554.798 181.24 554.883 173.557 554.786 165.853L554.61 151.845L552.118 151.512C548.967 151.092 546.636 149.38 545.742 146.829C545.332 145.659 545.032 141.332 545.013 136.309L544.98 127.776L551.412 119.09C555.073 114.149 558.251 110.405 558.786 110.405C559.693 110.405 564.412 119.904 572.441 137.889C577.062 148.239 576.387 151.553 569.655 151.553H566.575V168.771V185.989H606.848H647.121V168.818V151.647L644.258 150.696C637.94 148.598 632.975 143.692 628.862 135.483C626.868 131.503 610.089 95.1847 597.805 68.2602C596.372 65.1201 595.738 63.0096 595.964 62.1317C596.494 60.0737 606.104 48.9899 611.042 44.7426C619.437 37.5209 625.242 34.9178 634.132 34.3872L639.534 34.065V17.2245V0.384057H603.346H567.159V17.3103V34.2366H570.387C573.996 34.2366 574.845 35.0806 573.593 37.4217C571.898 40.5869 546.855 72.483 545.922 72.6628C544.963 72.8472 544.91 71.8101 545.086 56.0015C545.25 41.128 545.392 38.9602 546.293 37.5863C547.68 35.4717 548.981 34.8722 553.124 34.4391L556.653 34.0703V17.2275V0.384057L555.34 0.363627C543.803 0.182107 481.197 0.158174 481.02 0.335608ZM667.112 0.151752C666.553 0.404479 666.382 4.42185 666.382 17.3588V34.2366L671.781 34.2401C678.418 34.2436 681.246 34.9697 682.584 37.0125C683.531 38.4571 683.6 42.2147 683.6 92.2856C683.6 121.833 683.396 146.739 683.147 147.632C682.321 150.586 679.746 151.549 672.657 151.551L666.382 151.553V168.777V186L697.093 185.849L727.804 185.698L730.038 179.861C733.221 171.542 756.446 111.155 759.613 102.963C763.896 91.8823 763.927 92.0247 763.731 121.932C763.547 150.152 763.596 149.751 760.131 150.959C759.194 151.286 756.628 151.553 754.429 151.553H750.43V168.771V185.989H790.703H830.976V168.771V151.553H824.219C817.582 151.553 817.432 151.524 815.813 149.904C814.473 148.565 814.093 147.553 813.781 144.506C813.57 142.443 813.479 117.905 813.578 89.9766C813.772 35.125 813.666 36.8818 816.872 35.4209C817.712 35.038 821.228 34.5757 824.687 34.3936L830.976 34.0615V17.2228C830.976 4.15103 830.812 0.379964 830.246 0.365372C820.415 0.110311 770.554 0.471022 770.266 0.799042C770.044 1.05235 766.778 9.533 763.009 19.645C759.24 29.757 752.213 48.5364 747.394 61.377C742.574 74.2177 737.682 87.2842 736.522 90.4144C732.911 100.166 732.846 99.7448 733.04 67.6514C733.225 36.9454 733.235 36.8532 736.34 35.3911C737.188 34.9919 739.786 34.5343 742.113 34.3744L746.344 34.0831V17.2333V0.384057H710.535C690.839 0.384057 673.176 0.257405 671.283 0.102734C669.39 -0.0513539 667.513 -0.0297674 667.112 0.151752ZM317.351 17.3103V34.2366L321.874 34.295C327.63 34.3691 329.092 34.794 330.165 36.7044C331.259 38.6544 330.953 40.1883 325.783 58.6858C320.035 79.2529 313.972 101.108 308.034 122.662C305.116 133.255 302.32 142.973 301.822 144.257C299.997 148.954 297.089 150.877 291.042 151.384L287 151.723V168.856V185.989H318.81H350.619V168.771V151.553H347.383C341.681 151.553 340.242 148.629 342.071 140.755L342.748 137.837H366.962H391.176L391.854 140.755C392.96 145.521 392.822 149.04 391.476 150.386C390.503 151.359 389.531 151.553 385.639 151.553H380.97V168.771V185.989H418.325H455.679V168.771V151.553H451.972C449.094 151.553 447.82 151.258 446.281 150.232C443.751 148.547 442.745 146.415 440.568 138.129C438.404 129.889 419.476 53.0989 412.766 25.3363C410.07 14.1813 407.581 4.00337 407.235 2.7193L406.606 0.384057H361.978H317.351V17.3103ZM360.595 74.0764C356.934 87.3157 353.817 98.6079 353.67 99.1693C353.42 100.121 354.345 100.191 367.186 100.191C379.892 100.191 380.97 100.111 380.97 99.1757C380.97 98.2646 373.814 69.3061 371.052 59.0424C370.448 56.7953 369.664 53.8402 369.31 52.4762C368.957 51.1121 368.35 49.9973 367.961 50.0002C367.527 50.0026 364.679 59.3126 360.595 74.0764Z" fill="white"/>
</svg>
