<svg width="1186" height="602" viewBox="0 0 1186 602" fill="none" xmlns="http://www.w3.org/2000/svg">
<g id="Frame 188">
<path id="Vector" fill-rule="evenodd" clip-rule="evenodd" d="M467.401 0.689137C467.125 0.963595 466.902 16.6723 466.902 35.5977V70.0078L477.388 70.57C483.156 70.879 489.321 71.8248 491.089 72.6696C497.616 75.7918 497.462 72.9813 497.462 189.552C497.462 248.878 497.029 299.466 496.499 301.969C495.017 308.965 490.411 311.191 477.388 311.195L466.902 311.199V346.554V381.91H542.321H617.738L618.486 375.618C618.896 372.158 619.071 356.382 618.872 340.562L618.51 311.798L613.393 311.115C606.923 310.252 602.136 306.737 600.301 301.499C599.459 299.096 598.843 290.211 598.804 279.897L598.736 262.375L611.943 244.539C619.461 234.393 625.987 226.706 627.085 226.706C628.948 226.706 638.638 246.211 655.124 283.141C664.613 304.394 663.227 311.199 649.404 311.199H643.079V346.554V381.91H725.776H808.472V346.651V311.392L802.593 309.439C789.62 305.131 779.425 295.057 770.979 278.201C766.885 270.028 732.431 195.452 707.207 140.165C704.264 133.718 702.962 129.384 703.426 127.581C704.515 123.355 724.248 100.596 734.388 91.8744C751.626 77.0454 763.546 71.7002 781.801 70.6106L792.893 69.949V35.3688V0.788622H718.585H644.278V35.545V70.3014H650.907C658.317 70.3014 660.061 72.0345 657.49 76.8417C654.009 83.3411 602.586 148.837 600.67 149.206C598.701 149.584 598.592 147.455 598.954 114.993C599.29 84.4522 599.582 80.0008 601.432 77.1797C604.28 72.8376 606.952 71.6066 615.459 70.7172L622.705 69.9599V35.3749V0.788622L620.009 0.746671C596.319 0.373938 467.764 0.324794 467.401 0.689137ZM849.522 0.311607C848.374 0.830557 848.023 9.07983 848.023 35.6446V70.3014L859.109 70.3086C872.737 70.3158 878.544 71.8068 881.292 76.0014C883.236 78.9678 883.378 86.6836 883.378 189.499C883.378 250.172 882.959 301.314 882.448 303.147C880.752 309.213 875.464 311.191 860.908 311.195L848.023 311.199V346.567V381.932L911.085 381.622L974.147 381.312L978.734 369.326C985.27 352.244 1032.96 228.246 1039.46 211.424C1048.26 188.671 1048.32 188.963 1047.92 250.375C1047.54 308.322 1047.64 307.499 1040.53 309.979C1038.6 310.651 1033.33 311.199 1028.82 311.199H1020.61V346.554V381.91H1103.3H1186V346.554V311.199H1172.13C1158.5 311.199 1158.19 311.139 1154.86 307.813C1152.11 305.063 1151.33 302.985 1150.69 296.729C1150.26 292.492 1150.07 242.106 1150.27 184.758C1150.67 72.1256 1150.46 75.7331 1157.04 72.7332C1158.76 71.947 1165.98 70.9977 1173.09 70.6238L1186 69.9419V35.3653C1186 8.52372 1185.66 0.780218 1184.5 0.750255C1164.31 0.226513 1061.93 0.967196 1061.34 1.64075C1060.88 2.16089 1054.18 19.5751 1046.44 40.339C1038.7 61.103 1024.27 99.6646 1014.37 126.031C1004.48 152.399 994.43 179.229 992.048 185.657C984.633 205.681 984.5 204.816 984.898 138.915C985.278 75.8637 985.299 75.6743 991.674 72.6721C993.416 71.8523 998.75 70.9127 1003.53 70.5844L1012.22 69.9862V35.3868V0.788622H938.686C898.243 0.788622 861.974 0.528555 858.086 0.210954C854.199 -0.10545 850.345 -0.0611244 849.522 0.311607ZM131.323 35.545V70.3014L140.61 70.4213C152.43 70.5735 155.432 71.446 157.635 75.3688C159.881 79.3729 159.253 82.5226 148.637 120.505C136.834 162.738 124.384 207.615 112.191 251.874C106.199 273.626 100.458 293.581 99.4355 296.217C95.688 305.862 89.7167 309.811 77.2998 310.852L69 311.548V346.729V381.91H134.319H199.635V346.554V311.199H192.99C181.282 311.199 178.327 305.195 182.083 289.026L183.473 283.034H233.194H282.915L284.307 289.026C286.578 298.813 286.295 306.039 283.531 308.803C281.533 310.8 279.537 311.199 271.545 311.199H261.958V346.554V381.91H338.663H415.365V346.554V311.199H407.753C401.844 311.199 399.228 310.593 396.068 308.486C390.872 305.026 388.807 300.648 384.336 283.634C379.893 266.714 341.026 109.033 327.248 52.0255C321.712 29.1199 316.601 8.22052 315.89 5.58381L314.599 0.788622H222.96H131.323V35.545ZM220.12 152.108C212.602 179.294 206.202 202.481 205.9 203.634C205.387 205.588 207.286 205.732 233.654 205.732C259.744 205.732 261.958 205.568 261.958 203.647C261.958 201.776 247.264 142.313 241.592 121.238C240.352 116.623 238.742 110.555 238.015 107.755C237.29 104.954 236.044 102.664 235.245 102.67C234.354 102.675 228.506 121.792 220.12 152.108Z" fill="white"/>
<path id="Vector_2" fill-rule="evenodd" clip-rule="evenodd" d="M0 425.5V441.65H492.546C790.5 441.65 806.051 440.092 806.046 441.649C806.043 442.549 804.78 446.809 803.239 451.114C801.697 455.419 800.436 459.104 800.436 459.302C800.436 459.501 660.622 459.3 489.739 459.3H0V482V496.39H483.656C726.401 496.39 788.27 495.462 788.27 496.393C788.27 497.035 786.972 501.457 785.386 506.219L782.501 514.878H480.771H0V534V548.51H475.233C711.25 548.51 771.425 546.933 771.425 547.864C771.425 548.506 770.127 552.927 768.541 557.688L765.656 566.346L472.583 566.35H0V582V601.91H651.637H1124.28L1125.15 599.805C1125.63 598.647 1129.45 586.96 1133.64 573.835C1137.83 560.71 1142.43 546.392 1143.87 542.017C1145.31 537.642 1150.35 522.06 1155.07 507.391C1159.78 492.722 1164.02 479.667 1164.47 478.38C1164.92 477.093 1168.74 465.302 1172.95 452.177C1177.16 439.052 1181.81 424.572 1183.3 420.001C1184.79 415.428 1186 411.533 1186 411.344C1186 411.154 959.434 411 682.521 411H0V425.5ZM851.384 438.413C851.125 439.086 851.032 445.301 851.177 452.224L851.439 464.811L871.064 465.064C881.858 465.204 891.063 465.691 891.52 466.148C891.988 466.616 892.286 490.044 892.203 519.718C892.122 548.725 892.341 574.242 892.689 576.422L893.323 580.386H910.509H927.695L927.936 523.066L928.177 465.746L948.557 465.494L968.936 465.242L968.677 451.456L968.418 437.671L910.136 437.43C862.823 437.234 851.765 437.42 851.384 438.413ZM980.116 438.916C980.116 439.879 987.092 461.26 995.617 486.429C1017.9 552.202 1025.63 574.886 1026.79 577.831L1027.81 580.423L1048.16 580.171L1068.52 579.918L1071.86 570.092C1077.35 553.924 1083.55 535.977 1089.64 518.621C1092.8 509.614 1096.17 499.928 1097.12 497.097C1098.07 494.266 1102.72 480.79 1107.46 467.15C1112.2 453.51 1116.12 441.298 1116.18 440.011L1116.28 437.671L1099.33 437.417C1086.5 437.224 1082.15 437.451 1081.42 438.353C1080.06 440.014 1064.01 492.101 1056.39 519.557C1054.46 526.505 1052.19 534.643 1051.35 537.64C1050.52 540.637 1049.42 543.084 1048.93 543.078C1048.43 543.073 1047.43 540.83 1046.7 538.097C1044.27 528.921 1035.55 498.606 1032.15 487.505C1030.29 481.457 1027.33 471.771 1025.57 465.98C1023.8 460.19 1021.11 451.451 1019.6 446.562L1016.84 437.671L998.479 437.418C981.069 437.177 980.116 437.255 980.116 438.916Z" fill="url(#paint0_linear_1351_3010)"/>
</g>
<defs>
<linearGradient id="paint0_linear_1351_3010" x1="0" y1="506.455" x2="505" y2="506" gradientUnits="userSpaceOnUse">
<stop stop-color="white" stop-opacity="0"/>
<stop offset="1" stop-color="white"/>
</linearGradient>
</defs>
</svg>
