<svg width="1389" height="256" viewBox="0 0 1389 256" fill="none" xmlns="http://www.w3.org/2000/svg">
<g id="Frame 187">
<path id="Vector" fill-rule="evenodd" clip-rule="evenodd" d="M97.5016 133.575C95.3296 147.729 90.5166 159.389 83.4316 167.662L79.7646 171.943L84.4116 176.033C92.3906 183.057 95.3606 191.934 93.0096 201.732C91.5136 207.971 88.1106 211.88 84.1776 211.88C81.3266 211.88 77.9746 209.295 77.9746 207.096C77.9746 206.476 79.0996 204.311 80.4746 202.285C82.3866 199.468 82.9746 197.316 82.9746 193.14C82.9746 188.264 82.6106 187.316 79.5746 184.28C75.3326 180.038 73.2086 180.007 69.2326 184.13C64.9196 188.601 63.9706 191.693 63.9966 201.195C64.0226 211.062 65.8256 215.574 72.1076 221.499C80.5736 229.483 90.2396 229.881 100.225 222.656C101.615 221.65 102.335 221.643 103.725 222.622C110.759 227.575 120.303 229.313 125.552 226.599C130.32 224.133 138.676 214.618 139.88 210.285C141.269 205.282 141.272 197.944 139.887 192.444C138.566 187.199 133.592 180.88 130.785 180.88C129.66 180.88 126.937 182.683 124.734 184.886C120.85 188.769 120.742 189.06 121.186 194.417C121.479 197.942 122.428 201.002 123.81 202.87C126.492 206.498 126.579 209.487 124.041 210.845C119.516 213.266 115.207 211.228 112.1 205.196C111.481 203.994 110.985 199.944 110.997 196.196C111.025 187.441 113.533 181.68 119.687 176.231L124.374 172.081L120.228 166.708C114.393 159.145 110.116 149.432 108.103 139.176L106.377 130.38L102.232 130.075C98.1296 129.774 98.0796 129.811 97.5016 133.575Z" fill="white"/>
<path id="Vector_2" fill-rule="evenodd" clip-rule="evenodd" d="M77.4712 18.7781C63.9412 25.0421 58.5872 46.8041 67.6492 58.7001C72.5382 65.1171 77.0552 65.0731 81.0212 58.5681C83.8392 53.9461 83.6052 47.0961 80.4712 42.4771C76.2992 36.3301 77.8372 32.8821 84.7502 32.8821C92.1342 32.8821 96.2802 46.7491 92.3472 58.2921C90.7602 62.9481 85.4322 69.5091 81.5092 71.6351C79.6622 72.6371 79.7982 72.9711 83.8392 77.3551C89.7062 83.7201 94.5702 94.5031 96.0292 104.382C97.6492 115.352 97.3832 114.882 101.971 114.882C104.359 114.882 106.185 114.367 106.4 113.632C106.601 112.945 107.501 108.403 108.4 103.54C110.26 93.4811 114.053 85.2191 119.932 78.4271C122.153 75.8601 123.971 73.5071 123.971 73.1971C123.971 72.8881 121.984 70.8851 119.555 68.7471C117.126 66.6091 114.201 62.9221 113.055 60.5551C109.217 52.6271 111.007 36.5391 116.026 33.8531C117.023 33.3191 119.129 32.8821 120.705 32.8821C126.099 32.8821 127.525 36.8911 123.928 41.9421C119.288 48.4581 120.973 59.4021 127.142 62.8231C129.489 64.1241 130.145 64.1271 132.544 62.8431C142.114 57.7211 143.834 38.5661 135.811 26.4541C132.077 20.8171 127.538 17.9731 121.047 17.2051C115.342 16.5291 108.425 18.6181 105.438 21.9181C103.294 24.2871 100.682 24.4441 98.9102 22.3091C94.6392 17.1631 84.5492 15.5011 77.4712 18.7781Z" fill="white"/>
<path id="Vector_3" fill-rule="evenodd" clip-rule="evenodd" d="M158.014 46.4425C155.012 47.2725 151.747 48.6845 150.757 49.5805C149.767 50.4765 148.006 51.6985 146.843 52.2975C144.223 53.6465 139.278 60.5125 138.464 63.9295C138.016 65.8085 138.514 67.1795 140.367 69.1795C142.428 71.4035 143.739 71.8865 147.713 71.8865C152.389 71.8865 152.749 71.6695 158.509 65.3865C161.787 61.8115 165.187 58.8865 166.065 58.8865C168.686 58.8865 170.971 62.2985 170.971 66.2125C170.971 70.8615 165.433 77.3305 159.146 80.0255C154.056 82.2075 143.655 82.4725 140.116 80.5095C135.918 78.1815 133.726 79.5625 130.228 86.7355C124.974 97.5085 123.843 99.0645 116.31 105.886C108.823 112.666 107.332 115.205 108.382 119.386C109.224 122.743 111.492 122.602 120.276 118.644C127.169 115.538 128.038 115.396 140.971 115.261C148.396 115.184 155.034 115.069 155.721 115.004C156.423 114.938 156.971 113.546 156.971 111.831C156.971 105.056 163.974 95.3695 171.671 91.4965C173.432 90.6105 177.299 89.8865 180.266 89.8865C186.828 89.8865 189.28 91.9445 188.791 97.0425L188.471 100.386L181.605 100.975C175.249 101.521 174.462 101.856 171.023 105.475C165.997 110.765 165.374 113.683 168.495 117.315C170.662 119.837 171.618 120.172 176.662 120.172C180.059 120.172 182.53 119.708 182.757 119.029C182.966 118.4 184.225 117.886 185.554 117.886C186.883 117.886 187.971 117.466 187.971 116.953C187.971 116.44 188.955 115.708 190.158 115.327C192.248 114.663 197.046 110.103 199.741 106.217C203.151 101.301 204.199 97.3135 203.703 91.1335C203.078 83.3455 200.161 79.1565 192.815 75.4955L187.602 72.8985L187.537 65.6425C187.485 59.8995 186.994 57.6205 185.185 54.7105C180.371 46.9685 168.821 43.4535 158.014 46.4425Z" fill="white"/>
<path id="Vector_4" fill-rule="evenodd" clip-rule="evenodd" d="M108.71 125.505L106.473 130.128L108.973 131.745C110.348 132.634 112.745 134.604 114.3 136.122C115.855 137.64 117.455 138.882 117.857 138.882C120.094 138.882 132.931 159.811 132.963 163.51C132.983 165.807 135.396 166.777 137.417 165.299C138.483 164.52 140.368 163.882 141.605 163.882C142.843 163.882 144.111 163.467 144.425 162.96C145.063 161.927 154.385 162.27 157.473 163.441C161.366 164.916 168.876 171.005 169.483 173.179C169.822 174.39 170.594 176.391 171.2 177.623C172.008 179.268 171.997 180.533 171.159 182.373C170.232 184.409 169.304 184.881 166.244 184.874C162.898 184.867 162.217 184.418 160.201 180.888C155.223 172.171 147.493 169.988 141.12 175.499L137.515 178.617L139.494 182.413C141.307 185.891 146.278 191.521 150.295 194.647C153.46 197.11 157.565 198.065 165.143 198.101C176.622 198.157 185.007 193.406 186.555 185.97C186.851 184.546 187.542 182.559 188.091 181.554C188.773 180.302 188.735 179.3 187.971 178.379C187.312 177.586 187.119 175.621 187.5 173.589C188.048 170.67 188.755 169.944 192.142 168.826C196.448 167.405 202.973 160.739 202.973 157.761C202.973 156.792 203.423 155.722 203.973 155.382C205.19 154.63 205.282 150.495 204.135 148.118C203.674 147.163 202.032 143.772 200.487 140.583C197.234 133.87 191.622 128.649 185.072 126.242C182.543 125.312 180.046 124.176 179.523 123.717C178.018 122.394 175.667 122.728 171.161 124.905C167.391 126.727 166.973 127.289 166.973 130.537C166.973 138.447 174.922 145.567 182.487 144.432C187.619 143.663 190.464 146.076 189.404 150.299C188.21 155.057 180.638 157.155 175.096 154.263C173.654 153.51 171.766 152.892 170.903 152.888C166.038 152.869 156.28 139.722 157.424 134.727C157.719 133.437 157.401 131.665 156.717 130.788C155.188 128.829 148.388 127.401 147.492 128.851C146.694 130.142 133.301 130.221 132.509 128.94C132.188 128.422 129.799 127.688 127.2 127.309C121.347 126.456 114.737 123.961 113.673 122.203C112.281 119.903 111.012 120.748 108.71 125.505Z" fill="white"/>
<path id="Vector_5" fill-rule="evenodd" clip-rule="evenodd" d="M31.3119 45.8421C25.8709 47.1381 21.5639 50.3211 19.0059 54.9351C16.9849 58.5801 16.5579 60.6761 16.6449 66.5311C16.7489 73.4891 16.6819 73.6921 14.1119 74.2091C10.1149 75.0121 4.8239 78.9761 2.5259 82.8871C-0.337102 87.7611 -0.203102 97.7881 2.8039 103.607C7.7749 113.23 18.0389 119.857 27.9989 119.874C34.8389 119.886 37.9719 117.971 37.9719 113.778C37.9719 105.862 31.9089 100.894 22.2409 100.888C16.3819 100.884 15.9719 100.73 15.3639 98.3101C13.8939 92.4521 18.7809 88.3501 25.8799 89.4851C36.4119 91.1691 44.8569 99.7301 47.0669 110.962C47.9979 115.695 48.5769 116.833 49.8569 116.452C60.9579 113.145 72.1359 113.831 83.4719 118.516C92.4369 122.221 94.3719 122.154 96.5739 118.064L98.4149 114.646L93.4429 110.547C82.1969 101.272 76.5439 93.8921 72.7749 83.5601C70.4869 77.2881 70.9189 77.4411 63.4719 80.2741C57.5169 82.5401 51.2549 82.2461 45.4719 79.4291C37.3429 75.4691 32.9719 70.5651 32.9719 65.4041C32.9719 58.8171 39.8239 56.5231 42.7689 62.1241C43.7049 63.9061 45.9669 66.8311 47.7929 68.6241C50.6839 71.4611 51.7899 71.8841 56.3209 71.8841C66.3439 71.8841 68.7839 66.4731 62.8209 57.4701C58.9309 51.5971 54.2619 48.4361 46.5119 46.4281C40.1509 44.7801 36.3779 44.6351 31.3119 45.8421ZM114.722 120.461C112.549 122.653 114.66 124.009 125.972 127.69C129.639 128.883 125.075 126.069 120.784 124.49C118.206 123.542 115.956 122.077 115.784 121.235C115.612 120.393 115.134 120.045 114.722 120.461ZM107.049 125.733C105.791 128.199 105.374 130.014 105.979 130.389C106.525 130.726 106.972 132.058 106.972 133.349C106.972 135.217 107.387 135.588 109.005 135.165C110.192 134.855 111.859 135.377 113.011 136.419C114.096 137.401 115.256 137.933 115.588 137.601C115.92 137.269 114.117 135.535 111.582 133.748C109.046 131.961 106.972 130.113 106.972 129.642C106.972 129.17 107.68 127.415 108.546 125.741C109.411 124.068 109.893 122.471 109.615 122.194C109.338 121.917 108.183 123.509 107.049 125.733ZM169.472 124.039C164.516 126.75 163.883 130.003 167.043 136.531C168.96 140.491 175.34 145.849 176.618 144.572C176.915 144.275 175.809 143.334 174.161 142.482C170.202 140.434 166.972 135.036 166.972 130.465C166.972 127.201 167.37 126.616 170.472 125.32C172.397 124.515 173.972 123.638 173.972 123.371C173.972 122.537 171.564 122.895 169.472 124.039ZM179.268 123.472C180.391 124.653 189.257 127.932 189.816 127.373C190.071 127.118 188.747 126.283 186.876 125.517C181.842 123.456 178.363 122.521 179.268 123.472ZM132.472 128.884C132.812 129.434 136.187 129.884 139.972 129.884C143.757 129.884 147.132 129.434 147.472 128.884C147.865 128.249 145.129 127.884 139.972 127.884C134.815 127.884 132.079 128.249 132.472 128.884ZM195.935 133.495C198.809 136.768 201.699 142.06 203.521 147.384C203.941 148.614 204.383 148.907 204.668 148.147C205.748 145.257 196.583 129.884 193.78 129.884C193.221 129.884 194.192 131.509 195.935 133.495ZM157.387 137.485C157.776 139.079 159.2 142.075 160.552 144.142C163.157 148.123 170.886 154.34 171.882 153.254C172.206 152.9 171.797 152.387 170.972 152.115C168.117 151.171 159.91 141.824 159.312 138.835C158.983 137.189 158.256 135.56 157.697 135.214C157.04 134.808 156.93 135.612 157.387 137.485ZM121.457 144.864C123.988 148.154 127.442 153.801 129.133 157.414C130.823 161.027 132.425 163.764 132.692 163.497C134.226 161.963 120.188 138.884 117.721 138.884C117.245 138.884 118.926 141.575 121.457 144.864ZM187.972 148.735C187.972 151.507 187.455 152.202 184.464 153.452C182.41 154.31 179.86 154.643 178.314 154.255C176.457 153.789 175.884 153.932 176.382 154.738C177.372 156.34 182.524 156.167 185.904 154.419C188.959 152.84 190.766 148.278 189.027 146.539C188.287 145.799 187.972 146.454 187.972 148.735ZM199.36 163.707C197.577 165.827 194.405 168.059 191.87 168.977L187.472 170.571L187.386 177.977C187.234 190.965 181.787 196.749 168.632 197.889C163.744 198.313 162.045 198.769 163.278 199.325C165.883 200.502 173.675 199.206 178.74 196.754C181.363 195.484 184.174 193.024 185.788 190.585C188.085 187.113 188.479 185.444 188.52 179.023C188.567 171.608 188.603 171.508 191.52 170.574C195.285 169.369 200.625 165.401 202.04 162.758C203.85 159.376 202.644 159.803 199.36 163.707ZM151.302 162.609C151.648 163.168 153.311 163.902 154.998 164.239C158.848 165.009 166.139 169.964 168.32 173.292C170.249 176.236 170.498 181.958 168.772 183.684C166.492 185.964 164.26 184.866 161.215 179.969C157.333 173.723 154.014 171.551 148.355 171.551C143.826 171.551 139.088 174.036 138.128 176.916C137.87 177.691 139.113 177.102 140.892 175.605C143.311 173.569 145.206 172.884 148.414 172.884C153.594 172.884 156.917 175.228 160.568 181.457C162.684 185.069 163.693 185.884 166.044 185.884C167.988 185.884 169.441 185.098 170.51 183.467C174.954 176.684 165.912 165.392 153.573 162.315C151.695 161.847 150.895 161.951 151.302 162.609ZM137.972 181.775C137.972 183.711 144.657 192.122 147.722 194.043C149.509 195.164 150.969 195.699 150.966 195.232C150.962 194.766 149.604 193.612 147.946 192.669C146.289 191.726 143.525 188.689 141.803 185.919C138.663 180.867 137.972 180.12 137.972 181.775Z" fill="white"/>
<path id="Vector_6" fill-rule="evenodd" clip-rule="evenodd" d="M379.090 0.294C377.814 0.529 376.593 1.035 375.190 1.592C373.787 2.149 372.129 2.974 370.674 3.634C369.219 4.294 367.861 4.906 366.460 5.552C365.059 6.197 363.666 6.860 362.266 7.508C360.867 8.155 359.469 8.805 358.063 9.439C356.658 10.073 355.250 10.703 353.835 11.314C352.420 11.925 350.992 12.505 349.572 13.104C348.153 13.702 346.612 14.342 345.318 14.904C344.024 15.467 343.084 15.878 341.807 16.477C340.531 17.076 339.029 17.798 337.658 18.499C336.287 19.200 334.933 19.939 333.582 20.682C332.230 21.425 330.892 22.198 329.548 22.957C328.205 23.716 326.861 24.471 325.520 25.234C324.179 25.996 322.839 26.761 321.502 27.531C320.166 28.301 318.827 29.068 317.500 29.855C316.173 30.642 314.846 31.432 313.540 32.252C312.233 33.072 310.832 33.982 309.661 34.775C308.491 35.568 307.649 36.160 306.518 37.008C305.386 37.856 304.064 38.881 302.873 39.864C301.683 40.846 300.517 41.862 299.376 42.903C298.235 43.943 297.116 45.010 296.026 46.104C294.935 47.199 293.869 48.320 292.835 49.468C291.801 50.616 290.793 51.791 289.823 52.994C288.853 54.198 287.907 55.426 287.013 56.687C286.119 57.948 285.257 59.237 284.460 60.559C283.662 61.882 282.880 63.361 282.229 64.621C281.579 65.881 281.107 66.815 280.555 68.121C280.004 69.427 279.442 71.006 278.919 72.457C278.396 73.908 277.883 75.363 277.420 76.827C276.956 78.290 276.503 79.757 276.140 81.238C275.777 82.720 275.464 84.207 275.242 85.716C275.021 87.224 274.935 88.760 274.810 90.290C274.685 91.821 274.601 93.362 274.494 94.899C274.387 96.437 274.311 97.984 274.167 99.516C274.023 101.048 273.797 102.691 273.632 104.092C273.466 105.493 273.281 106.517 273.174 107.923C273.067 109.328 272.941 110.996 272.989 112.528C273.037 114.060 273.302 115.589 273.462 117.114C273.621 118.640 273.789 120.165 273.946 121.682C274.104 123.198 274.271 124.706 274.404 126.214C274.537 127.722 274.625 129.234 274.743 130.730C274.862 132.226 274.940 133.711 275.114 135.188C275.289 136.666 275.492 138.134 275.791 139.594C276.090 141.054 276.548 142.615 276.907 143.948C277.266 145.281 277.517 146.258 277.947 147.592C278.377 148.927 278.935 150.511 279.485 151.956C280.036 153.401 280.608 154.852 281.250 156.263C281.891 157.674 282.602 159.060 283.337 160.422C284.072 161.783 284.833 163.128 285.661 164.432C286.489 165.735 287.378 167.007 288.306 168.242C289.234 169.477 290.212 170.680 291.228 171.844C292.243 173.008 293.400 174.222 294.399 175.225C295.397 176.228 296.151 176.934 297.218 177.863C298.285 178.792 299.572 179.867 300.801 180.798C302.030 181.730 303.294 182.624 304.591 183.453C305.888 184.282 307.232 185.034 308.585 185.773C309.937 186.512 311.321 187.205 312.708 187.888C314.095 188.571 315.486 189.292 316.907 189.872C318.327 190.453 319.779 190.926 321.232 191.371C322.686 191.815 324.152 192.180 325.629 192.538C327.106 192.896 328.732 193.306 330.095 193.521C331.459 193.736 332.454 193.773 333.811 193.828C335.169 193.883 336.759 193.872 338.239 193.850C339.719 193.827 341.201 193.846 342.690 193.694C344.178 193.543 345.677 193.219 347.169 192.941C348.662 192.663 350.160 192.351 351.645 192.029C353.131 191.706 354.624 191.436 356.082 191.006C357.540 190.576 358.968 190.010 360.393 189.448C361.817 188.885 363.227 188.264 364.629 187.629C366.030 186.995 367.545 186.287 368.802 185.640C370.059 184.994 370.941 184.451 372.171 183.748C373.400 183.045 374.859 182.223 376.179 181.421C377.499 180.620 378.824 179.814 380.092 178.940C381.359 178.067 382.602 177.155 383.785 176.180C384.969 175.205 386.106 174.175 387.192 173.091C388.278 172.006 389.321 170.867 390.302 169.676C391.284 168.485 392.197 167.215 393.083 165.945C393.969 164.675 394.808 163.378 395.618 162.058C396.427 160.739 397.285 159.284 397.941 158.027C398.597 156.769 399.024 155.821 399.554 154.511C400.084 153.201 400.636 151.623 401.122 150.167C401.608 148.710 402.083 147.248 402.468 145.770C402.854 144.293 403.189 142.801 403.436 141.301C403.682 139.800 403.849 138.285 403.949 136.768C404.050 135.251 404.105 133.733 404.039 132.199C403.973 130.664 403.797 129.095 403.554 127.563C403.311 126.031 402.937 124.513 402.579 123.004C402.221 121.495 401.804 119.869 401.406 118.509C401.008 117.148 400.696 116.160 400.191 114.842C399.685 113.524 399.044 111.981 398.373 110.601C397.701 109.222 396.959 107.877 396.160 106.567C395.361 105.257 394.508 103.975 393.580 102.740C392.651 101.506 391.620 100.315 390.589 99.159C389.557 98.003 388.505 96.868 387.392 95.803C386.278 94.738 385.120 93.715 383.908 92.768C382.696 91.822 381.313 90.874 380.120 90.123C378.928 89.372 378.016 88.896 376.751 88.262C375.486 87.629 373.955 86.918 372.532 86.324C371.108 85.731 369.655 85.199 368.210 84.701C366.764 84.204 365.312 83.759 363.857 83.338C362.402 82.917 360.949 82.503 359.478 82.173C358.006 81.844 356.520 81.518 355.028 81.361C353.535 81.204 352.017 81.149 350.522 81.234C349.027 81.320 347.534 81.523 346.058 81.874C344.583 82.225 342.992 82.834 341.670 83.342C340.348 83.850 339.399 84.288 338.129 84.922C336.858 85.557 335.364 86.349 334.046 87.149C332.728 87.949 331.435 88.789 330.220 89.723C329.005 90.658 327.832 91.661 326.758 92.756C325.683 93.851 324.698 95.055 323.773 96.294C322.848 97.532 321.977 98.845 321.207 100.187C320.437 101.529 319.732 102.923 319.155 104.348C318.579 105.772 318.114 107.245 317.748 108.736C317.381 110.227 317.138 111.887 316.956 113.293C316.773 114.698 316.681 115.746 316.652 117.169C316.623 118.592 316.660 120.290 316.782 121.830C316.904 123.371 317.096 124.904 317.386 126.415C317.676 127.926 318.041 129.433 318.521 130.898C319.001 132.362 319.592 133.813 320.268 135.203C320.944 136.593 321.731 137.947 322.576 139.238C323.421 140.528 324.325 141.792 325.338 142.943C326.352 144.095 327.480 145.149 328.655 146.147C329.831 147.145 331.207 148.146 332.390 148.933C333.572 149.720 334.474 150.275 335.750 150.869C337.026 151.464 338.581 152.112 340.045 152.498C341.510 152.885 343.031 153.129 344.537 153.189C346.043 153.248 347.584 153.146 349.079 152.855C350.574 152.564 352.093 152.054 353.509 151.444C354.925 150.834 356.308 150.077 357.575 149.196C358.843 148.315 360.061 147.326 361.115 146.157C362.169 144.988 363.219 143.587 363.901 142.183C364.583 140.779 365.074 138.991 365.204 137.732C365.335 136.474 365.198 135.533 364.684 134.630C364.171 133.727 363.251 132.825 362.123 132.313C360.995 131.802 359.445 131.696 357.916 131.561C356.387 131.427 354.505 131.689 352.949 131.506C351.392 131.324 349.825 131.104 348.577 130.466C347.329 129.828 346.273 128.826 345.460 127.678C344.647 126.530 344.035 125.060 343.700 123.576C343.366 122.093 343.326 120.198 343.454 118.776C343.581 117.354 343.887 116.246 344.467 115.046C345.048 113.845 345.903 112.518 346.937 111.574C347.971 110.630 349.283 109.909 350.670 109.382C352.057 108.856 353.697 108.590 355.260 108.415C356.823 108.239 358.491 108.224 360.047 108.328C361.602 108.432 363.137 108.639 364.592 109.039C366.048 109.439 367.455 110.011 368.779 110.727C370.104 111.443 371.361 112.344 372.541 113.336C373.722 114.328 374.947 115.591 375.863 116.679C376.778 117.766 377.343 118.650 378.032 119.860C378.721 121.071 379.493 122.533 379.996 123.942C380.498 125.352 380.847 126.827 381.045 128.317C381.243 129.808 381.227 131.351 381.184 132.885C381.141 134.418 380.970 135.976 380.787 137.517C380.605 139.058 380.433 140.623 380.087 142.130C379.742 143.637 379.274 145.141 378.714 146.559C378.155 147.978 377.510 149.344 376.730 150.639C375.950 151.934 374.929 153.245 374.034 154.330C373.140 155.415 372.372 156.138 371.364 157.148C370.355 158.158 369.126 159.333 367.983 160.390C366.840 161.447 365.715 162.537 364.508 163.492C363.300 164.447 362.051 165.350 360.739 166.120C359.426 166.889 358.037 167.535 356.633 168.110C355.229 168.685 353.777 169.194 352.315 169.570C350.853 169.946 349.352 170.178 347.863 170.368C346.374 170.557 344.880 170.641 343.379 170.708C341.877 170.776 340.249 170.794 338.854 170.774C337.459 170.753 336.423 170.699 335.006 170.587C333.590 170.475 331.881 170.330 330.357 170.100C328.834 169.870 327.317 169.638 325.865 169.205C324.413 168.773 322.994 168.200 321.644 167.505C320.294 166.809 319.002 165.948 317.765 165.033C316.528 164.118 315.355 163.075 314.225 162.015C313.094 160.954 312.010 159.828 310.981 158.670C309.952 157.513 308.953 156.319 308.048 155.069C307.144 153.819 306.239 152.401 305.554 151.171C304.868 149.940 304.440 149.000 303.935 147.685C303.429 146.370 302.931 144.772 302.522 143.282C302.113 141.792 301.780 140.267 301.480 138.745C301.179 137.224 300.938 135.686 300.719 134.152C300.501 132.618 300.320 131.081 300.170 129.542C300.020 128.004 299.897 126.464 299.821 124.920C299.745 123.375 299.728 121.823 299.712 120.273C299.697 118.722 299.726 117.039 299.728 115.616C299.730 114.193 299.696 113.154 299.723 111.734C299.751 110.314 299.805 108.638 299.893 107.095C299.982 105.552 300.130 104.016 300.254 102.475C300.379 100.934 300.501 99.390 300.640 97.850C300.779 96.310 300.910 94.767 301.090 93.236C301.270 91.704 301.485 90.182 301.722 88.661C301.959 87.140 302.195 85.621 302.510 84.112C302.825 82.603 303.201 81.100 303.610 79.607C304.019 78.113 304.525 76.502 304.964 75.150C305.402 73.797 305.712 72.806 306.242 71.493C306.771 70.181 307.418 68.633 308.143 67.276C308.869 65.919 309.697 64.603 310.595 63.354C311.493 62.104 312.487 60.910 313.533 59.780C314.580 58.651 315.710 57.586 316.873 56.575C318.036 55.563 319.265 54.617 320.513 53.710C321.761 52.804 323.055 51.955 324.361 51.134C325.668 50.313 327.005 49.538 328.351 48.785C329.697 48.032 331.180 47.259 332.438 46.613C333.695 45.967 334.620 45.516 335.896 44.910C337.173 44.304 338.692 43.608 340.098 42.976C341.504 42.344 342.921 41.736 344.334 41.119C345.747 40.502 347.165 39.897 348.575 39.274C349.986 38.651 351.397 38.030 352.798 37.383C354.198 36.737 355.604 36.091 356.980 35.393C358.356 34.696 359.728 33.980 361.054 33.197C362.380 32.414 363.686 31.591 364.935 30.696C366.184 29.801 367.483 28.751 368.550 27.828C369.616 26.906 370.356 26.183 371.334 25.161C372.313 24.138 373.431 22.882 374.421 21.694C375.411 20.506 376.361 19.280 377.275 18.032C378.190 16.783 379.030 15.542 379.907 14.201C380.784 12.861 381.768 11.434 382.538 9.988C383.308 8.543 384.158 6.861 384.528 5.529C384.899 4.197 385.040 2.890 384.760 1.998C384.480 1.106 383.791 0.461 382.846 0.177C381.901 -0.107 380.366 0.058 379.090 0.294ZM1191.275 61.850C1189.891 62.027 1188.890 62.198 1187.527 62.489C1186.165 62.780 1184.565 63.183 1183.100 63.596C1181.635 64.010 1180.188 64.493 1178.738 64.969C1177.287 65.445 1175.834 65.913 1174.397 66.454C1172.961 66.994 1171.528 67.587 1170.117 68.213C1168.706 68.839 1167.311 69.516 1165.933 70.210C1164.556 70.903 1163.187 71.608 1161.852 72.373C1160.516 73.138 1159.203 73.950 1157.919 74.801C1156.635 75.651 1155.378 76.551 1154.147 77.478C1152.916 78.406 1151.709 79.371 1150.533 80.368C1149.356 81.364 1148.117 82.488 1147.088 83.458C1146.059 84.428 1145.328 85.155 1144.361 86.187C1143.394 87.219 1142.259 88.457 1141.286 89.653C1140.313 90.848 1139.370 92.079 1138.523 93.359C1137.675 94.640 1136.923 95.978 1136.201 97.336C1135.478 98.693 1134.802 100.090 1134.187 101.505C1133.572 102.920 1133.001 104.367 1132.510 105.826C1132.018 107.286 1131.592 108.770 1131.238 110.262C1130.884 111.754 1130.596 113.255 1130.385 114.778C1130.175 116.301 1130.012 117.858 1129.975 119.400C1129.938 120.942 1130.041 122.508 1130.164 124.029C1130.288 125.551 1130.494 127.042 1130.714 128.530C1130.935 130.017 1131.215 131.610 1131.488 132.953C1131.760 134.296 1131.984 135.266 1132.349 136.587C1132.714 137.909 1133.177 139.463 1133.679 140.883C1134.180 142.303 1134.711 143.726 1135.359 145.108C1136.007 146.490 1136.761 147.858 1137.569 149.174C1138.378 150.490 1139.295 151.757 1140.210 153.006C1141.124 154.256 1142.060 155.492 1143.056 156.670C1144.052 157.848 1145.088 158.998 1146.184 160.075C1147.281 161.151 1148.430 162.185 1149.635 163.130C1150.839 164.074 1152.106 164.952 1153.414 165.744C1154.722 166.537 1156.094 167.221 1157.483 167.885C1158.872 168.548 1160.438 169.187 1161.750 169.726C1163.062 170.264 1164.021 170.643 1165.355 171.115C1166.689 171.587 1168.299 172.136 1169.755 172.557C1171.211 172.979 1172.649 173.364 1174.094 173.642C1175.539 173.920 1176.977 174.138 1178.424 174.225C1179.872 174.311 1181.325 174.278 1182.777 174.162C1184.229 174.046 1185.679 173.829 1187.136 173.527C1188.593 173.225 1190.066 172.812 1191.519 172.348C1192.972 171.884 1194.453 171.382 1195.854 170.744C1197.255 170.106 1198.617 169.328 1199.925 168.520C1201.234 167.712 1202.507 166.854 1203.705 165.896C1204.902 164.939 1206.039 163.879 1207.110 162.773C1208.181 161.667 1209.250 160.369 1210.133 159.260C1211.016 158.151 1211.656 157.314 1212.407 156.119C1213.159 154.924 1213.952 153.471 1214.642 152.091C1215.332 150.711 1216.025 149.273 1216.547 147.839C1217.068 146.405 1217.482 144.949 1217.768 143.485C1218.055 142.021 1218.208 140.542 1218.265 139.057C1218.322 137.572 1218.261 136.069 1218.112 134.576C1217.963 133.083 1217.724 131.586 1217.371 130.100C1217.017 128.614 1216.499 127.114 1215.990 125.658C1215.481 124.202 1214.984 122.747 1214.317 121.363C1213.650 119.979 1212.844 118.634 1211.987 117.354C1211.130 116.074 1210.090 114.758 1209.175 113.685C1208.260 112.612 1207.542 111.872 1206.496 110.916C1205.450 109.960 1204.170 108.821 1202.899 107.949C1201.628 107.076 1200.243 106.329 1198.868 105.682C1197.492 105.035 1196.072 104.473 1194.645 104.069C1193.218 103.665 1191.764 103.388 1190.307 103.257C1188.850 103.125 1187.360 103.128 1185.903 103.279C1184.447 103.430 1182.972 103.713 1181.569 104.162C1180.165 104.610 1178.796 105.203 1177.484 105.968C1176.172 106.733 1174.836 107.677 1173.698 108.751C1172.559 109.826 1171.451 111.075 1170.651 112.415C1169.852 113.756 1169.150 115.393 1168.902 116.793C1168.655 118.193 1168.810 119.754 1169.166 120.814C1169.521 121.875 1170.073 122.539 1171.034 123.157C1171.996 123.776 1173.478 124.236 1174.933 124.527C1176.389 124.818 1178.200 124.711 1179.769 124.902C1181.337 125.093 1183.018 125.142 1184.345 125.672C1185.671 126.203 1186.811 127.034 1187.727 128.085C1188.643 129.136 1189.400 130.549 1189.843 131.978C1190.287 133.407 1190.489 135.131 1190.389 136.657C1190.290 138.184 1189.869 139.841 1189.247 141.139C1188.625 142.437 1187.732 143.585 1186.656 144.444C1185.581 145.304 1184.217 145.873 1182.793 146.296C1181.370 146.720 1179.696 146.849 1178.116 146.984C1176.536 147.120 1174.740 147.156 1173.311 147.111C1171.882 147.066 1170.854 146.995 1169.540 146.717C1168.226 146.439 1166.732 146.044 1165.428 145.443C1164.125 144.841 1162.891 144.041 1161.720 143.106C1160.548 142.172 1159.399 141.021 1158.401 139.836C1157.404 138.650 1156.490 137.307 1155.734 135.992C1154.978 134.678 1154.327 133.362 1153.863 131.950C1153.399 130.538 1153.128 129.036 1152.949 127.519C1152.770 126.001 1152.776 124.406 1152.787 122.846C1152.799 121.285 1152.876 119.702 1153.018 118.156C1153.161 116.610 1153.318 115.065 1153.640 113.569C1153.962 112.072 1154.452 110.479 1154.952 109.176C1155.452 107.874 1155.916 106.953 1156.639 105.754C1157.362 104.554 1158.325 103.178 1159.290 101.978C1160.256 100.779 1161.333 99.645 1162.430 98.556C1163.527 97.467 1164.686 96.432 1165.874 95.445C1167.061 94.458 1168.286 93.512 1169.554 92.634C1170.821 91.756 1172.128 90.909 1173.479 90.176C1174.829 89.444 1176.226 88.775 1177.657 88.239C1179.088 87.703 1180.581 87.354 1182.065 86.961C1183.548 86.569 1185.053 86.211 1186.556 85.884C1188.060 85.556 1189.592 85.201 1191.088 84.995C1192.583 84.789 1194.053 84.693 1195.530 84.648C1197.007 84.604 1198.596 84.621 1199.949 84.729C1201.301 84.836 1202.293 84.973 1203.644 85.293C1204.996 85.613 1206.615 86.139 1208.058 86.651C1209.502 87.162 1210.929 87.707 1212.304 88.361C1213.680 89.015 1215.037 89.720 1216.310 90.572C1217.582 91.425 1218.785 92.447 1219.939 93.475C1221.093 94.502 1222.196 95.596 1223.232 96.739C1224.268 97.881 1225.250 99.082 1226.155 100.329C1227.059 101.577 1227.913 102.879 1228.659 104.223C1229.406 105.567 1230.082 106.967 1230.634 108.396C1231.186 109.825 1231.611 111.306 1231.970 112.797C1232.328 114.289 1232.559 115.950 1232.785 117.345C1233.011 118.740 1233.137 119.764 1233.326 121.165C1233.514 122.566 1233.722 124.224 1233.915 125.751C1234.107 127.278 1234.312 128.800 1234.480 130.328C1234.648 131.855 1234.816 133.379 1234.923 134.915C1235.030 136.450 1235.103 137.996 1235.123 139.541C1235.143 141.085 1235.115 142.642 1235.043 144.181C1234.971 145.720 1234.849 147.248 1234.692 148.776C1234.536 150.303 1234.320 151.823 1234.106 153.345C1233.893 154.867 1233.642 156.386 1233.411 157.908C1233.180 159.430 1232.936 160.952 1232.720 162.479C1232.504 164.007 1232.330 165.543 1232.114 167.072C1231.898 168.601 1231.664 170.258 1231.427 171.653C1231.189 173.048 1230.993 174.060 1230.689 175.443C1230.386 176.827 1230.020 178.468 1229.606 179.956C1229.193 181.444 1228.748 182.931 1228.207 184.371C1227.666 185.811 1227.060 187.232 1226.360 188.597C1225.660 189.961 1224.869 191.286 1224.006 192.556C1223.143 193.826 1222.185 195.046 1221.181 196.217C1220.177 197.388 1219.101 198.521 1217.982 199.581C1216.863 200.641 1215.689 201.647 1214.468 202.576C1213.248 203.506 1211.967 204.358 1210.658 205.160C1209.350 205.962 1207.985 206.682 1206.615 207.388C1205.246 208.094 1203.721 208.790 1202.442 209.396C1201.163 210.001 1200.222 210.419 1198.943 211.023C1197.665 211.627 1196.160 212.351 1194.771 213.021C1193.383 213.690 1191.997 214.365 1190.611 215.041C1189.226 215.717 1187.841 216.394 1186.459 217.077C1185.077 217.760 1183.696 218.444 1182.319 219.138C1180.942 219.832 1179.565 220.526 1178.197 221.241C1176.830 221.955 1175.457 222.666 1174.114 223.425C1172.771 224.183 1171.430 224.953 1170.139 225.791C1168.848 226.629 1167.579 227.507 1166.369 228.452C1165.158 229.397 1163.989 230.403 1162.873 231.461C1161.758 232.519 1160.696 233.645 1159.677 234.801C1158.658 235.958 1157.619 237.277 1156.759 238.402C1155.899 239.527 1155.335 240.338 1154.517 241.550C1153.698 242.761 1152.646 244.240 1151.850 245.671C1151.053 247.102 1150.157 248.791 1149.737 250.137C1149.316 251.483 1149.108 252.827 1149.326 253.747C1149.545 254.668 1150.160 255.343 1151.050 255.659C1151.941 255.974 1153.285 255.895 1154.669 255.640C1156.052 255.384 1157.814 254.692 1159.351 254.126C1160.887 253.560 1162.411 252.838 1163.886 252.245C1165.361 251.652 1166.763 251.133 1168.198 250.570C1169.634 250.006 1171.066 249.438 1172.496 248.863C1173.927 248.288 1175.354 247.707 1176.779 247.120C1178.204 246.533 1179.745 245.889 1181.047 245.341C1182.350 244.792 1183.295 244.390 1184.593 243.830C1185.890 243.270 1187.422 242.605 1188.831 241.981C1190.241 241.357 1191.648 240.728 1193.049 240.084C1194.450 239.441 1195.848 238.791 1197.236 238.122C1198.625 237.453 1200.008 236.772 1201.381 236.071C1202.754 235.370 1204.118 234.652 1205.472 233.915C1206.826 233.178 1208.170 232.422 1209.503 231.649C1210.836 230.875 1212.160 230.083 1213.472 229.274C1214.785 228.465 1216.088 227.640 1217.378 226.796C1218.669 225.952 1219.951 225.095 1221.215 224.212C1222.479 223.329 1223.830 222.347 1224.961 221.499C1226.091 220.652 1226.897 220.015 1227.996 219.126C1229.094 218.237 1230.359 217.146 1231.550 216.165C1232.741 215.183 1233.949 214.216 1235.142 213.236C1236.335 212.256 1237.554 211.299 1238.708 210.286C1239.863 209.274 1241.009 208.253 1242.071 207.159C1243.133 206.065 1244.146 204.927 1245.079 203.721C1246.012 202.514 1246.856 201.230 1247.669 199.920C1248.482 198.610 1249.228 197.225 1249.957 195.859C1250.685 194.492 1251.378 193.117 1252.039 191.723C1252.699 190.328 1253.345 188.920 1253.919 187.493C1254.494 186.066 1255.012 184.615 1255.487 183.160C1255.963 181.706 1256.420 180.111 1256.775 178.767C1257.129 177.423 1257.311 176.437 1257.614 175.095C1257.917 173.753 1258.311 172.181 1258.593 170.713C1258.876 169.246 1259.140 167.779 1259.309 166.289C1259.479 164.799 1259.530 163.285 1259.611 161.776C1259.692 160.266 1259.707 158.743 1259.796 157.231C1259.885 155.719 1260.005 154.216 1260.144 152.703C1260.284 151.191 1260.503 149.662 1260.635 148.158C1260.768 146.653 1260.916 145.169 1260.940 143.676C1260.963 142.183 1260.877 140.704 1260.777 139.199C1260.677 137.694 1260.479 136.159 1260.340 134.646C1260.202 133.133 1260.047 131.504 1259.944 130.121C1259.842 128.738 1259.819 127.728 1259.726 126.349C1259.633 124.970 1259.541 123.337 1259.386 121.846C1259.232 120.356 1259.033 118.882 1258.797 117.405C1258.561 115.928 1258.277 114.455 1257.972 112.987C1257.666 111.519 1257.383 110.046 1256.965 108.598C1256.547 107.150 1256.044 105.710 1255.464 104.301C1254.885 102.891 1254.213 101.504 1253.486 100.142C1252.760 98.781 1251.891 97.468 1251.107 96.129C1250.323 94.791 1249.561 93.448 1248.782 92.111C1248.003 90.774 1247.255 89.408 1246.431 88.106C1245.607 86.804 1244.771 85.507 1243.838 84.299C1242.906 83.091 1241.813 81.852 1240.837 80.855C1239.861 79.858 1239.087 79.189 1237.981 78.319C1236.876 77.448 1235.490 76.492 1234.205 75.633C1232.921 74.773 1231.592 73.968 1230.273 73.163C1228.954 72.358 1227.630 71.573 1226.291 70.803C1224.953 70.032 1223.612 69.243 1222.241 68.540C1220.869 67.836 1219.471 67.186 1218.062 66.581C1216.653 65.977 1215.226 65.421 1213.785 64.912C1212.343 64.404 1210.886 63.938 1209.413 63.531C1207.941 63.125 1206.452 62.780 1204.951 62.475C1203.449 62.169 1201.923 61.875 1200.404 61.700C1198.885 61.525 1197.356 61.399 1195.835 61.424C1194.313 61.449 1192.660 61.672 1191.275 61.850ZM456.527 65.822C455.186 66.072 454.262 66.339 452.945 66.604C451.628 66.868 450.073 67.083 448.623 67.407C447.174 67.732 445.735 68.179 444.246 68.550C442.756 68.922 441.094 69.111 439.685 69.638C438.277 70.164 436.806 70.725 435.793 71.711C434.780 72.697 434.241 74.183 433.608 75.553C432.974 76.923 432.538 78.486 431.994 79.932C431.451 81.378 430.752 82.725 430.347 84.229C429.943 85.733 429.380 87.673 429.566 88.954C429.751 90.235 430.428 91.487 431.462 91.915C432.495 92.343 434.429 91.828 435.765 91.522C437.101 91.217 438.127 90.553 439.477 90.083C440.827 89.613 442.379 89.075 443.866 88.704C445.353 88.333 446.890 88.137 448.399 87.855C449.908 87.574 451.407 87.241 452.919 87.015C454.432 86.788 455.945 86.587 457.474 86.497C459.003 86.406 460.555 86.465 462.094 86.472C463.633 86.478 465.173 86.481 466.709 86.534C468.245 86.587 469.785 86.639 471.309 86.791C472.833 86.943 474.381 87.091 475.854 87.445C477.327 87.799 478.824 88.215 480.147 88.912C481.470 89.609 482.713 90.564 483.792 91.627C484.872 92.690 485.894 94.099 486.623 95.289C487.353 96.480 487.691 97.453 488.171 98.770C488.650 100.086 489.128 101.703 489.503 103.187C489.878 104.672 490.231 106.130 490.419 107.676C490.608 109.221 490.764 110.991 490.635 112.461C490.506 113.930 490.340 115.777 489.644 116.494C488.948 117.211 487.687 117.133 486.460 116.762C485.233 116.390 483.643 115.069 482.280 114.264C480.918 113.459 479.654 112.609 478.283 111.931C476.912 111.253 475.486 110.709 474.055 110.196C472.623 109.683 471.163 109.277 469.696 108.851C468.229 108.426 466.620 107.873 465.253 107.645C463.885 107.417 462.858 107.420 461.491 107.483C460.124 107.546 458.522 107.834 457.049 108.022C455.576 108.210 454.120 108.372 452.652 108.609C451.183 108.846 449.699 109.071 448.238 109.444C446.777 109.817 445.318 110.311 443.887 110.847C442.456 111.384 441.037 112.003 439.651 112.666C438.265 113.329 436.891 114.045 435.569 114.827C434.246 115.608 432.930 116.421 431.716 117.353C430.502 118.285 429.369 119.335 428.284 120.419C427.199 121.504 426.203 122.688 425.204 123.861C424.205 125.033 423.176 126.208 422.289 127.456C421.402 128.704 420.556 130.125 419.882 131.348C419.208 132.571 418.765 133.501 418.243 134.796C417.722 136.091 417.134 137.646 416.753 139.119C416.371 140.593 416.140 142.116 415.954 143.638C415.768 145.160 415.711 146.710 415.636 148.251C415.561 149.792 415.445 151.357 415.504 152.883C415.563 154.409 415.766 155.932 415.991 157.409C416.216 158.886 416.499 160.312 416.855 161.745C417.210 163.179 417.584 164.604 418.125 166.009C418.666 167.414 419.388 168.816 420.103 170.176C420.817 171.536 421.642 172.840 422.412 174.169C423.183 175.499 423.883 176.889 424.727 178.153C425.572 179.417 426.505 180.788 427.480 181.754C428.455 182.719 429.394 183.200 430.576 183.947C431.759 184.694 433.240 185.475 434.575 186.237C435.909 186.999 437.207 187.846 438.583 188.521C439.960 189.196 441.393 189.756 442.833 190.288C444.274 190.820 445.753 191.284 447.227 191.713C448.700 192.142 450.174 192.590 451.675 192.861C453.176 193.131 454.704 193.254 456.235 193.334C457.766 193.413 459.324 193.377 460.861 193.339C462.398 193.301 463.942 193.260 465.457 193.104C466.972 192.947 468.481 192.745 469.951 192.399C471.421 192.052 472.982 191.532 474.276 191.024C475.571 190.517 476.487 190.032 477.719 189.352C478.951 188.671 480.378 187.783 481.668 186.942C482.959 186.101 484.212 185.265 485.462 184.306C486.713 183.347 488.089 181.700 489.172 181.191C490.255 180.681 491.375 180.520 491.959 181.248C492.543 181.977 492.323 184.138 492.678 185.560C493.032 186.981 493.209 188.864 494.086 189.778C494.964 190.692 496.549 190.916 497.943 191.043C499.336 191.170 500.937 190.716 502.448 190.542C503.959 190.367 505.568 190.387 507.006 189.995C508.444 189.604 510.074 189.117 511.074 188.192C512.075 187.268 512.654 185.724 513.011 184.449C513.367 183.174 513.164 181.964 513.213 180.541C513.262 179.118 513.276 177.452 513.302 175.911C513.329 174.370 513.353 172.834 513.372 171.296C513.390 169.758 513.403 168.219 513.414 166.681C513.425 165.142 513.433 163.604 513.440 162.066C513.447 160.527 513.452 158.989 513.456 157.450C513.460 155.912 513.463 154.373 513.465 152.835C513.468 151.297 513.469 149.758 513.470 148.220C513.471 146.681 513.472 145.143 513.472 143.604C513.472 142.066 513.472 140.528 513.471 138.989C513.470 137.451 513.468 135.784 513.465 134.374C513.462 132.964 513.460 131.938 513.455 130.528C513.451 129.118 513.444 127.451 513.437 125.913C513.429 124.374 513.420 122.836 513.408 121.297C513.396 119.759 513.383 118.221 513.366 116.682C513.349 115.144 513.330 113.606 513.305 112.067C513.280 110.529 513.253 108.991 513.216 107.453C513.180 105.915 513.150 104.376 513.086 102.839C513.022 101.301 513.041 99.738 512.832 98.226C512.624 96.715 512.265 95.234 511.836 93.768C511.406 92.302 510.820 90.863 510.257 89.432C509.694 88.001 509.157 86.548 508.460 85.183C507.763 83.818 506.890 82.384 506.076 81.242C505.262 80.101 504.574 79.325 503.578 78.335C502.582 77.346 501.303 76.258 500.099 75.304C498.894 74.349 497.637 73.450 496.351 72.608C495.065 71.766 493.753 70.937 492.383 70.253C491.013 69.569 489.559 69.061 488.131 68.504C486.704 67.947 485.269 67.381 483.819 66.910C482.368 66.440 480.927 65.959 479.430 65.681C477.933 65.403 476.371 65.350 474.837 65.243C473.303 65.136 471.764 65.085 470.226 65.039C468.689 64.993 467.151 64.958 465.612 64.968C464.073 64.979 462.506 64.959 460.992 65.101C459.478 65.244 457.868 65.571 456.527 65.822ZM594.371 66.141C593.008 66.372 592.028 66.576 590.686 66.924C589.344 67.272 587.753 67.701 586.319 68.226C584.885 68.751 583.480 69.429 582.082 70.073C580.683 70.716 579.285 71.365 577.928 72.085C576.572 72.805 575.266 73.608 573.940 74.391C572.615 75.175 571.214 75.899 569.977 76.786C568.740 77.673 567.644 78.639 566.518 79.713C565.391 80.787 564.285 82.524 563.219 83.231C562.153 83.938 560.771 84.397 560.120 83.954C559.469 83.510 559.241 81.922 559.313 80.568C559.384 79.214 560.298 77.257 560.547 75.831C560.796 74.405 561.078 73.330 560.807 72.011C560.536 70.692 559.867 68.845 558.922 67.915C557.977 66.985 556.517 66.595 555.137 66.431C553.757 66.266 552.143 66.705 550.642 66.926C549.142 67.148 547.586 67.453 546.134 67.759C544.681 68.064 542.995 68.097 541.929 68.759C540.863 69.421 540.143 70.458 539.735 71.732C539.328 73.005 539.538 74.847 539.485 76.401C539.431 77.954 539.444 79.507 539.416 81.052C539.388 82.596 539.345 84.128 539.315 85.667C539.284 87.205 539.258 88.744 539.233 90.283C539.208 91.821 539.185 93.488 539.166 94.899C539.146 96.309 539.134 97.335 539.118 98.745C539.101 100.156 539.083 101.823 539.068 103.361C539.053 104.900 539.039 106.439 539.026 107.978C539.013 109.516 539.001 111.055 538.990 112.594C538.979 114.133 538.969 115.672 538.960 117.210C538.951 118.749 538.943 120.288 538.935 121.827C538.927 123.365 538.921 124.904 538.914 126.443C538.908 127.982 538.903 129.521 538.898 131.059C538.893 132.598 538.889 134.137 538.886 135.676C538.882 137.215 538.879 138.753 538.877 140.292C538.875 141.831 538.873 143.498 538.872 144.909C538.871 146.319 538.871 147.345 538.871 148.756C538.871 150.166 538.871 151.833 538.872 153.372C538.873 154.911 538.875 156.450 538.877 157.989C538.880 159.527 538.882 161.066 538.886 162.605C538.889 164.144 538.893 165.683 538.898 167.221C538.903 168.760 538.908 170.299 538.914 171.838C538.919 173.377 538.926 174.915 538.933 176.454C538.940 177.993 538.948 179.532 538.957 181.070C538.965 182.609 538.974 184.148 538.985 185.687C538.995 187.226 539.005 188.764 539.017 190.303C539.029 191.842 539.041 193.381 539.054 194.919C539.068 196.458 539.084 198.125 539.098 199.536C539.112 200.946 539.122 201.972 539.138 203.382C539.154 204.793 539.174 206.460 539.194 207.998C539.214 209.537 539.235 211.076 539.259 212.614C539.282 214.153 539.307 215.692 539.334 217.230C539.362 218.769 539.391 220.307 539.425 221.846C539.458 223.384 539.511 224.908 539.535 226.461C539.559 228.014 539.488 229.616 539.569 231.162C539.650 232.709 539.508 234.598 540.020 235.742C540.531 236.885 541.466 237.744 542.639 238.023C543.811 238.301 545.585 237.702 547.056 237.412C548.526 237.123 549.984 236.589 551.461 236.286C552.938 235.982 554.629 235.979 555.918 235.591C557.207 235.203 558.271 234.824 559.195 233.958C560.118 233.093 561.002 231.768 561.459 230.398C561.916 229.028 561.858 227.290 561.936 225.739C562.014 224.188 561.930 222.638 561.925 221.094C561.920 219.550 561.915 218.016 561.905 216.477C561.895 214.938 561.880 213.400 561.865 211.861C561.850 210.322 561.831 208.783 561.815 207.245C561.798 205.706 561.779 204.167 561.764 202.629C561.749 201.090 561.734 199.551 561.724 198.012C561.715 196.474 561.708 194.935 561.707 193.396C561.707 191.857 561.717 190.196 561.722 188.779C561.726 187.363 561.709 186.352 561.736 184.899C561.763 183.446 561.553 181.214 561.882 180.061C562.211 178.909 562.808 178.036 563.712 177.984C564.615 177.931 566.055 178.965 567.303 179.747C568.551 180.528 569.903 181.772 571.201 182.671C572.500 183.570 573.769 184.365 575.095 185.142C576.420 185.919 577.783 186.633 579.152 187.332C580.521 188.031 581.918 188.679 583.309 189.336C584.701 189.994 586.082 190.770 587.502 191.279C588.922 191.788 590.360 192.118 591.830 192.390C593.300 192.662 594.812 192.742 596.321 192.909C597.829 193.076 599.480 193.290 600.881 193.391C602.283 193.493 603.317 193.507 604.728 193.516C606.139 193.526 607.822 193.535 609.348 193.448C610.875 193.360 612.402 193.185 613.887 192.994C615.372 192.804 616.819 192.609 618.258 192.304C619.698 191.998 621.105 191.644 622.525 191.162C623.945 190.681 625.358 190.002 626.777 189.416C628.196 188.830 629.644 188.292 631.039 187.647C632.434 187.002 633.805 186.294 635.147 185.546C636.489 184.797 637.776 183.961 639.089 183.157C640.403 182.353 641.752 181.563 643.028 180.721C644.304 179.878 645.629 179.099 646.746 178.104C647.862 177.109 648.871 175.842 649.726 174.749C650.582 173.656 651.064 172.700 651.879 171.547C652.694 170.394 653.738 169.091 654.618 167.831C655.498 166.570 656.371 165.301 657.160 163.983C657.949 162.666 658.663 161.299 659.352 159.925C660.041 158.550 660.648 157.137 661.292 155.737C661.935 154.337 662.648 152.950 663.210 151.525C663.772 150.100 664.284 148.662 664.665 147.188C665.046 145.715 665.262 144.194 665.495 142.682C665.728 141.171 665.906 139.642 666.064 138.117C666.222 136.592 666.377 135.068 666.442 133.533C666.508 131.999 666.478 130.321 666.457 128.909C666.436 127.497 666.426 126.461 666.316 125.063C666.206 123.664 665.972 122.020 665.796 120.516C665.620 119.013 665.509 117.517 665.261 116.040C665.012 114.564 664.731 113.111 664.305 111.659C663.879 110.207 663.234 108.772 662.703 107.328C662.171 105.884 661.705 104.412 661.115 102.994C660.525 101.575 659.874 100.180 659.161 98.819C658.448 97.459 657.655 96.133 656.839 94.830C656.022 93.528 655.159 92.251 654.262 91.002C653.364 89.754 652.430 88.528 651.454 87.339C650.479 86.151 649.473 84.980 648.408 83.873C647.344 82.766 646.127 81.625 645.068 80.697C644.009 79.770 643.194 79.141 642.057 78.310C640.920 77.479 639.540 76.539 638.246 75.710C636.951 74.880 635.630 74.089 634.291 73.335C632.951 72.581 631.594 71.847 630.209 71.185C628.823 70.523 627.411 69.911 625.978 69.360C624.545 68.809 623.075 68.346 621.611 67.879C620.146 67.412 618.677 66.924 617.190 66.558C615.703 66.193 614.207 65.872 612.691 65.684C611.174 65.495 609.626 65.474 608.089 65.426C606.553 65.378 605.011 65.377 603.473 65.395C601.935 65.413 600.379 65.411 598.862 65.536C597.345 65.660 595.734 65.909 594.371 66.141ZM711.503 66.263C710.125 66.539 709.146 66.845 707.800 67.256C706.455 67.666 704.884 68.218 703.430 68.726C701.976 69.234 700.414 69.606 699.075 70.303C697.736 70.999 696.332 71.795 695.396 72.907C694.460 74.018 693.957 75.546 693.459 76.970C692.962 78.395 692.799 79.980 692.412 81.455C692.025 82.931 691.532 84.368 691.137 85.824C690.742 87.279 689.911 89.078 690.039 90.188C690.168 91.297 690.845 92.222 691.910 92.481C692.974 92.740 694.946 92.144 696.426 91.741C697.906 91.339 699.326 90.552 700.790 90.066C702.254 89.580 703.721 89.175 705.213 88.824C706.705 88.474 708.243 88.264 709.743 87.961C711.244 87.658 712.715 87.251 714.216 87.007C715.718 86.764 717.225 86.584 718.752 86.499C720.278 86.414 721.837 86.490 723.376 86.499C724.915 86.508 726.451 86.517 727.988 86.556C729.526 86.594 731.074 86.598 732.600 86.730C734.126 86.862 735.795 87.032 737.143 87.349C738.492 87.666 739.470 87.993 740.692 88.634C741.913 89.274 743.294 90.214 744.473 91.192C745.651 92.170 746.895 93.281 747.761 94.502C748.628 95.723 749.236 97.093 749.671 98.517C750.106 99.941 750.126 101.539 750.371 103.046C750.617 104.553 750.929 106.022 751.146 107.559C751.362 109.097 751.766 110.791 751.670 112.271C751.575 113.752 751.289 115.703 750.572 116.442C749.854 117.181 748.574 117.097 747.365 116.705C746.156 116.312 744.677 114.872 743.318 114.085C741.958 113.298 740.606 112.625 739.210 111.981C737.814 111.337 736.390 110.723 734.941 110.222C733.492 109.722 732.003 109.334 730.514 108.979C729.026 108.623 727.500 108.375 726.009 108.090C724.518 107.805 723.021 107.336 721.566 107.269C720.111 107.202 718.715 107.464 717.278 107.690C715.840 107.916 714.402 108.357 712.941 108.623C711.481 108.889 709.972 108.948 708.513 109.287C707.054 109.626 705.489 110.166 704.186 110.656C702.883 111.145 701.944 111.574 700.696 112.223C699.448 112.871 698.007 113.734 696.700 114.545C695.392 115.357 694.079 116.174 692.851 117.092C691.623 118.011 690.426 118.987 689.332 120.057C688.238 121.127 687.231 122.305 686.285 123.512C685.340 124.720 684.518 126.025 683.658 127.302C682.798 128.580 681.919 129.875 681.126 131.177C680.332 132.479 679.491 133.747 678.898 135.114C678.305 136.481 677.909 137.919 677.568 139.381C677.227 140.843 677.014 142.373 676.853 143.886C676.692 145.398 676.612 146.923 676.602 148.455C676.592 149.987 676.689 151.541 676.793 153.077C676.897 154.612 676.995 156.152 677.226 157.666C677.457 159.181 677.794 160.682 678.177 162.164C678.561 163.646 678.988 165.132 679.528 166.559C680.069 167.987 680.688 169.387 681.421 170.730C682.153 172.072 683.044 173.354 683.924 174.616C684.803 175.879 685.703 177.138 686.700 178.303C687.696 179.468 688.761 180.585 689.901 181.607C691.042 182.628 692.399 183.609 693.542 184.431C694.685 185.254 695.560 185.797 696.757 186.542C697.954 187.287 699.375 188.171 700.724 188.901C702.074 189.632 703.439 190.375 704.855 190.928C706.271 191.481 707.738 191.883 709.220 192.219C710.701 192.555 712.226 192.758 713.745 192.945C715.264 193.132 716.797 193.257 718.332 193.341C719.868 193.424 721.427 193.486 722.959 193.446C724.490 193.406 726.023 193.344 727.524 193.103C729.024 192.862 730.503 192.456 731.960 191.999C733.417 191.542 734.861 190.977 736.265 190.362C737.669 189.747 739.041 189.053 740.383 188.308C741.726 187.564 743.048 186.791 744.321 185.894C745.594 184.997 746.808 183.812 748.022 182.924C749.235 182.037 750.726 180.643 751.603 180.569C752.480 180.496 752.974 181.354 753.284 182.484C753.595 183.614 753.014 185.999 753.466 187.350C753.919 188.700 754.831 189.962 755.998 190.590C757.165 191.217 758.972 191.144 760.467 191.117C761.961 191.090 763.584 190.650 764.963 190.426C766.341 190.202 767.425 190.157 768.739 189.773C770.052 189.389 771.869 189.009 772.844 188.121C773.820 187.233 774.309 185.837 774.590 184.447C774.871 183.056 774.539 181.327 774.531 179.779C774.524 178.231 774.539 176.697 774.546 175.158C774.553 173.619 774.565 172.083 774.575 170.545C774.584 169.007 774.594 167.470 774.603 165.932C774.613 164.394 774.622 162.857 774.632 161.319C774.641 159.782 774.651 158.244 774.660 156.706C774.670 155.169 774.679 153.631 774.689 152.093C774.698 150.556 774.708 149.018 774.717 147.480C774.727 145.943 774.736 144.405 774.744 142.867C774.752 141.330 774.760 139.792 774.765 138.255C774.770 136.717 774.774 135.179 774.776 133.642C774.778 132.104 774.778 130.566 774.776 129.029C774.774 127.491 774.770 125.953 774.763 124.416C774.757 122.878 774.748 121.340 774.735 119.803C774.722 118.265 774.707 116.727 774.685 115.190C774.664 113.652 774.631 111.988 774.606 110.578C774.581 109.167 774.634 108.125 774.535 106.725C774.436 105.325 774.217 103.690 774.010 102.180C773.803 100.669 773.540 99.169 773.293 97.662C773.045 96.154 772.895 94.615 772.525 93.134C772.155 91.653 771.651 90.193 771.072 88.774C770.493 87.356 769.788 85.972 769.051 84.623C768.314 83.274 767.541 81.926 766.650 80.681C765.759 79.435 764.788 78.228 763.707 77.150C762.626 76.072 761.403 75.117 760.165 74.213C758.927 73.308 757.600 72.507 756.278 71.722C754.956 70.937 753.606 70.195 752.234 69.502C750.862 68.810 749.473 68.121 748.044 67.566C746.616 67.011 745.151 66.517 743.662 66.170C742.173 65.823 740.637 65.643 739.110 65.485C737.584 65.327 736.038 65.283 734.502 65.222C732.965 65.160 731.428 65.131 729.890 65.117C728.353 65.103 726.815 65.111 725.278 65.139C723.741 65.167 722.204 65.210 720.668 65.287C719.133 65.364 717.593 65.439 716.065 65.602C714.538 65.765 712.880 65.988 711.503 66.263ZM873.031 67.041C871.947 67.859 871.305 68.888 870.396 69.999C869.486 71.109 868.520 72.474 867.574 73.704C866.629 74.933 865.701 76.173 864.723 77.376C863.745 78.579 862.717 79.744 861.708 80.922C860.698 82.100 859.686 83.274 858.668 84.444C857.649 85.613 856.630 86.779 855.597 87.939C854.565 89.100 853.527 90.274 852.473 91.405C851.418 92.537 850.278 93.591 849.270 94.729C848.262 95.866 847.272 97.139 846.425 98.230C845.578 99.322 845.045 100.168 844.188 101.277C843.331 102.386 842.281 103.704 841.284 104.887C840.286 106.070 839.204 107.195 838.204 108.377C837.203 109.559 836.264 110.785 835.279 111.979C834.295 113.172 833.313 114.343 832.298 115.538C831.284 116.732 830.229 117.940 829.190 119.147C828.152 120.355 826.967 122.108 826.069 122.783C825.171 123.457 824.329 123.731 823.801 123.195C823.274 122.659 823.054 121.010 822.906 119.566C822.758 118.122 822.915 116.014 822.915 114.529C822.915 113.043 822.906 112.074 822.907 110.654C822.908 109.233 822.913 107.554 822.922 106.004C822.931 104.455 822.944 102.905 822.958 101.355C822.972 99.806 822.991 98.256 823.006 96.707C823.021 95.157 823.038 93.607 823.050 92.058C823.061 90.508 823.072 88.958 823.076 87.409C823.081 85.859 823.082 84.309 823.076 82.760C823.070 81.210 823.041 79.680 823.039 78.110C823.038 76.540 823.217 74.872 823.067 73.341C822.916 71.810 822.690 70.065 822.136 68.922C821.581 67.779 820.868 66.960 819.740 66.484C818.612 66.008 816.865 66.039 815.367 66.066C813.869 66.092 812.266 66.429 810.752 66.644C809.239 66.859 807.744 67.007 806.284 67.354C804.824 67.702 803.173 67.967 801.993 68.729C800.813 69.491 799.821 70.652 799.204 71.926C798.587 73.199 798.455 74.838 798.293 76.367C798.130 77.896 798.252 79.537 798.227 81.101C798.201 82.664 798.163 84.200 798.138 85.750C798.113 87.300 798.095 88.978 798.079 90.399C798.064 91.819 798.056 92.852 798.046 94.273C798.036 95.693 798.027 97.372 798.019 98.922C798.012 100.472 798.006 102.021 798.001 103.571C797.996 105.121 797.992 106.670 797.989 108.220C797.986 109.770 797.983 111.319 797.981 112.869C797.979 114.419 797.978 115.969 797.976 117.518C797.975 119.068 797.974 120.618 797.973 122.167C797.973 123.717 797.973 125.267 797.972 126.816C797.972 128.366 797.972 129.916 797.972 131.466C797.972 133.015 797.972 134.694 797.972 136.115C797.972 137.535 797.973 138.568 797.973 139.989C797.973 141.409 797.974 143.088 797.975 144.638C797.975 146.188 797.976 147.737 797.978 149.287C797.979 150.837 797.981 152.387 797.984 153.936C797.986 155.486 797.989 157.036 797.994 158.585C797.998 160.135 798.003 161.685 798.010 163.234C798.017 164.784 798.024 166.334 798.036 167.883C798.047 169.433 798.059 170.983 798.077 172.532C798.096 174.082 798.123 175.627 798.145 177.181C798.168 178.736 798.154 180.423 798.212 181.859C798.270 183.295 798.165 184.440 798.492 185.797C798.819 187.155 799.307 189.016 800.176 190.003C801.044 190.991 802.361 191.507 803.704 191.723C805.047 191.939 806.702 191.473 808.235 191.300C809.769 191.127 811.355 190.907 812.904 190.686C814.453 190.464 816.118 190.468 817.530 189.972C818.941 189.476 820.428 188.730 821.375 187.708C822.322 186.685 822.880 185.247 823.212 183.837C823.545 182.427 823.377 180.797 823.372 179.247C823.367 177.698 823.221 175.970 823.182 174.540C823.143 173.110 823.154 172.087 823.137 170.666C823.121 169.246 823.102 167.567 823.084 166.018C823.066 164.468 823.047 162.918 823.029 161.369C823.012 159.819 822.993 158.270 822.979 156.720C822.964 155.170 822.949 153.621 822.941 152.071C822.932 150.521 822.925 148.972 822.926 147.422C822.926 145.872 822.951 144.375 822.943 142.772C822.935 141.170 822.766 139.306 822.878 137.808C822.990 136.310 823.086 134.519 823.615 133.786C824.143 133.053 825.187 133.048 826.048 133.412C826.908 133.775 827.825 134.895 828.779 135.966C829.732 137.036 830.755 138.620 831.768 139.834C832.781 141.048 833.804 142.128 834.857 143.250C835.910 144.371 837.050 145.422 838.086 146.563C839.122 147.703 840.075 148.914 841.074 150.092C842.072 151.270 843.043 152.477 844.078 153.629C845.113 154.781 846.219 155.879 847.286 157.006C848.353 158.132 849.422 159.254 850.481 160.388C851.540 161.521 852.591 162.661 853.638 163.805C854.685 164.949 855.812 166.195 856.763 167.252C857.715 168.308 858.404 169.078 859.348 170.141C860.292 171.205 861.404 172.464 862.425 173.631C863.446 174.798 864.472 175.962 865.474 177.146C866.476 178.329 867.476 179.518 868.439 180.731C869.402 181.943 870.283 183.214 871.251 184.418C872.219 185.623 873.162 186.842 874.248 187.958C875.335 189.073 876.505 190.359 877.772 191.111C879.040 191.863 880.450 192.403 881.853 192.471C883.257 192.539 884.760 192.032 886.194 191.520C887.629 191.008 889.128 190.033 890.460 189.400C891.792 188.767 892.976 188.422 894.187 187.721C895.399 187.020 897.091 186.171 897.730 185.194C898.368 184.217 898.431 183.035 898.016 181.860C897.601 180.685 896.223 179.364 895.240 178.145C894.256 176.926 893.129 175.744 892.115 174.548C891.102 173.353 890.168 172.145 889.157 170.974C888.147 169.803 887.111 168.653 886.051 167.524C884.990 166.394 883.878 165.305 882.793 164.196C881.708 163.087 880.622 161.982 879.541 160.869C878.459 159.756 877.267 158.564 876.305 157.519C875.343 156.475 874.679 155.685 873.769 154.600C872.860 153.514 871.848 152.180 870.846 151.007C869.843 149.834 868.816 148.686 867.754 147.562C866.693 146.438 865.528 145.397 864.479 144.263C863.430 143.129 862.459 141.934 861.461 140.758C860.463 139.582 859.523 138.364 858.488 137.208C857.453 136.052 856.312 134.983 855.252 133.822C854.191 132.661 852.801 131.496 852.125 130.242C851.449 128.988 851.048 127.616 851.196 126.297C851.344 124.979 852.285 123.510 853.015 122.332C853.745 121.153 854.658 120.348 855.576 119.227C856.494 118.107 857.493 116.767 858.521 115.608C859.550 114.450 860.707 113.387 861.746 112.275C862.785 111.162 863.753 110.045 864.756 108.934C865.759 107.823 866.766 106.741 867.763 105.608C868.761 104.475 869.755 103.304 870.742 102.135C871.730 100.965 872.728 99.794 873.689 98.591C874.650 97.389 875.515 96.104 876.509 94.919C877.504 93.735 878.612 92.633 879.655 91.484C880.698 90.336 881.837 89.099 882.767 88.027C883.697 86.955 884.314 86.127 885.236 85.053C886.159 83.980 887.226 82.722 888.302 81.585C889.378 80.448 890.665 79.413 891.691 78.232C892.717 77.051 894.078 75.682 894.458 74.499C894.838 73.317 894.672 72.079 893.969 71.137C893.266 70.196 891.625 69.503 890.240 68.851C888.854 68.199 887.156 67.790 885.656 67.225C884.155 66.659 882.695 65.812 881.237 65.456C879.778 65.100 878.271 64.826 876.904 65.090C875.536 65.354 874.116 66.223 873.031 67.041ZM951.829 65.926C950.467 66.212 949.532 66.620 948.211 67.078C946.890 67.536 945.340 68.132 943.903 68.676C942.465 69.219 941.000 69.720 939.586 70.340C938.173 70.960 936.799 71.689 935.424 72.398C934.049 73.106 932.671 73.813 931.336 74.590C930.002 75.368 928.708 76.213 927.418 77.060C926.129 77.908 924.862 78.789 923.601 79.675C922.340 80.562 920.947 81.496 919.850 82.377C918.754 83.258 917.946 83.911 917.024 84.960C916.101 86.008 915.168 87.391 914.318 88.667C913.468 89.943 912.717 91.298 911.925 92.618C911.132 93.939 910.300 95.240 909.564 96.591C908.827 97.943 908.146 99.328 907.506 100.727C906.866 102.127 906.286 103.555 905.724 104.988C905.162 106.421 904.684 107.886 904.134 109.325C903.585 110.764 902.961 112.181 902.428 113.621C901.895 115.061 901.288 116.614 900.938 117.966C900.588 119.319 900.453 120.338 900.327 121.737C900.201 123.136 900.195 124.821 900.183 126.361C900.172 127.901 900.201 129.439 900.258 130.976C900.316 132.513 900.404 134.050 900.526 135.584C900.648 137.119 900.755 138.667 900.992 140.183C901.229 141.699 901.511 143.214 901.946 144.678C902.381 146.141 903.036 147.537 903.604 148.963C904.172 150.389 904.779 151.807 905.353 153.235C905.927 154.663 906.478 156.242 907.047 157.531C907.616 158.821 908.075 159.744 908.765 160.974C909.456 162.203 910.329 163.632 911.189 164.909C912.049 166.186 912.969 167.429 913.927 168.636C914.885 169.843 915.893 171.015 916.936 172.150C917.979 173.286 919.065 174.386 920.184 175.447C921.303 176.509 922.461 177.534 923.650 178.518C924.839 179.501 926.064 180.448 927.318 181.347C928.572 182.247 929.859 183.108 931.175 183.916C932.491 184.723 933.957 185.539 935.214 186.191C936.470 186.842 937.414 187.261 938.714 187.825C940.014 188.388 941.572 189.018 943.015 189.571C944.458 190.125 945.899 190.715 947.371 191.144C948.844 191.572 950.342 191.869 951.851 192.143C953.360 192.417 954.895 192.602 956.425 192.785C957.956 192.968 959.491 193.148 961.034 193.239C962.577 193.331 964.131 193.321 965.681 193.333C967.231 193.346 968.797 193.401 970.335 193.314C971.874 193.226 973.521 192.974 974.911 192.808C976.301 192.642 977.313 192.570 978.675 192.320C980.037 192.069 981.616 191.707 983.084 191.304C984.552 190.901 986.020 190.377 987.484 189.900C988.948 189.423 990.435 189.011 991.867 188.443C993.299 187.875 994.690 187.178 996.074 186.492C997.459 185.806 998.824 185.075 1000.176 184.327C1001.529 183.579 1002.874 182.815 1004.190 182.004C1005.506 181.193 1006.816 180.384 1008.070 179.459C1009.324 178.534 1010.787 177.475 1011.712 176.452C1012.636 175.429 1013.357 174.551 1013.617 173.323C1013.877 172.095 1013.620 170.515 1013.271 169.085C1012.922 167.655 1012.040 166.223 1011.524 164.742C1011.007 163.260 1010.728 161.604 1010.172 160.197C1009.615 158.789 1009.089 156.992 1008.184 156.296C1007.279 155.599 1005.994 155.636 1004.741 156.018C1003.487 156.401 1001.989 157.743 1000.661 158.593C999.333 159.443 998.072 160.283 996.772 161.119C995.472 161.955 994.068 162.866 992.862 163.610C991.657 164.354 990.778 164.892 989.540 165.583C988.302 166.273 986.842 167.134 985.434 167.753C984.025 168.371 982.563 168.877 981.087 169.295C979.612 169.713 978.090 169.987 976.579 170.260C975.069 170.532 973.556 170.775 972.027 170.929C970.498 171.083 968.949 171.140 967.404 171.183C965.859 171.227 964.306 171.208 962.757 171.190C961.207 171.173 959.649 171.197 958.109 171.079C956.569 170.962 954.895 170.777 953.517 170.486C952.139 170.194 951.143 169.873 949.840 169.332C948.538 168.792 947.034 168.019 945.703 167.241C944.371 166.464 943.097 165.577 941.851 164.666C940.605 163.755 939.422 162.780 938.228 161.777C937.033 160.774 935.720 159.769 934.684 158.650C933.648 157.531 932.283 156.237 932.011 155.063C931.738 153.890 932.229 152.653 933.048 151.610C933.868 150.568 935.640 149.708 936.927 148.806C938.215 147.905 939.596 146.994 940.772 146.203C941.949 145.413 942.805 144.842 943.986 144.062C945.168 143.281 946.568 142.363 947.862 141.520C949.157 140.676 950.454 139.837 951.752 138.999C953.050 138.161 954.351 137.327 955.652 136.493C956.953 135.660 958.256 134.829 959.559 133.999C960.862 133.169 962.167 132.341 963.472 131.513C964.777 130.686 966.083 129.860 967.389 129.035C968.695 128.210 970.003 127.386 971.310 126.563C972.618 125.739 974.035 124.848 975.233 124.092C976.431 123.337 977.302 122.788 978.499 122.030C979.696 121.273 981.110 120.376 982.414 119.548C983.718 118.719 985.021 117.888 986.323 117.057C987.625 116.225 988.927 115.393 990.227 114.558C991.528 113.724 992.828 112.889 994.127 112.052C995.426 111.215 996.724 110.377 998.021 109.538C999.318 108.699 1000.614 107.857 1001.910 107.016C1003.207 106.176 1004.487 105.332 1005.799 104.493C1007.111 103.654 1008.601 102.789 1009.782 101.982C1010.963 101.175 1012.232 100.630 1012.887 99.653C1013.542 98.677 1013.973 97.369 1013.712 96.124C1013.451 94.878 1012.182 93.465 1011.321 92.182C1010.460 90.898 1009.483 89.656 1008.543 88.423C1007.604 87.190 1006.691 85.950 1005.684 84.785C1004.677 83.621 1003.622 82.489 1002.500 81.436C1001.377 80.383 1000.168 79.411 998.948 78.467C997.727 77.523 996.458 76.635 995.176 75.773C993.894 74.912 992.474 74.020 991.256 73.299C990.037 72.578 989.138 72.067 987.867 71.446C986.595 70.825 985.058 70.158 983.628 69.573C982.198 68.987 980.748 68.407 979.285 67.932C977.823 67.458 976.349 67.048 974.851 66.726C973.353 66.404 971.827 66.191 970.299 65.998C968.771 65.806 967.229 65.664 965.685 65.570C964.142 65.476 962.590 65.468 961.039 65.434C959.488 65.399 957.914 65.281 956.379 65.363C954.844 65.445 953.190 65.640 951.829 65.926ZM1074.986 67.141C1074.242 68.116 1073.875 69.566 1073.261 70.896C1072.648 72.226 1071.959 73.714 1071.307 75.122C1070.655 76.530 1069.991 77.931 1069.350 79.343C1068.708 80.756 1068.067 82.168 1067.460 83.595C1066.852 85.022 1066.297 86.471 1065.706 87.905C1065.115 89.339 1064.538 90.779 1063.914 92.199C1063.290 93.618 1062.566 95.136 1061.963 96.423C1061.360 97.711 1060.905 98.639 1060.295 99.924C1059.686 101.209 1058.967 102.727 1058.307 104.131C1057.647 105.535 1056.990 106.940 1056.334 108.345C1055.678 109.751 1055.024 111.157 1054.371 112.565C1053.719 113.972 1053.063 115.377 1052.417 116.788C1051.771 118.198 1051.115 119.604 1050.497 121.027C1049.879 122.449 1049.245 124.005 1048.709 125.322C1048.174 126.639 1047.827 127.615 1047.283 128.928C1046.738 130.241 1046.082 131.788 1045.442 133.200C1044.803 134.613 1044.107 136.001 1043.444 137.403C1042.782 138.805 1042.113 140.205 1041.466 141.614C1040.819 143.024 1040.189 144.442 1039.562 145.860C1038.935 147.279 1038.318 148.702 1037.703 150.126C1037.088 151.550 1036.434 153.098 1035.872 154.404C1035.310 155.711 1034.904 156.662 1034.333 157.964C1033.762 159.266 1033.091 160.807 1032.445 162.217C1031.799 163.627 1031.129 165.026 1030.457 166.424C1029.786 167.822 1029.087 169.207 1028.417 170.606C1027.747 172.005 1027.086 173.408 1026.436 174.817C1025.787 176.225 1025.161 177.633 1024.517 179.056C1023.874 180.479 1023.072 182.020 1022.576 183.353C1022.079 184.686 1021.408 185.837 1021.540 187.053C1021.672 188.270 1022.321 189.807 1023.365 190.651C1024.409 191.495 1026.294 191.822 1027.804 192.117C1029.313 192.413 1030.906 192.242 1032.422 192.425C1033.937 192.608 1035.482 193.275 1036.899 193.216C1038.317 193.157 1039.833 192.902 1040.926 192.072C1042.020 191.241 1042.728 189.593 1043.460 188.235C1044.192 186.877 1044.745 185.231 1045.319 183.923C1045.893 182.614 1046.327 181.683 1046.904 180.383C1047.481 179.084 1048.156 177.545 1048.781 176.125C1049.406 174.705 1050.025 173.283 1050.653 171.865C1051.281 170.447 1051.912 169.030 1052.548 167.615C1053.185 166.201 1053.811 164.782 1054.473 163.378C1055.134 161.974 1055.855 160.593 1056.515 159.193C1057.175 157.794 1057.894 156.287 1058.434 154.981C1058.974 153.675 1059.251 152.681 1059.757 151.357C1060.264 150.033 1060.870 148.464 1061.475 147.037C1062.079 145.609 1062.740 144.204 1063.385 142.793C1064.029 141.382 1064.690 139.978 1065.341 138.571C1065.993 137.163 1066.664 135.764 1067.292 134.346C1067.921 132.929 1068.527 131.500 1069.114 130.065C1069.701 128.630 1070.303 127.060 1070.816 125.734C1071.328 124.407 1071.670 123.447 1072.188 122.105C1072.706 120.764 1073.180 119.005 1073.924 117.686C1074.668 116.368 1075.714 114.545 1076.652 114.194C1077.589 113.842 1078.766 114.590 1079.548 115.577C1080.331 116.565 1080.760 118.643 1081.348 120.121C1081.936 121.599 1082.492 123.007 1083.077 124.445C1083.661 125.882 1084.309 127.432 1084.854 128.745C1085.399 130.059 1085.797 131.013 1086.346 132.324C1086.896 133.636 1087.547 135.185 1088.151 136.614C1088.755 138.043 1089.359 139.471 1089.970 140.897C1090.581 142.323 1091.189 143.750 1091.816 145.169C1092.442 146.587 1093.086 147.999 1093.729 149.410C1094.373 150.821 1095.034 152.225 1095.678 153.636C1096.322 155.047 1097.012 156.578 1097.593 157.877C1098.173 159.175 1098.628 160.110 1099.161 161.426C1099.693 162.743 1100.249 164.327 1100.789 165.776C1101.329 167.226 1101.796 168.700 1102.399 170.123C1103.002 171.547 1103.738 172.919 1104.407 174.318C1105.077 175.716 1105.759 177.110 1106.415 178.515C1107.071 179.921 1107.694 181.340 1108.344 182.751C1108.993 184.161 1109.585 185.598 1110.311 186.977C1111.038 188.356 1111.805 190.007 1112.704 191.025C1113.602 192.042 1114.465 192.769 1115.703 193.081C1116.942 193.393 1118.636 193.070 1120.132 192.896C1121.629 192.723 1123.151 192.358 1124.684 192.041C1126.217 191.723 1127.995 191.593 1129.329 190.990C1130.663 190.387 1132.195 189.531 1132.687 188.423C1133.178 187.315 1132.697 185.740 1132.278 184.342C1131.860 182.944 1130.795 181.339 1130.176 180.033C1129.556 178.727 1129.154 177.800 1128.561 176.507C1127.967 175.215 1127.264 173.689 1126.616 172.280C1125.968 170.871 1125.312 169.465 1124.674 168.051C1124.037 166.637 1123.382 165.228 1122.789 163.796C1122.197 162.365 1121.693 160.899 1121.119 159.461C1120.545 158.023 1119.972 156.587 1119.344 155.170C1118.716 153.754 1117.953 152.252 1117.350 150.964C1116.746 149.676 1116.315 148.736 1115.722 147.444C1115.129 146.152 1114.435 144.622 1113.791 143.210C1113.148 141.799 1112.503 140.388 1111.861 138.976C1111.219 137.564 1110.550 136.163 1109.938 134.738C1109.326 133.314 1108.741 131.876 1108.191 130.430C1107.640 128.983 1107.225 127.486 1106.636 126.059C1106.047 124.632 1105.288 123.138 1104.659 121.866C1104.030 120.594 1103.492 119.702 1102.863 118.426C1102.235 117.151 1101.529 115.625 1100.889 114.213C1100.248 112.801 1099.634 111.376 1099.017 109.953C1098.400 108.529 1097.802 107.098 1097.187 105.674C1096.572 104.250 1095.951 102.829 1095.326 101.409C1094.700 99.990 1094.069 98.573 1093.433 97.158C1092.798 95.743 1092.103 94.213 1091.512 92.920C1090.920 91.627 1090.483 90.690 1089.885 89.400C1089.287 88.110 1088.567 86.591 1087.926 85.179C1087.286 83.767 1086.636 82.357 1086.044 80.927C1085.452 79.496 1084.960 78.027 1084.374 76.595C1083.788 75.163 1083.187 73.769 1082.525 72.334C1081.864 70.900 1081.205 69.204 1080.404 67.989C1079.604 66.775 1078.625 65.187 1077.722 65.046C1076.819 64.904 1075.729 66.166 1074.986 67.141ZM1323.740 66.360C1322.361 66.663 1321.373 66.985 1320.042 67.464C1318.711 67.944 1317.162 68.603 1315.753 69.236C1314.343 69.870 1312.955 70.555 1311.583 71.267C1310.212 71.978 1308.857 72.726 1307.523 73.505C1306.189 74.284 1304.869 75.092 1303.579 75.939C1302.288 76.787 1301.009 77.660 1299.779 78.592C1298.550 79.524 1297.260 80.594 1296.202 81.531C1295.145 82.469 1294.409 83.193 1293.433 84.217C1292.458 85.240 1291.339 86.486 1290.352 87.670C1289.366 88.854 1288.418 90.076 1287.513 91.323C1286.608 92.570 1285.740 93.848 1284.923 95.154C1284.105 96.460 1283.318 97.792 1282.609 99.157C1281.900 100.523 1281.250 101.923 1280.668 103.347C1280.086 104.770 1279.577 106.363 1279.117 107.698C1278.656 109.034 1278.318 110.023 1277.905 111.360C1277.493 112.697 1276.984 114.271 1276.642 115.722C1276.300 117.172 1276.153 118.627 1275.855 120.063C1275.556 121.499 1275.155 122.883 1274.850 124.339C1274.545 125.794 1274.053 127.311 1274.023 128.796C1273.994 130.282 1274.430 131.780 1274.673 133.251C1274.916 134.721 1275.247 136.283 1275.481 137.620C1275.716 138.957 1275.801 139.928 1276.081 141.272C1276.361 142.616 1276.762 144.214 1277.164 145.681C1277.566 147.149 1277.983 148.627 1278.492 150.075C1279.001 151.524 1279.634 152.946 1280.221 154.372C1280.807 155.798 1281.363 157.235 1282.013 158.631C1282.662 160.026 1283.345 161.414 1284.116 162.745C1284.887 164.075 1285.741 165.365 1286.639 166.615C1287.537 167.865 1288.608 169.154 1289.505 170.246C1290.402 171.339 1291.088 172.105 1292.021 173.171C1292.953 174.237 1294.012 175.559 1295.099 176.642C1296.187 177.725 1297.323 178.751 1298.546 179.670C1299.768 180.590 1301.128 181.335 1302.433 182.158C1303.739 182.980 1305.052 183.817 1306.380 184.605C1307.707 185.393 1309.023 186.198 1310.398 186.888C1311.772 187.579 1313.325 188.195 1314.628 188.746C1315.930 189.296 1316.884 189.719 1318.215 190.193C1319.546 190.666 1321.120 191.234 1322.613 191.587C1324.106 191.940 1325.652 192.078 1327.172 192.311C1328.693 192.544 1330.208 192.796 1331.735 192.985C1333.262 193.174 1334.792 193.364 1336.333 193.445C1337.874 193.525 1339.434 193.493 1340.982 193.469C1342.531 193.446 1344.219 193.423 1345.624 193.303C1347.029 193.184 1348.027 192.942 1349.412 192.751C1350.796 192.561 1352.435 192.413 1353.930 192.161C1355.425 191.910 1356.906 191.638 1358.380 191.244C1359.855 190.850 1361.317 190.293 1362.776 189.799C1364.235 189.304 1365.710 188.863 1367.135 188.277C1368.560 187.692 1369.947 186.982 1371.326 186.284C1372.705 185.586 1374.070 184.857 1375.410 184.090C1376.751 183.322 1378.178 182.445 1379.369 181.679C1380.560 180.913 1381.398 180.347 1382.558 179.496C1383.718 178.646 1385.381 177.668 1386.327 176.576C1387.273 175.484 1388.068 174.261 1388.232 172.944C1388.397 171.627 1387.730 170.123 1387.313 168.674C1386.896 167.225 1386.202 165.753 1385.732 164.252C1385.263 162.751 1385.004 161.090 1384.495 159.667C1383.985 158.245 1383.425 156.457 1382.673 155.716C1381.921 154.974 1381.095 154.883 1379.981 155.217C1378.867 155.551 1377.289 156.853 1375.988 157.719C1374.688 158.586 1373.467 159.553 1372.179 160.416C1370.891 161.278 1369.582 162.091 1368.262 162.893C1366.942 163.695 1365.601 164.459 1364.258 165.228C1362.914 165.997 1361.566 166.786 1360.202 167.505C1358.839 168.225 1357.375 169.073 1356.076 169.543C1354.776 170.013 1353.791 170.196 1352.405 170.326C1351.018 170.456 1349.307 170.324 1347.758 170.324C1346.210 170.323 1344.660 170.320 1343.112 170.321C1341.564 170.323 1340.018 170.330 1338.470 170.335C1336.923 170.340 1335.380 170.327 1333.828 170.349C1332.276 170.370 1330.686 170.533 1329.158 170.466C1327.630 170.399 1326.099 170.346 1324.661 169.944C1323.224 169.541 1321.764 168.722 1320.534 168.050C1319.303 167.379 1318.449 166.720 1317.279 165.915C1316.109 165.109 1314.735 164.170 1313.513 163.217C1312.292 162.264 1311.026 161.310 1309.951 160.198C1308.876 159.086 1307.525 157.821 1307.063 156.542C1306.601 155.264 1306.624 153.747 1307.179 152.526C1307.735 151.305 1309.210 150.204 1310.395 149.219C1311.580 148.233 1313.098 147.394 1314.289 146.612C1315.481 145.831 1316.350 145.292 1317.545 144.532C1318.741 143.773 1320.159 142.883 1321.465 142.057C1322.770 141.231 1324.075 140.404 1325.381 139.577C1326.686 138.750 1327.990 137.923 1329.295 137.095C1330.600 136.268 1331.905 135.440 1333.209 134.612C1334.514 133.785 1335.818 132.957 1337.123 132.129C1338.427 131.301 1339.840 130.403 1341.035 129.644C1342.231 128.885 1343.100 128.333 1344.296 127.573C1345.491 126.813 1346.904 125.916 1348.208 125.087C1349.512 124.258 1350.815 123.428 1352.119 122.600C1353.423 121.772 1354.728 120.943 1356.034 120.119C1357.341 119.294 1358.649 118.472 1359.959 117.653C1361.269 116.834 1362.581 116.017 1363.895 115.204C1365.209 114.392 1366.518 113.575 1367.844 112.777C1369.170 111.978 1370.637 111.127 1371.853 110.413C1373.069 109.700 1373.990 109.258 1375.140 108.496C1376.289 107.733 1377.551 106.756 1378.750 105.838C1379.949 104.920 1381.082 103.922 1382.334 102.989C1383.587 102.055 1385.327 101.288 1386.265 100.236C1387.203 99.183 1387.957 97.945 1387.962 96.675C1387.968 95.405 1387.013 93.949 1386.298 92.618C1385.583 91.286 1384.443 89.887 1383.670 88.685C1382.898 87.483 1382.459 86.564 1381.664 85.406C1380.870 84.248 1379.966 82.820 1378.904 81.739C1377.841 80.658 1376.551 79.786 1375.287 78.920C1374.024 78.054 1372.636 77.353 1371.323 76.542C1370.010 75.731 1368.725 74.865 1367.411 74.053C1366.096 73.241 1364.795 72.398 1363.435 71.669C1362.076 70.940 1360.549 70.251 1359.254 69.680C1357.960 69.108 1356.984 68.756 1355.667 68.239C1354.350 67.723 1352.816 67.026 1351.353 66.581C1349.889 66.136 1348.405 65.777 1346.886 65.572C1345.366 65.366 1343.785 65.393 1342.237 65.346C1340.688 65.299 1339.142 65.284 1337.594 65.290C1336.047 65.295 1334.499 65.320 1332.953 65.380C1331.406 65.439 1329.851 65.482 1328.315 65.646C1326.780 65.809 1325.118 66.057 1323.740 66.360ZM587.216 88.522C585.897 89.009 584.963 89.443 583.695 90.059C582.428 90.675 580.827 91.351 579.610 92.218C578.393 93.085 577.537 94.336 576.395 95.260C575.253 96.184 573.843 96.740 572.760 97.762C571.677 98.784 570.789 100.142 569.896 101.392C569.002 102.643 568.180 103.944 567.398 105.265C566.616 106.586 565.861 107.932 565.204 109.317C564.547 110.703 563.883 112.118 563.456 113.579C563.029 115.040 562.929 116.590 562.643 118.084C562.357 119.578 561.900 121.030 561.738 122.542C561.577 124.055 561.672 125.750 561.675 127.160C561.679 128.569 561.702 129.593 561.758 131.000C561.814 132.407 561.871 134.074 562.013 135.602C562.154 137.129 562.307 138.665 562.607 140.165C562.907 141.665 563.405 143.127 563.812 144.601C564.218 146.075 564.469 147.601 565.046 149.008C565.623 150.416 566.465 151.742 567.274 153.046C568.083 154.350 568.957 155.622 569.899 156.832C570.841 158.042 571.855 159.207 572.925 160.305C573.994 161.404 575.134 162.447 576.316 163.424C577.498 164.401 578.734 165.327 580.015 166.169C581.296 167.011 582.628 167.799 584.002 168.477C585.376 169.154 586.927 169.797 588.259 170.235C589.590 170.673 590.608 170.874 591.993 171.106C593.379 171.337 595.043 171.492 596.573 171.624C598.103 171.757 599.639 171.839 601.173 171.902C602.708 171.965 604.245 172.002 605.781 172.001C607.317 172.000 608.862 172.017 610.388 171.898C611.915 171.779 613.484 171.710 614.938 171.286C616.392 170.863 617.731 170.027 619.112 169.358C620.493 168.690 621.898 168.045 623.223 167.275C624.549 166.505 625.849 165.670 627.064 164.738C628.279 163.806 629.426 162.766 630.513 161.685C631.600 160.604 632.625 159.448 633.586 158.252C634.547 157.057 635.507 155.690 636.280 154.515C637.053 153.340 637.577 152.452 638.223 151.203C638.869 149.954 639.524 148.423 640.158 147.022C640.791 145.621 641.638 144.246 642.023 142.797C642.409 141.349 642.282 139.813 642.469 138.331C642.656 136.849 643.000 135.412 643.143 133.906C643.287 132.399 643.299 130.830 643.328 129.292C643.357 127.755 643.430 126.202 643.318 124.681C643.205 123.160 642.923 121.669 642.651 120.168C642.379 118.668 642.127 117.139 641.685 115.675C641.242 114.212 640.614 112.792 639.995 111.387C639.377 109.982 638.695 108.601 637.974 107.246C637.252 105.891 636.420 104.444 635.666 103.257C634.913 102.069 634.355 101.195 633.453 100.120C632.551 99.046 631.384 97.845 630.254 96.811C629.124 95.776 627.903 94.829 626.671 93.914C625.439 92.998 624.169 92.125 622.863 91.319C621.557 90.512 620.240 89.654 618.835 89.076C617.431 88.498 615.912 88.213 614.436 87.849C612.960 87.486 611.487 87.110 609.979 86.894C608.471 86.678 606.921 86.627 605.388 86.555C603.855 86.483 602.316 86.460 600.780 86.461C599.244 86.463 597.702 86.449 596.173 86.562C594.643 86.675 593.098 86.812 591.605 87.139C590.112 87.465 588.534 88.035 587.216 88.522ZM954.456 87.083C952.923 87.356 951.562 87.613 950.133 88.004C948.705 88.395 947.235 88.804 945.885 89.429C944.535 90.055 943.264 90.902 942.034 91.756C940.805 92.610 939.636 93.567 938.506 94.553C937.376 95.539 936.294 96.589 935.256 97.671C934.218 98.754 933.266 99.814 932.276 101.050C931.286 102.287 930.186 103.766 929.318 105.090C928.451 106.414 927.716 107.644 927.070 108.995C926.424 110.345 925.802 111.749 925.443 113.194C925.084 114.638 925.236 116.219 924.917 117.662C924.599 119.104 923.809 120.403 923.531 121.850C923.253 123.298 923.221 124.837 923.248 126.347C923.276 127.856 922.976 130.206 923.696 130.908C924.415 131.609 926.271 130.994 927.563 130.555C928.855 130.117 930.159 129.047 931.447 128.276C932.735 127.505 934.013 126.718 935.291 125.930C936.569 125.143 937.843 124.348 939.116 123.552C940.389 122.757 941.659 121.956 942.928 121.155C944.197 120.353 945.465 119.549 946.731 118.743C947.998 117.938 949.193 117.175 950.528 116.322C951.863 115.468 953.408 114.478 954.741 113.621C956.075 112.765 957.267 111.998 958.529 111.184C959.790 110.371 961.052 109.557 962.312 108.742C963.573 107.927 964.833 107.111 966.093 106.295C967.353 105.478 968.612 104.661 969.871 103.844C971.131 103.026 972.394 102.215 973.648 101.389C974.901 100.563 976.127 99.844 977.393 98.888C978.658 97.933 980.707 96.816 981.241 95.656C981.776 94.496 981.335 92.957 980.599 91.928C979.863 90.898 978.158 90.134 976.824 89.478C975.490 88.823 974.024 88.401 972.596 87.996C971.167 87.591 969.716 87.311 968.255 87.049C966.794 86.787 965.317 86.539 963.829 86.425C962.342 86.311 960.892 86.256 959.330 86.366C957.768 86.476 955.989 86.810 954.456 87.083ZM1330.514 87.014C1329.150 87.324 1328.093 87.881 1326.726 88.245C1325.359 88.609 1323.736 88.738 1322.312 89.197C1320.888 89.656 1319.480 90.259 1318.182 91.000C1316.885 91.742 1315.694 92.699 1314.527 93.645C1313.361 94.592 1312.269 95.638 1311.185 96.681C1310.100 97.724 1309.024 98.783 1308.021 99.902C1307.018 101.021 1306.051 102.184 1305.164 103.396C1304.277 104.608 1303.437 105.869 1302.700 107.176C1301.963 108.483 1301.262 109.922 1300.740 111.238C1300.218 112.553 1299.846 113.684 1299.567 115.070C1299.288 116.455 1299.372 118.095 1299.066 119.549C1298.761 121.003 1298.072 122.355 1297.732 123.792C1297.392 125.230 1296.807 126.889 1297.027 128.175C1297.246 129.460 1298.021 131.256 1299.049 131.506C1300.077 131.757 1301.851 130.357 1303.195 129.677C1304.539 128.997 1305.816 128.193 1307.113 127.427C1308.409 126.662 1309.691 125.872 1310.974 125.084C1312.257 124.295 1313.604 123.451 1314.809 122.696C1316.014 121.941 1317.004 121.315 1318.204 120.553C1319.405 119.791 1320.746 118.937 1322.014 118.127C1323.283 117.316 1324.550 116.503 1325.817 115.689C1327.084 114.875 1328.350 114.059 1329.615 113.243C1330.880 112.427 1332.145 111.610 1333.409 110.792C1334.673 109.974 1335.938 109.158 1337.200 108.336C1338.462 107.514 1339.723 106.692 1340.979 105.862C1342.236 105.032 1343.489 104.198 1344.738 103.357C1345.987 102.516 1347.301 101.622 1348.472 100.815C1349.643 100.008 1350.606 99.343 1351.763 98.515C1352.919 97.686 1354.679 96.859 1355.413 95.845C1356.147 94.831 1356.644 93.455 1356.165 92.432C1355.685 91.409 1353.865 90.345 1352.538 89.706C1351.211 89.066 1349.643 89.006 1348.203 88.597C1346.763 88.187 1345.359 87.580 1343.896 87.248C1342.433 86.917 1340.923 86.749 1339.426 86.606C1337.929 86.462 1336.399 86.320 1334.914 86.388C1333.428 86.456 1331.879 86.705 1330.514 87.014ZM 23.9716,124.837 C 23.1466,125.299 20.5456,126.471 18.1916,127.443 C 10.1556,130.762 7.56757,133.352 3.27057,142.38 C 2.48557,144.03 1.42157,146.161 0.90757,147.116 C -0.74643,150.185 -0.0964298,155.646 2.50457,160.537 C 4.97057,165.175 7.05357,166.68 15.4166,169.859 C 17.9936,170.839 18.8186,173.238 16.9716,174.38 C 13.5706,176.482 19.5326,192.074 24.6596,194.487 C 32.4676,198.162 41.3206,199.567 44.9716,197.711 C 45.7966,197.292 48.7816,196.0 51.6036,194.842 C 57.3186,192.496 60.5586,189.44 64.0016,183.15 C 66.2696,179.007 66.2786,178.877 64.4476,176.853 C 63.4186,175.717 61.0626,174.068 59.2126,173.19 C 56.0646,171.696 55.6096,171.718 52.1596,173.521 C 49.9926,174.654 47.0756,177.6 45.0866,180.665 C 42.1826,185.14 41.2536,185.88 38.5366,185.88 C 34.1666,185.88 32.9716,184.294 32.9716,178.496 C 32.9716,173.825 33.2856,173.21 37.9686,168.696 C 40.7166,166.047 43.8396,163.88 44.9096,163.88 C 45.9786,163.88 47.0636,163.54 47.3206,163.124 C 47.8596,162.252 61.0486,162.203 62.5016,163.067 C 63.0346,163.385 64.9346,163.959 66.7226,164.342 C 69.3546,164.907 70.0946,164.691 70.6106,163.21 C 73.4446,155.069 77.7486,148.25 84.2446,141.607 C 88.2196,137.542 92.7086,133.414 94.2216,132.433 C 97.4566,130.336 97.5896,129.243 95.0216,125.9 L 93.1156,123.42 L 84.5346,126.272 C 77.2596,128.69 74.3186,129.128 65.2126,129.144 C 59.3046,129.155 53.6266,128.804 52.5936,128.366 C 50.0206,127.272 47.3276,131.0 46.4646,136.849 C 46.0966,139.341 44.9096,142.825 43.8256,144.592 C 41.5176,148.355 34.8616,153.88 32.6366,153.88 C 31.7856,153.88 30.8696,154.237 30.5996,154.673 C 29.7846,155.992 18.3266,155.42 16.5826,153.972 C 15.5506,153.115 14.9716,151.063 14.9716,148.258 L 14.9716,143.88 L 20.2216,143.878 C 26.6896,143.877 31.6856,141.497 34.7016,136.982 C 38.0206,132.014 37.7176,127.812 33.8846,125.63 C 30.6296,123.777 26.4616,123.444 23.9716,124.837M458.415 127.022C457.048 127.316 455.894 127.489 454.574 127.904C453.255 128.318 451.858 128.955 450.499 129.509C449.140 130.064 447.626 130.404 446.419 131.229C445.212 132.055 444.221 133.308 443.258 134.461C442.295 135.615 441.288 136.817 440.641 138.151C439.994 139.486 439.657 140.998 439.375 142.469C439.094 143.940 439.028 145.470 438.954 146.976C438.880 148.481 438.877 149.996 438.931 151.503C438.986 153.009 439.090 154.607 439.283 156.016C439.477 157.424 439.603 158.634 440.092 159.954C440.581 161.273 441.373 162.695 442.215 163.932C443.056 165.169 444.065 166.332 445.142 167.376C446.218 168.420 447.409 169.393 448.673 170.194C449.937 170.995 451.311 171.724 452.726 172.181C454.141 172.639 455.697 172.643 457.165 172.940C458.633 173.238 460.106 173.736 461.532 173.966C462.959 174.195 464.302 174.401 465.724 174.316C467.146 174.232 468.721 173.726 470.065 173.460C471.410 173.195 472.481 173.116 473.789 172.725C475.098 172.334 476.632 171.846 477.915 171.113C479.198 170.381 480.351 169.319 481.487 168.329C482.623 167.339 483.705 166.278 484.732 165.176C485.760 164.075 486.939 163.002 487.651 161.720C488.362 160.439 488.540 158.889 489.001 157.486C489.462 156.082 490.134 154.746 490.415 153.300C490.697 151.853 490.902 150.248 490.689 148.808C490.476 147.367 489.492 146.012 489.140 144.658C488.788 143.304 489.081 141.970 488.577 140.682C488.072 139.394 486.926 138.175 486.114 136.930C485.302 135.685 484.735 134.252 483.706 133.213C482.676 132.175 481.239 131.450 479.935 130.697C478.631 129.944 477.290 129.182 475.880 128.695C474.470 128.207 472.905 128.171 471.476 127.772C470.046 127.372 468.753 126.571 467.303 126.298C465.853 126.026 464.260 126.015 462.778 126.135C461.297 126.256 459.783 126.727 458.415 127.022ZM718.406 127.038C716.897 127.359 715.533 127.592 714.148 128.066C712.763 128.541 711.375 129.151 710.094 129.886C708.813 130.621 707.601 131.526 706.464 132.477C705.327 133.427 704.186 134.436 703.272 135.589C702.358 136.742 701.502 138.031 700.980 139.393C700.458 140.755 700.306 142.207 700.138 143.760C699.971 145.314 700.003 147.147 699.977 148.717C699.951 150.286 699.947 151.693 699.982 153.180C700.016 154.667 699.906 156.200 700.184 157.638C700.461 159.075 700.952 160.519 701.647 161.805C702.342 163.091 703.371 164.241 704.354 165.351C705.337 166.461 706.407 167.519 707.546 168.467C708.685 169.414 709.799 170.354 711.187 171.034C712.574 171.715 714.347 172.266 715.871 172.551C717.394 172.836 718.842 172.723 720.328 172.746C721.815 172.768 723.304 172.716 724.791 172.687C726.279 172.658 727.767 172.627 729.253 172.573C730.740 172.519 732.240 172.535 733.712 172.364C735.183 172.194 736.731 172.085 738.084 171.551C739.436 171.017 740.616 170.136 741.828 169.158C743.041 168.180 744.319 166.852 745.360 165.683C746.402 164.515 747.315 163.408 748.078 162.148C748.840 160.887 749.570 159.531 749.933 158.119C750.297 156.708 750.222 155.160 750.259 153.676C750.296 152.192 750.210 150.700 750.158 149.214C750.105 147.727 750.098 146.231 749.942 144.756C749.786 143.280 749.732 141.817 749.219 140.361C748.707 138.905 747.765 137.289 746.869 136.020C745.973 134.751 744.949 133.732 743.846 132.749C742.742 131.765 741.523 130.862 740.247 130.119C738.970 129.375 737.596 128.705 736.188 128.286C734.780 127.868 733.219 127.950 731.798 127.608C730.377 127.265 729.094 126.475 727.661 126.231C726.228 125.986 724.742 126.004 723.199 126.138C721.657 126.273 719.914 126.716 718.406 127.038Z" fill="white"/>
</g>
</svg>
