<svg width="151" height="74" viewBox="0 0 151 74" fill="none" xmlns="http://www.w3.org/2000/svg">
<path fill-rule="evenodd" clip-rule="evenodd" d="M32.5809 55.3461C32.1341 55.765 30.4861 57.3238 28.9917 58.7411C28.3866 59.3149 27.7961 59.8747 27.6796 59.9849C26.9806 60.6461 24.7427 62.7676 24.6784 62.83L24.6016 62.9046L24.6077 66.105L24.6139 69.3053L24.7339 69.3031C24.8 69.3019 25.5089 69.2999 26.3092 69.2988L27.7644 69.2966V66.0942V62.8918L28.3224 62.3563C28.6293 62.0619 29.2746 61.4464 29.7564 60.9887C30.2381 60.531 31.1655 59.6478 31.8172 59.026C33.2015 57.7051 33.759 57.175 35.0515 55.9506C35.5737 55.456 36.0051 55.0396 36.0103 55.0252C36.016 55.0096 35.4089 54.9995 34.4845 55L32.9493 55.0008L32.5809 55.3461ZM36.2684 55.5299C36.0114 55.7742 35.2631 56.4826 34.6054 57.1043C33.9476 57.7259 33.2415 58.3934 33.0362 58.5877C32.8308 58.7819 32.1427 59.4304 31.507 60.0287C30.8713 60.627 30.0092 61.4408 29.5912 61.8371C29.1732 62.2334 28.75 62.6318 28.6508 62.7224L28.4705 62.8873L28.4777 66.0935L28.4849 69.2997L29.2902 69.3113C29.7331 69.3177 30.4674 69.3151 30.9219 69.3055L31.7484 69.288V66.1158C31.7484 64.3711 31.7556 62.9249 31.7644 62.9019C31.7733 62.8789 32.1575 62.4995 32.6184 62.059C33.0792 61.6183 33.9656 60.7683 34.5881 60.17C35.2106 59.5717 36.1392 58.6819 36.6515 58.1927C37.164 57.7035 37.7522 57.1375 37.9588 56.9349L38.3344 56.5665L37.559 55.8333C37.1326 55.43 36.7728 55.0968 36.7596 55.0929C36.7463 55.089 36.5253 55.2856 36.2684 55.5299ZM37.8352 57.8021C36.9301 58.6559 35.5788 59.9368 34.0553 61.385C33.6057 61.8124 33.0687 62.321 32.862 62.5152L32.4861 62.8684L32.4846 66.08L32.483 69.2916L32.589 69.3039C32.6961 69.3163 34.0886 69.3161 35.245 69.3034L35.8737 69.2966V66.0918V62.8871L36.7143 62.0862C37.1766 61.6458 38.1016 60.7706 38.7698 60.1414C40.4294 58.5785 40.4229 58.5848 40.4229 58.5445C40.4229 58.5248 40.3752 58.4675 40.3169 58.417C40.2587 58.3666 39.8931 58.0244 39.5046 57.6568C39.1161 57.2891 38.7844 56.9799 38.7676 56.9698C38.7508 56.9597 38.3335 57.3321 37.8352 57.8021ZM40.532 59.1746C38.9195 60.6856 38.2946 61.2721 37.5055 62.0152L36.5801 62.8865V66.0896V69.2926L38.2543 69.3016C39.175 69.3066 39.9749 69.3063 40.0318 69.3009C40.1092 69.2936 40.1392 69.2758 40.1515 69.2303C40.1605 69.1968 40.1682 67.7517 40.1686 66.0189L40.1695 62.8684L41.3487 61.7257C41.9973 61.0972 42.5279 60.568 42.5279 60.5496C42.5279 60.5311 42.2222 60.2302 41.8485 59.8807C40.9119 59.0048 40.827 58.9268 40.8108 58.9268C40.803 58.9268 40.6775 59.0383 40.532 59.1746ZM42.3573 61.4489C42.0471 61.7455 41.5871 62.1887 41.335 62.4338L40.8768 62.8795L40.874 66.0882L40.8712 69.2969L42.9499 69.3038L45.0285 69.3107V66.1001V62.8896L44.5694 62.4568C44.3169 62.2188 43.8814 61.8057 43.6016 61.5389C43.3219 61.272 43.0544 61.0213 43.0071 60.9816L42.9212 60.9096L42.3573 61.4489Z" fill="white"/>
<path fill-rule="evenodd" clip-rule="evenodd" d="M99.2151 58.2248C98.3847 58.3499 97.7357 58.7017 97.2122 59.3104C97.1045 59.4357 96.999 59.5423 96.9778 59.5475C96.9517 59.5538 96.8999 59.3934 96.8154 59.0445C96.7284 58.685 96.6723 58.5132 96.6278 58.4685C96.5653 58.4061 96.5367 58.4048 95.0224 58.3965C94.0661 58.3912 93.4507 58.3994 93.4016 58.4181C93.3581 58.4346 93.2976 58.486 93.2673 58.5323C93.2183 58.607 93.211 58.7081 93.2022 59.4295C93.1893 60.491 93.203 60.5359 93.5561 60.5981C93.7918 60.6397 93.9222 60.7199 93.9873 60.8635C94.0353 60.9692 94.039 61.3482 94.0381 65.9852L94.037 70.9929L93.9673 71.1365C93.8901 71.2955 93.7477 71.3842 93.5089 71.422C93.4364 71.4335 93.34 71.4748 93.2945 71.5138L93.2121 71.5848V72.4781V73.3715L93.3128 73.4615L93.4134 73.5514L95.6932 73.5432L97.973 73.535L98.0428 73.4652C98.1117 73.3963 98.1126 73.385 98.1215 72.5071L98.1305 71.6186L98.0449 71.5333C97.9851 71.4734 97.9043 71.4369 97.7756 71.4116C97.5486 71.3669 97.4126 71.2866 97.3407 71.155C97.291 71.064 97.2846 70.9438 97.2765 69.9286C97.2688 68.971 97.274 68.803 97.311 68.803C97.335 68.803 97.3729 68.8251 97.3952 68.852C97.4741 68.9469 97.7778 69.1632 97.9646 69.2574C98.5462 69.5507 99.4825 69.5852 100.141 69.3376C101.615 68.7827 102.596 67.2 102.86 64.9481C103.003 63.7344 102.921 62.1557 102.661 61.0921C102.282 59.5389 101.488 58.5764 100.355 58.2952C100.109 58.2341 99.4312 58.1923 99.2151 58.2248ZM110.763 58.2532C110.166 58.3661 109.494 58.7778 109.123 59.259C108.954 59.479 108.939 59.4581 108.939 58.9848C108.939 58.7563 108.926 58.5441 108.91 58.5133C108.893 58.4825 108.836 58.4421 108.782 58.4235C108.658 58.3801 105.212 58.3758 105.099 58.4189C105.057 58.435 104.997 58.486 104.967 58.5323C104.917 58.6083 104.912 58.699 104.912 59.4602C104.912 59.9242 104.922 60.3416 104.935 60.3877C104.967 60.4991 105.063 60.5573 105.282 60.5977C105.503 60.6385 105.605 60.6958 105.681 60.821C105.736 60.9127 105.739 61.03 105.739 63.8566C105.739 66.6122 105.736 66.8031 105.685 66.8961C105.62 67.0145 105.457 67.1043 105.249 67.1354C105.144 67.1511 105.071 67.1843 105.012 67.2431L104.927 67.3281V68.1993C104.927 69.0316 104.93 69.0739 104.99 69.1503C105.024 69.1943 105.104 69.2451 105.166 69.2633C105.244 69.2859 105.971 69.2934 107.48 69.287L109.679 69.2777L109.765 69.1821L109.85 69.0864L109.864 68.3631C109.88 67.4668 109.866 67.317 109.759 67.2251C109.716 67.1876 109.616 67.1473 109.538 67.1356C109.351 67.1076 109.214 67.0482 109.134 66.9603C108.984 66.7947 108.985 66.8233 108.985 63.9944C108.985 61.4857 108.988 61.3359 109.043 61.17C109.181 60.7501 109.593 60.5126 109.991 60.624C110.259 60.6992 110.4 60.9247 110.438 61.3413C110.48 61.7995 110.49 61.8046 111.423 61.8046C112.172 61.8046 112.234 61.7932 112.313 61.6404C112.345 61.577 112.356 61.2853 112.364 60.2885C112.369 59.5895 112.365 58.9281 112.353 58.8188C112.334 58.6388 112.321 58.6082 112.205 58.4931C112.111 58.3984 112.024 58.349 111.864 58.2986C111.583 58.21 111.099 58.19 110.763 58.2532ZM118.051 58.2239C117.294 58.3334 116.931 58.4353 116.474 58.6667C116.088 58.8621 115.915 58.9753 115.616 59.2319C114.714 60.0029 114.072 61.2701 113.854 62.7081C113.785 63.1683 113.759 64.298 113.808 64.7817C113.898 65.688 114.151 66.5878 114.489 67.2104C115.168 68.4588 116.168 69.1763 117.591 69.4381C118.019 69.5167 118.935 69.5073 119.345 69.42C120.195 69.239 120.914 68.8383 121.518 68.2096C121.985 67.7246 122.332 67.1549 122.54 66.5366C122.646 66.2206 122.64 66.1142 122.516 66.0163C122.441 65.9568 122.394 65.9546 121.198 65.9546C120.133 65.9546 119.945 65.9614 119.858 66.0029C119.755 66.0516 119.7 66.1397 119.628 66.3681C119.457 66.9138 119.065 67.1782 118.482 67.1415C117.865 67.1027 117.543 66.7659 117.378 65.9852C117.326 65.7401 117.27 65.158 117.27 64.8597L117.27 64.6376L119.881 64.6359C121.822 64.6346 122.519 64.6248 122.596 64.5977C122.779 64.5336 122.827 64.431 122.839 64.0806C122.871 63.1593 122.651 61.7975 122.339 60.9887C121.758 59.4811 120.771 58.563 119.444 58.2944C119.164 58.2375 118.27 58.1923 118.051 58.2239ZM127.929 58.2384C126.096 58.4416 124.919 59.4582 124.633 61.086C124.569 61.4517 124.568 62.0611 124.631 62.379C124.76 63.0235 124.989 63.4481 125.461 63.9203C125.931 64.391 126.549 64.7714 127.561 65.2134C128.571 65.6547 128.935 65.8644 129.087 66.0932C129.311 66.4314 129.197 66.9097 128.852 67.0852C128.584 67.2216 128.148 67.2406 127.824 67.13C127.615 67.0588 127.432 66.8709 127.35 66.6437C127.192 66.205 127.284 66.2303 125.848 66.2303C124.553 66.2303 124.514 66.2354 124.419 66.4178C124.262 66.7223 124.576 67.7801 124.984 68.3164C125.431 68.906 126.18 69.2825 127.239 69.4496C127.575 69.5025 128.766 69.5038 129.061 69.4515C129.64 69.3491 130.174 69.1601 130.599 68.9069C130.917 68.7177 131.449 68.2023 131.65 67.8891C132.084 67.2133 132.271 66.4724 132.238 65.5718C132.205 64.7198 131.99 64.1507 131.507 63.6413C131.047 63.157 130.465 62.8313 129.154 62.3249C128.167 61.9443 127.773 61.712 127.649 61.4383C127.58 61.2862 127.577 61.193 127.639 61.0199C127.744 60.7217 128.036 60.5567 128.465 60.5536C128.876 60.5508 129.106 60.7058 129.201 61.0486C129.271 61.3053 129.295 61.3516 129.388 61.4125C129.465 61.4633 129.567 61.4677 130.653 61.4677C131.935 61.4677 131.977 61.4627 132.072 61.3009C132.141 61.1851 132.138 60.993 132.062 60.621C131.786 59.2654 131.007 58.5517 129.522 58.2944C129.111 58.2233 128.317 58.1954 127.929 58.2384ZM137.27 58.2406C136.279 58.3421 135.444 58.71 134.861 59.3018C133.866 60.3131 133.631 62.1676 134.348 63.3541C134.611 63.7881 135.059 64.2154 135.601 64.5466C135.89 64.7237 136.556 65.0628 136.856 65.1865C137.371 65.3983 138.144 65.7951 138.286 65.9205C138.47 66.0842 138.557 66.2617 138.556 66.4773C138.554 66.7754 138.407 66.99 138.112 67.123C137.907 67.2153 137.429 67.2228 137.182 67.1375C136.968 67.0634 136.774 66.8757 136.705 66.6744C136.676 66.5901 136.632 66.4757 136.608 66.42C136.529 66.236 136.487 66.2303 135.196 66.2304C133.899 66.2304 133.876 66.2336 133.77 66.4447C133.706 66.5698 133.717 66.7302 133.816 67.1641C133.949 67.748 134.169 68.1588 134.556 68.5447C135.03 69.0176 135.582 69.2701 136.495 69.4337C136.919 69.5095 138.089 69.5128 138.48 69.4392C139.956 69.162 140.981 68.3292 141.403 67.0641C141.674 66.2516 141.666 65.1646 141.384 64.4584C141.013 63.5294 140.271 62.9852 138.434 62.2944C137.181 61.8236 136.797 61.4645 137.021 60.9776C137.146 60.7082 137.425 60.5533 137.791 60.5506C138.079 60.5484 138.27 60.6182 138.415 60.7786C138.474 60.844 138.537 60.957 138.557 61.0295C138.625 61.297 138.653 61.3567 138.734 61.4116C138.81 61.4628 138.909 61.4685 139.888 61.4775C140.478 61.483 141.033 61.4785 141.122 61.4676C141.498 61.4215 141.561 61.1632 141.374 60.4348C141.139 59.5231 140.681 58.9507 139.898 58.5907C139.228 58.2828 138.198 58.1456 137.27 58.2406ZM98.0299 60.6377C97.7462 60.7141 97.5563 60.8892 97.4111 61.2086C97.2725 61.5134 97.267 61.6318 97.2766 64.071L97.2856 66.3681L97.3558 66.5419C97.5517 67.0264 98.0812 67.2293 98.6545 67.0397C98.9468 66.943 99.1792 66.6032 99.2743 66.1333C99.354 65.7392 99.3841 65.282 99.4037 64.1629C99.4331 62.4926 99.3507 61.4734 99.1552 61.0877C98.9532 60.689 98.505 60.5098 98.0299 60.6377ZM118.187 60.6365C117.829 60.733 117.582 61.0128 117.44 61.483C117.384 61.6698 117.303 62.2225 117.301 62.4248V62.555H118.464H119.628V62.3942C119.627 62.1341 119.547 61.602 119.476 61.3892C119.391 61.1349 119.232 60.8944 119.072 60.7782C118.836 60.6077 118.496 60.5532 118.187 60.6365Z" fill="white"/>
<path fill-rule="evenodd" clip-rule="evenodd" d="M64.3904 55.1271C64.3802 55.1373 64.3718 55.7204 64.3718 56.423V57.7003L64.7611 57.7212C64.9752 57.7326 65.204 57.7677 65.2697 57.7991C65.512 57.915 65.5063 57.8107 65.5063 62.1378C65.5063 64.34 65.4902 66.2179 65.4705 66.3108C65.4155 66.5705 65.2445 66.6531 64.7611 66.6532L64.3718 66.6534V67.9658V69.2782H67.1714H69.971L69.9987 69.0447C70.014 68.9162 70.0204 68.3306 70.013 67.7434L69.9996 66.6757L69.8097 66.6503C69.5695 66.6183 69.3918 66.4878 69.3237 66.2933C69.2924 66.2041 69.2696 65.8743 69.2681 65.4915L69.2656 64.841L69.7559 64.179C70.0349 63.8024 70.2772 63.517 70.3179 63.517C70.3871 63.517 70.7468 64.241 71.3588 65.6119C71.711 66.4008 71.6595 66.6534 71.1464 66.6534H70.9116V67.9658V69.2782H73.9814H77.0511V67.9694V66.6606L76.8329 66.5881C76.3513 66.4282 75.9728 66.0542 75.6593 65.4285C75.5073 65.1251 74.2284 62.3568 73.2921 60.3046C73.1828 60.0652 73.1345 59.9043 73.1518 59.8374C73.1921 59.6806 73.9247 58.8357 74.301 58.512C74.9409 57.9615 75.3834 57.7631 76.061 57.7227L76.4728 57.6981V56.4145V55.1308H73.7144H70.9561V56.421V57.7112H71.2022C71.4773 57.7112 71.542 57.7755 71.4466 57.954C71.3174 58.1952 69.4085 60.6264 69.3374 60.6401C69.2643 60.6542 69.2603 60.5751 69.2737 59.3702C69.2862 58.2365 69.297 58.0712 69.3657 57.9665C69.4714 57.8053 69.5706 57.7596 69.8864 57.7266L70.1553 57.6985V56.4147V55.1308L70.0553 55.1293C69.1759 55.1154 64.4039 55.1136 64.3904 55.1271ZM78.5749 55.1131C78.5323 55.1324 78.5192 55.4386 78.5192 56.4247V57.7112L78.9308 57.7114C79.4366 57.7117 79.6522 57.7671 79.7542 57.9228C79.8264 58.0329 79.8316 58.3193 79.8316 62.1359C79.8316 64.388 79.8161 66.2865 79.7971 66.3545C79.7341 66.5797 79.5379 66.6531 78.9975 66.6532L78.5192 66.6534V67.9663V69.2791L80.8601 69.2675L83.201 69.256L83.3713 68.8111C83.6139 68.177 85.3842 63.5741 85.6256 62.9497C85.952 62.1051 85.9544 62.116 85.9395 64.3956C85.9254 66.5466 85.9292 66.516 85.6651 66.6081C85.5936 66.633 85.3981 66.6534 85.2304 66.6534H84.9256V67.9658V69.2782H87.9954H91.0651V67.9658V66.6534H90.5501C90.0442 66.6534 90.0327 66.6512 89.9093 66.5277C89.8072 66.4256 89.7782 66.3485 89.7544 66.1163C89.7384 65.959 89.7314 64.0886 89.739 61.9599C89.7537 57.7789 89.7457 57.9128 89.99 57.8015C90.0541 57.7723 90.3221 57.737 90.5857 57.7231L91.0651 57.6978V56.4143C91.0651 55.418 91.0526 55.1305 91.0094 55.1294C90.2601 55.11 86.4595 55.1375 86.4376 55.1625C86.4207 55.1818 86.1717 55.8282 85.8844 56.599C85.5971 57.3697 85.0615 58.8012 84.6942 59.7799C84.3268 60.7587 83.9539 61.7546 83.8655 61.9932C83.5903 62.7365 83.5853 62.7044 83.6001 60.2582C83.6142 57.9177 83.615 57.9106 83.8516 57.7992C83.9163 57.7688 84.1143 57.7339 84.2917 57.7217L84.6142 57.6995V56.4151V55.1308H81.8847C80.3834 55.1308 79.0371 55.1212 78.8928 55.1094C78.7485 55.0976 78.6054 55.0993 78.5749 55.1131ZM51.915 56.421V57.7112L52.2598 57.7156C52.6985 57.7213 52.8099 57.7537 52.8917 57.8993C52.9751 58.0479 52.9518 58.1648 52.5577 59.5748C52.1196 61.1425 51.6575 62.8083 51.2048 64.4512C50.9824 65.2587 50.7693 65.9994 50.7313 66.0973C50.5922 66.4553 50.3706 66.6019 49.9097 66.6405L49.6016 66.6664V67.9723V69.2782H52.0262H54.4508V67.9658V66.6534H54.2041C53.7695 66.6534 53.6598 66.4305 53.7992 65.8303L53.8508 65.6079H55.6965H57.5422L57.5939 65.8303C57.6782 66.1936 57.6676 66.4619 57.565 66.5644C57.4909 66.6386 57.4168 66.6534 57.1201 66.6534H56.7642V67.9658V69.2782H59.6116H62.4588V67.9658V66.6534H62.1762C61.9569 66.6534 61.8598 66.6309 61.7425 66.5527C61.5496 66.4243 61.4729 66.2618 61.307 65.6302C61.142 65.0021 59.6993 59.1489 59.1878 57.0328C58.9823 56.1825 58.7926 55.4067 58.7662 55.3088L58.7183 55.1308H55.3166H51.915V56.421ZM55.2112 60.7479C54.9321 61.757 54.6946 62.6178 54.6834 62.6606C54.6643 62.7331 54.7348 62.7384 55.7136 62.7384C56.6821 62.7384 56.7642 62.7323 56.7642 62.661C56.7642 62.5916 56.2188 60.3843 56.0083 59.602C55.9622 59.4307 55.9025 59.2054 55.8755 59.1015C55.8486 58.9975 55.8023 58.9125 55.7727 58.9127C55.7396 58.9129 55.5225 59.6226 55.2112 60.7479Z" fill="white"/>
<path d="M64.9883 44H60L69.5182 19H73.4279L83 44H78.1196L71.4596 25.3671L64.9883 44Z" fill="white"/>
<path d="M3.91406 9.64062H26.2031V13.6953H8.46094V24.2891H16.6641C19.6953 24.2891 22.1016 24.5781 23.8828 25.1562C25.6797 25.7344 27.1172 26.8281 28.1953 28.4375C29.2734 30.0312 29.8125 31.8906 29.8125 34.0156C29.8125 35.75 29.4219 37.375 28.6406 38.8906C27.875 40.3906 26.7266 41.6172 25.1953 42.5703C23.6641 43.5234 21.0547 44 17.3672 44H3.91406V9.64062ZM8.46094 40.1328H17.5547C20.0078 40.1328 21.8438 39.6328 23.0625 38.6328C24.2969 37.6328 24.9141 36.1328 24.9141 34.1328C24.9141 32.7109 24.5625 31.5234 23.8594 30.5703C23.1562 29.6172 22.1797 28.9844 20.9297 28.6719C19.6797 28.3594 17.5469 28.2031 14.5312 28.2031H8.46094V40.1328ZM34.6641 19.1094H38.8828V38.0938L50.5781 19.1094H55.125V44H50.9062V25.1328L39.2109 44H34.6641V19.1094ZM88.1953 19.1094H92.4141V38.0938L104.109 19.1094H108.656V44H104.438V25.1328L92.7422 44H88.1953V19.1094ZM115.125 19.1094H121.688L128.227 39.0312L135.492 19.1094H141.562V44H137.344V23.9609L129.984 44H126.211L119.25 23V44H115.125V19.1094Z" fill="white"/>
</svg>
