<svg width="3254" height="458" viewBox="0 0 3254 458" fill="none" xmlns="http://www.w3.org/2000/svg">
<path d="M704.9 389.9C680.05 389.9 658.175 384.65 639.275 374.15C620.375 363.533 605.617 348.717 595 329.7C584.5 310.567 579.25 288.167 579.25 262.5C579.25 236.833 584.675 214.492 595.525 195.475C606.492 176.342 621.542 161.525 640.675 151.025C659.808 140.408 681.683 135.1 706.3 135.1C719.25 135.1 731.092 136.5 741.825 139.3C752.558 141.983 761.833 145.367 769.65 149.45L764.75 192.15C755.883 188.067 746.725 184.742 737.275 182.175C727.942 179.492 717.5 178.15 705.95 178.15C688.8 178.15 674.45 181.767 662.9 189C651.467 196.233 642.833 206.208 637 218.925C631.167 231.642 628.25 246.167 628.25 262.5C628.25 278.833 631.108 293.358 636.825 306.075C642.542 318.792 651.058 328.767 662.375 336C673.808 343.233 687.983 346.85 704.9 346.85C716.683 346.85 727.242 345.567 736.575 343C745.908 340.433 755.3 337.05 764.75 332.85L769.65 375.55C760.433 379.867 750.283 383.308 739.2 385.875C728.233 388.558 716.8 389.9 704.9 389.9ZM891.321 386.28C873.615 386.28 857.828 382.547 843.961 375.08C830.308 367.4 819.535 356.947 811.641 343.72C803.961 330.28 800.121 314.92 800.121 297.64C800.121 280.147 803.748 264.787 811.001 251.56C818.468 238.12 828.708 227.667 841.721 220.2C854.735 212.52 869.668 208.68 886.521 208.68C903.161 208.68 917.455 212.413 929.401 219.88C941.348 227.133 950.415 237.267 956.601 250.28C963.001 263.08 966.201 277.907 966.201 294.76C966.201 298.813 964.815 302.227 962.041 305C959.268 307.56 955.748 308.84 951.481 308.84H822.521V283.24H950.521L937.401 292.2C937.188 281.533 935.055 272.04 931.001 263.72C926.948 255.187 921.188 248.467 913.721 243.56C906.255 238.653 897.188 236.2 886.521 236.2C874.361 236.2 863.908 238.867 855.161 244.2C846.628 249.533 840.121 256.893 835.641 266.28C831.161 275.453 828.921 285.907 828.921 297.64C828.921 309.373 831.588 319.827 836.921 329C842.255 338.173 849.615 345.427 859.001 350.76C868.388 356.093 879.161 358.76 891.321 358.76C897.935 358.76 904.655 357.587 911.481 355.24C918.521 352.68 924.175 349.8 928.441 346.6C931.641 344.253 935.055 343.08 938.681 343.08C942.521 342.867 945.828 343.933 948.601 346.28C952.228 349.48 954.148 353 954.361 356.84C954.575 360.68 952.868 363.987 949.241 366.76C941.988 372.52 932.921 377.213 922.041 380.84C911.375 384.467 901.135 386.28 891.321 386.28ZM1155.67 385.32C1150.98 385.32 1147.03 383.827 1143.83 380.84C1140.84 377.64 1139.35 373.693 1139.35 369V290.28C1139.35 278.12 1137.11 268.2 1132.63 260.52C1128.15 252.84 1122.07 247.187 1114.39 243.56C1106.92 239.72 1098.28 237.8 1088.47 237.8C1079.51 237.8 1071.4 239.613 1064.15 243.24C1056.9 246.867 1051.14 251.773 1046.87 257.96C1042.6 263.933 1040.47 270.867 1040.47 278.76H1020.31C1020.31 265.32 1023.51 253.373 1029.91 242.92C1036.52 232.253 1045.48 223.827 1056.79 217.64C1068.1 211.453 1080.79 208.36 1094.87 208.36C1109.59 208.36 1122.71 211.56 1134.23 217.96C1145.96 224.147 1155.14 233.32 1161.75 245.48C1168.58 257.64 1171.99 272.573 1171.99 290.28V369C1171.99 373.693 1170.39 377.64 1167.19 380.84C1164.2 383.827 1160.36 385.32 1155.67 385.32ZM1024.15 385.32C1019.46 385.32 1015.51 383.827 1012.31 380.84C1009.32 377.64 1007.83 373.693 1007.83 369V226.28C1007.83 221.373 1009.32 217.427 1012.31 214.44C1015.51 211.453 1019.46 209.96 1024.15 209.96C1029.06 209.96 1033 211.453 1035.99 214.44C1038.98 217.427 1040.47 221.373 1040.47 226.28V369C1040.47 373.693 1038.98 377.64 1035.99 380.84C1033 383.827 1029.06 385.32 1024.15 385.32ZM1299.36 215.95L1313.36 250.25H1268.56V322.7C1268.56 331.567 1270.66 338.8 1274.86 344.4C1279.06 350 1285.24 352.8 1293.41 352.8C1296.44 352.8 1299.47 352.45 1302.51 351.75C1305.54 351.05 1308.69 350 1311.96 348.6L1325.26 381.5C1322.92 383.367 1319.77 385 1315.81 386.4C1311.84 388.033 1307.64 389.317 1303.21 390.25C1298.77 391.417 1294.69 392 1290.96 392C1276.96 392 1264.94 389.667 1254.91 385C1245.11 380.1 1237.41 373.1 1231.81 364C1226.21 354.9 1223.41 343.817 1223.41 330.75V250.25H1200.31L1200.66 215.95H1223.41V175.35L1268.56 167.3V215.95H1299.36ZM1449.92 240.933C1449.92 245.034 1449.8 248.395 1449.57 251.016C1449.35 253.636 1449 255.687 1448.55 257.168C1448.09 258.649 1447.47 259.674 1446.67 260.244C1445.98 260.814 1445.07 261.099 1443.93 261.099C1443.02 261.099 1442 260.928 1440.86 260.586C1439.72 260.13 1438.41 259.674 1436.93 259.219C1435.56 258.763 1434.02 258.364 1432.31 258.022C1430.6 257.567 1428.72 257.339 1426.67 257.339C1424.28 257.339 1421.89 257.852 1419.5 258.877C1417.1 259.788 1414.6 261.27 1411.98 263.32C1409.47 265.371 1406.79 268.105 1403.94 271.523C1401.21 274.941 1398.25 279.157 1395.06 284.17V379.189C1395.06 380.329 1394.71 381.354 1394.03 382.266C1393.35 383.063 1392.15 383.747 1390.44 384.316C1388.85 384.886 1386.68 385.285 1383.95 385.513C1381.21 385.854 1377.74 386.025 1373.52 386.025C1369.31 386.025 1365.83 385.854 1363.1 385.513C1360.36 385.285 1358.14 384.886 1356.43 384.316C1354.84 383.747 1353.7 383.063 1353.02 382.266C1352.33 381.354 1351.99 380.329 1351.99 379.189V226.748C1351.99 225.609 1352.28 224.64 1352.84 223.843C1353.41 222.931 1354.44 222.191 1355.92 221.621C1357.4 221.051 1359.28 220.653 1361.56 220.425C1363.95 220.083 1366.92 219.912 1370.45 219.912C1374.09 219.912 1377.11 220.083 1379.5 220.425C1381.9 220.653 1383.72 221.051 1384.97 221.621C1386.34 222.191 1387.31 222.931 1387.88 223.843C1388.45 224.64 1388.73 225.609 1388.73 226.748V245.718C1392.72 240.021 1396.48 235.35 1400.01 231.704C1403.54 227.944 1406.91 224.982 1410.1 222.817C1413.29 220.653 1416.48 219.172 1419.67 218.374C1422.86 217.463 1426.05 217.007 1429.24 217.007C1430.72 217.007 1432.31 217.121 1434.02 217.349C1435.73 217.463 1437.5 217.747 1439.32 218.203C1441.14 218.545 1442.74 219.001 1444.1 219.57C1445.47 220.026 1446.44 220.539 1447.01 221.108C1447.69 221.678 1448.15 222.305 1448.38 222.988C1448.72 223.672 1449 224.64 1449.23 225.894C1449.46 227.033 1449.63 228.799 1449.74 231.191C1449.86 233.584 1449.92 236.831 1449.92 240.933ZM1556.63 386.28C1541.06 386.28 1527.08 382.44 1514.71 374.76C1502.34 366.867 1492.52 356.307 1485.27 343.08C1478.23 329.64 1474.71 314.493 1474.71 297.64C1474.71 280.787 1478.55 265.64 1486.23 252.2C1494.12 238.76 1504.68 228.2 1517.91 220.52C1531.35 212.627 1546.39 208.68 1563.03 208.68C1579.67 208.68 1594.6 212.627 1607.83 220.52C1621.06 228.2 1631.51 238.76 1639.19 252.2C1647.08 265.64 1651.03 280.787 1651.03 297.64H1638.55C1638.55 314.493 1634.92 329.64 1627.67 343.08C1620.63 356.307 1610.92 366.867 1598.55 374.76C1586.18 382.44 1572.2 386.28 1556.63 386.28ZM1563.03 357.48C1573.91 357.48 1583.62 354.92 1592.15 349.8C1600.68 344.467 1607.4 337.32 1612.31 328.36C1617.22 319.187 1619.67 308.947 1619.67 297.64C1619.67 286.12 1617.22 275.88 1612.31 266.92C1607.4 257.747 1600.68 250.6 1592.15 245.48C1583.62 240.147 1573.91 237.48 1563.03 237.48C1552.36 237.48 1542.66 240.147 1533.91 245.48C1525.38 250.6 1518.55 257.747 1513.43 266.92C1508.52 275.88 1506.07 286.12 1506.07 297.64C1506.07 308.947 1508.52 319.187 1513.43 328.36C1518.55 337.32 1525.38 344.467 1533.91 349.8C1542.66 354.92 1552.36 357.48 1563.03 357.48ZM1634.71 385.32C1630.02 385.32 1626.07 383.827 1622.87 380.84C1619.88 377.64 1618.39 373.693 1618.39 369V320.04L1624.47 286.12L1651.03 297.64V369C1651.03 373.693 1649.43 377.64 1646.23 380.84C1643.24 383.827 1639.4 385.32 1634.71 385.32ZM1738.71 385H1693.56V141.75L1738.71 137.9V385ZM1947.18 386.6C1927.71 386.6 1910.25 381.8 1894.78 372.2C1879.31 362.333 1867.05 349.133 1857.98 332.6C1849.18 315.8 1844.78 296.867 1844.78 275.8C1844.78 254.733 1849.58 235.8 1859.18 219C1869.05 202.2 1882.25 189 1898.78 179.4C1915.58 169.533 1934.38 164.6 1955.18 164.6C1975.98 164.6 1994.65 169.533 2011.18 179.4C2027.71 189 2040.78 202.2 2050.38 219C2060.25 235.8 2065.18 254.733 2065.18 275.8H2049.58C2049.58 296.867 2045.05 315.8 2035.98 332.6C2027.18 349.133 2015.05 362.333 1999.58 372.2C1984.11 381.8 1966.65 386.6 1947.18 386.6ZM1955.18 350.6C1968.78 350.6 1980.91 347.4 1991.58 341C2002.25 334.333 2010.65 325.4 2016.78 314.2C2022.91 302.733 2025.98 289.933 2025.98 275.8C2025.98 261.4 2022.91 248.6 2016.78 237.4C2010.65 225.933 2002.25 217 1991.58 210.6C1980.91 203.933 1968.78 200.6 1955.18 200.6C1941.85 200.6 1929.71 203.933 1918.78 210.6C1908.11 217 1899.58 225.933 1893.18 237.4C1887.05 248.6 1883.98 261.4 1883.98 275.8C1883.98 289.933 1887.05 302.733 1893.18 314.2C1899.58 325.4 1908.11 334.333 1918.78 341C1929.71 347.4 1941.85 350.6 1955.18 350.6ZM2044.78 385.4C2038.91 385.4 2033.98 383.533 2029.98 379.8C2026.25 375.8 2024.38 370.867 2024.38 365V303.8L2031.98 261.4L2065.18 275.8V365C2065.18 370.867 2063.18 375.8 2059.18 379.8C2055.45 383.533 2050.65 385.4 2044.78 385.4ZM2182.38 386.28C2167.45 386.28 2153.58 384.04 2140.78 379.56C2128.19 374.867 2118.38 369 2111.34 361.96C2108.14 358.547 2106.75 354.707 2107.18 350.44C2107.82 345.96 2109.95 342.333 2113.58 339.56C2117.85 336.147 2122.01 334.76 2126.06 335.4C2130.33 335.827 2133.95 337.64 2136.94 340.84C2140.57 344.893 2146.33 348.733 2154.22 352.36C2162.33 355.773 2171.29 357.48 2181.1 357.48C2193.47 357.48 2202.86 355.453 2209.26 351.4C2215.87 347.347 2219.29 342.12 2219.5 335.72C2219.71 329.32 2216.62 323.773 2210.22 319.08C2204.03 314.387 2192.62 310.547 2175.98 307.56C2154.43 303.293 2138.75 296.893 2128.94 288.36C2119.34 279.827 2114.54 269.373 2114.54 257C2114.54 246.12 2117.74 237.16 2124.14 230.12C2130.54 222.867 2138.75 217.533 2148.78 214.12C2158.81 210.493 2169.26 208.68 2180.14 208.68C2194.22 208.68 2206.7 210.92 2217.58 215.4C2228.46 219.88 2237.1 226.067 2243.5 233.96C2246.49 237.373 2247.87 241 2247.66 244.84C2247.45 248.467 2245.63 251.56 2242.22 254.12C2238.81 256.467 2234.75 257.213 2230.06 256.36C2225.37 255.507 2221.42 253.587 2218.22 250.6C2212.89 245.48 2207.13 241.96 2200.94 240.04C2194.75 238.12 2187.61 237.16 2179.5 237.16C2170.11 237.16 2162.11 238.76 2155.5 241.96C2149.1 245.16 2145.9 249.853 2145.9 256.04C2145.9 259.88 2146.86 263.4 2148.78 266.6C2150.91 269.587 2154.97 272.36 2160.94 274.92C2166.91 277.267 2175.66 279.613 2187.18 281.96C2203.18 285.16 2215.77 289.213 2224.94 294.12C2234.33 299.027 2241.05 304.787 2245.1 311.4C2249.15 317.8 2251.18 325.267 2251.18 333.8C2251.18 343.613 2248.51 352.467 2243.18 360.36C2238.06 368.253 2230.38 374.547 2220.14 379.24C2210.11 383.933 2197.53 386.28 2182.38 386.28ZM2311.97 385C2307.28 385 2303.33 383.507 2300.13 380.52C2297.14 377.32 2295.65 373.373 2295.65 368.68V226.28C2295.65 221.373 2297.14 217.427 2300.13 214.44C2303.33 211.453 2307.28 209.96 2311.97 209.96C2316.88 209.96 2320.82 211.453 2323.81 214.44C2326.8 217.427 2328.29 221.373 2328.29 226.28V368.68C2328.29 373.373 2326.8 377.32 2323.81 380.52C2320.82 383.507 2316.88 385 2311.97 385ZM2311.97 181.48C2306.21 181.48 2301.2 179.453 2296.93 175.4C2292.88 171.133 2290.85 166.12 2290.85 160.36C2290.85 154.6 2292.88 149.693 2296.93 145.64C2301.2 141.373 2306.21 139.24 2311.97 139.24C2317.73 139.24 2322.64 141.373 2326.69 145.64C2330.96 149.693 2333.09 154.6 2333.09 160.36C2333.09 166.12 2330.96 171.133 2326.69 175.4C2322.64 179.453 2317.73 181.48 2311.97 181.48ZM2461.97 386.28C2446.4 386.28 2432.43 382.44 2420.05 374.76C2407.68 366.867 2397.87 356.307 2390.61 343.08C2383.57 329.64 2380.05 314.493 2380.05 297.64C2380.05 280.787 2383.89 265.64 2391.57 252.2C2399.47 238.76 2410.03 228.2 2423.25 220.52C2436.69 212.627 2451.73 208.68 2468.37 208.68C2485.01 208.68 2499.95 212.627 2513.17 220.52C2526.4 228.2 2536.85 238.76 2544.53 252.2C2552.43 265.64 2556.37 280.787 2556.37 297.64H2543.89C2543.89 314.493 2540.27 329.64 2533.01 343.08C2525.97 356.307 2516.27 366.867 2503.89 374.76C2491.52 382.44 2477.55 386.28 2461.97 386.28ZM2468.37 357.48C2479.25 357.48 2488.96 354.92 2497.49 349.8C2506.03 344.467 2512.75 337.32 2517.65 328.36C2522.56 319.187 2525.01 308.947 2525.01 297.64C2525.01 286.12 2522.56 275.88 2517.65 266.92C2512.75 257.747 2506.03 250.6 2497.49 245.48C2488.96 240.147 2479.25 237.48 2468.37 237.48C2457.71 237.48 2448 240.147 2439.25 245.48C2430.72 250.6 2423.89 257.747 2418.77 266.92C2413.87 275.88 2411.41 286.12 2411.41 297.64C2411.41 308.947 2413.87 319.187 2418.77 328.36C2423.89 337.32 2430.72 344.467 2439.25 349.8C2448 354.92 2457.71 357.48 2468.37 357.48ZM2540.05 385.32C2535.36 385.32 2531.41 383.827 2528.21 380.84C2525.23 377.64 2523.73 373.693 2523.73 369V320.04L2529.81 286.12L2556.37 297.64V369C2556.37 373.693 2554.77 377.64 2551.57 380.84C2548.59 383.827 2544.75 385.32 2540.05 385.32ZM2623.75 391.4C2616.28 391.4 2609.75 388.733 2604.15 383.4C2598.82 377.8 2596.15 371.267 2596.15 363.8C2596.15 356.067 2598.82 349.533 2604.15 344.2C2609.75 338.6 2616.28 335.8 2623.75 335.8C2631.48 335.8 2638.02 338.6 2643.35 344.2C2648.68 349.533 2651.35 356.067 2651.35 363.8C2651.35 371.267 2648.68 377.8 2643.35 383.4C2638.02 388.733 2631.48 391.4 2623.75 391.4ZM2816.9 385.18C2814.26 385.18 2812.04 384.34 2810.24 382.66C2808.56 380.86 2807.72 378.64 2807.72 376V324.52C2807.72 316.96 2805.86 311.38 2802.14 307.78C2798.42 304.06 2793.56 302.2 2787.56 302.2C2781.32 302.2 2776.16 304.36 2772.08 308.68C2768.12 313 2766.14 318.52 2766.14 325.24H2751.2C2751.2 317.44 2752.88 310.6 2756.24 304.72C2759.6 298.72 2764.28 294.04 2770.28 290.68C2776.4 287.32 2783.36 285.64 2791.16 285.64C2798 285.64 2804.06 287.14 2809.34 290.14C2814.62 293.14 2818.7 297.58 2821.58 303.46C2824.58 309.22 2826.08 316.24 2826.08 324.52V376C2826.08 378.64 2825.24 380.86 2823.56 382.66C2821.88 384.34 2819.66 385.18 2816.9 385.18ZM2696.84 385.18C2694.2 385.18 2691.98 384.34 2690.18 382.66C2688.5 380.86 2687.66 378.64 2687.66 376V295.9C2687.66 293.14 2688.5 290.92 2690.18 289.24C2691.98 287.56 2694.2 286.72 2696.84 286.72C2699.6 286.72 2701.82 287.56 2703.5 289.24C2705.18 290.92 2706.02 293.14 2706.02 295.9V376C2706.02 378.64 2705.18 380.86 2703.5 382.66C2701.82 384.34 2699.6 385.18 2696.84 385.18ZM2756.96 385.18C2754.32 385.18 2752.1 384.34 2750.3 382.66C2748.62 380.86 2747.78 378.64 2747.78 376V324.52C2747.78 316.96 2745.92 311.38 2742.2 307.78C2738.48 304.06 2733.62 302.2 2727.62 302.2C2721.38 302.2 2716.22 304.36 2712.14 308.68C2708.06 313 2706.02 318.52 2706.02 325.24H2694.68C2694.68 317.44 2696.24 310.6 2699.36 304.72C2702.48 298.72 2706.8 294.04 2712.32 290.68C2717.84 287.32 2724.14 285.64 2731.22 285.64C2738.06 285.64 2744.12 287.14 2749.4 290.14C2754.68 293.14 2758.76 297.58 2761.64 303.46C2764.64 309.22 2766.14 316.24 2766.14 324.52V376C2766.14 378.64 2765.3 380.86 2763.62 382.66C2761.94 384.34 2759.72 385.18 2756.96 385.18ZM2902.85 385.72C2892.89 385.72 2884.01 383.62 2876.21 379.42C2868.53 375.1 2862.47 369.22 2858.03 361.78C2853.71 354.22 2851.55 345.58 2851.55 335.86C2851.55 326.02 2853.59 317.38 2857.67 309.94C2861.87 302.38 2867.63 296.5 2874.95 292.3C2882.27 287.98 2890.67 285.82 2900.15 285.82C2909.51 285.82 2917.55 287.92 2924.27 292.12C2930.99 296.2 2936.09 301.9 2939.57 309.22C2943.17 316.42 2944.97 324.76 2944.97 334.24C2944.97 336.52 2944.19 338.44 2942.63 340C2941.07 341.44 2939.09 342.16 2936.69 342.16H2864.15V327.76H2936.15L2928.77 332.8C2928.65 326.8 2927.45 321.46 2925.17 316.78C2922.89 311.98 2919.65 308.2 2915.45 305.44C2911.25 302.68 2906.15 301.3 2900.15 301.3C2893.31 301.3 2887.43 302.8 2882.51 305.8C2877.71 308.8 2874.05 312.94 2871.53 318.22C2869.01 323.38 2867.75 329.26 2867.75 335.86C2867.75 342.46 2869.25 348.34 2872.25 353.5C2875.25 358.66 2879.39 362.74 2884.67 365.74C2889.95 368.74 2896.01 370.24 2902.85 370.24C2906.57 370.24 2910.35 369.58 2914.19 368.26C2918.15 366.82 2921.33 365.2 2923.73 363.4C2925.53 362.08 2927.45 361.42 2929.49 361.42C2931.65 361.3 2933.51 361.9 2935.07 363.22C2937.11 365.02 2938.19 367 2938.31 369.16C2938.43 371.32 2937.47 373.18 2935.43 374.74C2931.35 377.98 2926.25 380.62 2920.13 382.66C2914.13 384.7 2908.37 385.72 2902.85 385.72ZM3061.35 252.461V385H3049.22V368.564C3044.06 374.834 3038.26 379.551 3031.81 382.715C3025.43 385.879 3018.43 387.461 3010.81 387.461C2997.27 387.461 2985.7 382.568 2976.09 372.783C2966.54 362.939 2961.77 350.986 2961.77 336.924C2961.77 323.154 2966.6 311.377 2976.27 301.592C2985.94 291.807 2997.57 286.914 3011.16 286.914C3019.01 286.914 3026.1 288.584 3032.43 291.924C3038.82 295.264 3044.41 300.273 3049.22 306.953V252.461H3061.35ZM3012.13 298.779C3005.27 298.779 2998.94 300.479 2993.14 303.877C2987.34 307.217 2982.71 311.934 2979.26 318.027C2975.86 324.121 2974.16 330.566 2974.16 337.363C2974.16 344.102 2975.89 350.547 2979.34 356.699C2982.8 362.852 2987.43 367.656 2993.23 371.113C2999.09 374.512 3005.36 376.211 3012.04 376.211C3018.78 376.211 3025.16 374.512 3031.2 371.113C3037.23 367.715 3041.86 363.115 3045.09 357.314C3048.37 351.514 3050.01 344.98 3050.01 337.715C3050.01 326.641 3046.35 317.383 3039.02 309.941C3031.76 302.5 3022.79 298.779 3012.13 298.779ZM3102.76 385C3100.12 385 3097.9 384.16 3096.1 382.48C3094.42 380.68 3093.58 378.46 3093.58 375.82V295.72C3093.58 292.96 3094.42 290.74 3096.1 289.06C3097.9 287.38 3100.12 286.54 3102.76 286.54C3105.52 286.54 3107.74 287.38 3109.42 289.06C3111.1 290.74 3111.94 292.96 3111.94 295.72V375.82C3111.94 378.46 3111.1 380.68 3109.42 382.48C3107.74 384.16 3105.52 385 3102.76 385ZM3102.76 270.52C3099.52 270.52 3096.7 269.38 3094.3 267.1C3092.02 264.7 3090.88 261.88 3090.88 258.64C3090.88 255.4 3092.02 252.64 3094.3 250.36C3096.7 247.96 3099.52 246.76 3102.76 246.76C3106 246.76 3108.76 247.96 3111.04 250.36C3113.44 252.64 3114.64 255.4 3114.64 258.64C3114.64 261.88 3113.44 264.7 3111.04 267.1C3108.76 269.38 3106 270.52 3102.76 270.52ZM3187.14 385.72C3178.38 385.72 3170.52 383.56 3163.56 379.24C3156.6 374.8 3151.08 368.86 3147 361.42C3143.04 353.86 3141.06 345.34 3141.06 335.86C3141.06 326.38 3143.22 317.86 3147.54 310.3C3151.98 302.74 3157.92 296.8 3165.36 292.48C3172.92 288.04 3181.38 285.82 3190.74 285.82C3200.1 285.82 3208.5 288.04 3215.94 292.48C3223.38 296.8 3229.26 302.74 3233.58 310.3C3238.02 317.86 3240.24 326.38 3240.24 335.86H3233.22C3233.22 345.34 3231.18 353.86 3227.1 361.42C3223.14 368.86 3217.68 374.8 3210.72 379.24C3203.76 383.56 3195.9 385.72 3187.14 385.72ZM3190.74 369.52C3196.86 369.52 3202.32 368.08 3207.12 365.2C3211.92 362.2 3215.7 358.18 3218.46 353.14C3221.22 347.98 3222.6 342.22 3222.6 335.86C3222.6 329.38 3221.22 323.62 3218.46 318.58C3215.7 313.42 3211.92 309.4 3207.12 306.52C3202.32 303.52 3196.86 302.02 3190.74 302.02C3184.74 302.02 3179.28 303.52 3174.36 306.52C3169.56 309.4 3165.72 313.42 3162.84 318.58C3160.08 323.62 3158.7 329.38 3158.7 335.86C3158.7 342.22 3160.08 347.98 3162.84 353.14C3165.72 358.18 3169.56 362.2 3174.36 365.2C3179.28 368.08 3184.74 369.52 3190.74 369.52ZM3231.06 385.18C3228.42 385.18 3226.2 384.34 3224.4 382.66C3222.72 380.86 3221.88 378.64 3221.88 376V348.46L3225.3 329.38L3240.24 335.86V376C3240.24 378.64 3239.34 380.86 3237.54 382.66C3235.86 384.34 3233.7 385.18 3231.06 385.18Z" fill="white"/>
<path fill-rule="evenodd" clip-rule="evenodd" d="M114.823 76.7002C45.3732 95.6712 0 155.742 0 228.718C0 290.681 30.3599 341.142 84.2773 368.795C123.875 389.104 169.896 392.157 212.511 377.302C246.059 365.607 286.556 330.853 266.635 330.853C259.905 330.853 240.071 322.199 229.02 314.444L218.505 307.062L207.694 313.418C159.894 341.52 99.7406 323.112 78.0749 273.755C55.8008 223.007 74.7309 161.198 119.142 139.665C146.941 126.188 175.717 126.657 204.008 141.052C216.236 147.273 220.153 148.401 222.759 146.454C234.448 137.72 248.79 130.501 260.951 127.231C268.687 125.149 275.014 122.776 275.014 121.957C275.014 118.562 253.757 100.963 239.396 92.468C230.912 87.4504 215.661 80.8486 205.506 77.7998C189.61 73.0277 183.093 72.2736 158.629 72.3757C137.526 72.4648 126.254 73.5775 114.823 76.7002Z" fill="white"/>
<path fill-rule="evenodd" clip-rule="evenodd" d="M266.161 71.524C260.717 72.0477 256.267 73.156 256.269 73.9883C256.271 74.8184 260.477 78.2693 265.617 81.6571C270.757 85.0428 283.176 97.175 293.219 108.616C303.261 120.058 316.018 133.911 321.566 139.4C347.565 165.121 351.651 169.856 356.082 179.4C370.646 210.779 370.121 249.758 354.739 279.236C351.68 285.096 343.507 295.14 336.577 301.553C319.67 317.199 318.797 318.138 300.282 340.614C291.419 351.371 277.941 365.061 270.33 371.037C262.719 377.013 256.442 382.535 256.379 383.307C256.317 384.078 263.555 385.384 272.468 386.205C300.513 388.796 334.156 381.509 352.443 368.888C364.154 360.804 366.687 361.574 366.687 373.21V382.989H398.726C424.419 382.989 431.267 382.355 433.313 379.784C435.268 377.331 435.649 355.837 434.947 287.971L434.028 199.364L428.355 179.806C420.229 151.787 410.504 134.88 390.715 114.375C372.144 95.1302 350.072 81.8418 326.202 75.5355C312.911 72.0238 282.233 69.9746 266.161 71.524ZM147.926 154.538C139.332 155.79 138.173 156.717 134.017 165.681C127.612 179.498 122.847 200.62 121.539 221.004C120.218 241.58 126.05 275.226 133.737 291.383L138.55 301.499L154.176 302.155C162.77 302.516 173.852 301.751 178.804 300.456C190.105 297.498 204.879 287.934 203.426 284.518C193.634 261.488 191.061 252.183 190.12 236.398C188.917 216.238 191.661 199.933 199.058 183.29C203.854 172.503 204.004 171.255 200.951 167.737C192.588 158.097 167.083 151.75 147.926 154.538Z" fill="white"/>
</svg>
