<svg width="1362" height="254" viewBox="0 0 1362 254" fill="none" xmlns="http://www.w3.org/2000/svg">
<path fill-rule="evenodd" clip-rule="evenodd" d="M112.579 1.19107C105.52 3.44807 103.061 5.36207 83.797 23.6011C42.37 62.8241 17.522 87.4181 13.835 92.8471C9.629 99.0401 5.026 108.216 5.01 110.438C5.004 111.172 7.813 109.226 11.25 106.114C32.515 86.8651 68.647 69.98 99.875 64.697C121.443 61.049 149.646 62.155 165.5 67.27C174.318 70.116 184.165 75.6461 189.652 80.8361C214.647 104.475 194.736 135.333 146.074 148.374C137.609 150.643 134.473 150.949 119 151.022C103.683 151.094 100.45 150.817 93.081 148.803C76.538 144.283 68 138.258 68 131.104C68 126.97 72.443 121.439 78.069 118.569C82.086 116.52 90.948 114.219 91.747 115.018C92.012 115.283 91.252 117.519 90.057 119.986C85.74 128.905 90.364 136.652 102.113 140.184C107.283 141.738 111.55 142.099 124.5 142.077C138.809 142.053 141.557 141.76 150.5 139.302C162.908 135.893 176.862 129.087 183.66 123.129C196.302 112.049 197.337 97.4371 186.192 87.3891C180.901 82.6181 174.311 79.3091 163.307 75.8981C154.788 73.2571 153.733 73.1671 131 73.1361C110.2 73.1081 106.121 73.3771 95.5 75.4831C71.669 80.2081 48.744 89.5251 30.784 101.785C21.064 108.421 2.506 126.144 0.924999 130.3C0.415999 131.639 0 145.498 0 161.098C0 185.549 0.216999 189.678 1.571 191.033C2.982 192.444 15.277 192.604 121.949 192.604C223.622 192.604 240.926 192.398 241.939 191.177C243.265 189.58 243.1 123.367 241.767 122.037C241.364 121.634 237.527 124.656 233.24 128.752C213.324 147.781 177.687 165.395 146.47 171.642C131.148 174.708 106.098 175.433 92.101 173.216C73.939 170.34 61.073 164.97 51.311 156.193C44.653 150.208 41.653 143.915 41.173 134.925C40.567 123.601 45.152 115.211 56.863 106.218C69.233 96.7181 82.58 91.0841 101.112 87.5391C128.351 82.3271 163.173 88.3181 170.718 99.5131C174.002 104.387 173.697 108.741 169.757 113.228C164.001 119.784 150 124.444 150 119.804C150 118.814 150.511 117.493 151.136 116.868C152.906 115.098 152.474 108.1 150.372 104.502C148.151 100.699 141.795 97.19 134 95.465C126.977 93.911 108.422 93.924 100 95.49C82.925 98.663 64.997 106.765 56.333 115.224C46.755 124.575 44.742 133.053 49.8 142.736C57.115 156.739 78.721 164.604 109.873 164.604C146.299 164.604 180.428 155.252 207.5 137.854C221.362 128.945 238 113.324 238 109.218C238 106.864 233.487 98.17 228.728 91.357C226.521 88.196 210.266 71.7601 192.607 54.8321C141.723 6.05506 141.21 5.59006 135.485 2.96806C128.614 -0.176941 119.156 -0.910934 112.579 1.19107ZM557.338 19.6691C555.858 21.9051 553.399 24.3801 551.873 25.1691C547.411 27.4771 538.311 26.9161 527.338 23.6561C509.072 18.2301 497.301 17.5381 485.827 21.2161C480.269 22.9971 473.875 29.4231 471.996 35.1161C469.949 41.3191 471.271 55.3521 475.008 67.1041C478.437 77.8831 480.206 80.7981 482.142 78.8621C483.017 77.9871 482.672 75.8091 480.724 69.9051C475.109 52.8921 476.209 43.144 484.266 38.529C488.101 36.333 489.584 36.1111 500 36.1761C506.467 36.2171 515.159 36.9831 519.86 37.9261C530.599 40.0811 536.179 40.0031 543 37.6041C549.537 35.3051 550 35.2501 550 36.7861C550 38.8141 542.118 57.4791 535.086 72.1041C517.98 107.679 497.543 138.416 479.98 154.984C459.594 174.215 434.641 183.051 401 182.951C361.773 182.834 331.916 170.398 321.871 149.993C312.377 130.708 324.044 111.289 353.381 97.5491C370.712 89.4321 389.661 86.103 413.986 86.904C438.912 87.725 454.411 91.9621 462.659 100.211C468.139 105.691 469.022 109.861 466.017 116.068C459.947 128.608 438.742 138.16 411.802 140.49C398.666 141.627 383.596 140.607 375.389 138.025C369.63 136.214 363 131.047 363 128.371C363 125.103 367.192 121.623 373.804 119.401C379.982 117.325 382.433 117.14 405.5 117.013C426.893 116.894 430.543 116.657 430.798 115.369C430.971 114.497 430.129 113.602 428.798 113.243C423.841 111.906 398.065 111.406 388 112.45C374.235 113.879 367.796 115.89 362.94 120.277C359.503 123.382 359 124.392 359 128.186C359 133.909 362.682 138.138 371.866 142.964C382.912 148.769 393.918 150.922 409.5 150.327C430.758 149.515 448.031 143.119 460.522 131.435C472.465 120.263 475.366 109.29 469.267 98.3601C461.446 84.3431 436.638 73.598 412.119 73.607C379.514 73.619 348.139 85.2991 328.99 104.553C317.227 116.381 312.048 128.46 312.015 144.144C311.984 158.809 316.307 169.099 326.92 179.618C335.589 188.212 344.417 193.077 358.088 196.793C369.314 199.845 394.864 200.066 408 197.225C435.939 191.181 467.522 175.834 491 156.891C507.606 143.492 524.114 124.49 534.023 107.366C539.105 98.5831 540.58 97.9831 547.477 101.89C555.714 106.555 558.904 118.313 558.973 144.266C559.055 175.098 569.325 188.519 585.645 179.122C590.996 176.041 606.054 161.222 612.833 152.365C615.991 148.239 616.99 146.148 616.516 144.654C616.158 143.526 615.465 142.604 614.975 142.604C614.486 142.604 611.498 145.866 608.335 149.854C600.436 159.812 592.053 168.524 588.7 170.259C581.84 173.807 578.661 168.07 576.98 149.104C576.346 141.954 575.197 132.729 574.427 128.604C572.665 119.169 567.016 107.5 562.445 103.852C560.55 102.341 559 100.634 559 100.06C559 99.4861 561.529 98.4861 564.619 97.8381C572.813 96.1201 583.958 90.2391 590.862 83.9911C598.575 77.0111 603.824 69.0121 613.808 49.0261C623.337 29.9511 625.825 26.6041 630.48 26.6041C633.397 26.6041 633.969 27.069 635.374 30.581C639.257 40.284 649.009 34.7351 645.653 24.732C642.084 14.0931 626.651 14.0321 614.783 24.6101C607.802 30.8321 604.148 36.3371 593.469 56.7211C584.44 73.9561 582.14 77.5231 575.6 84.4381C568.078 92.3901 557.744 95.8421 546.507 94.1571C542.722 93.5901 541.912 93.1261 542.348 91.7781C542.646 90.8571 544.3 86.2791 546.022 81.6041C547.745 76.9291 551.167 64.7791 553.627 54.6041C556.087 44.4291 559.262 32.1981 560.683 27.4241C564.237 15.4861 562.607 11.7081 557.338 19.6691ZM866.825 98.0281C860.899 100.106 852.777 107.315 845.173 117.248C841.643 121.859 841.317 123.128 843.453 123.948C844.402 124.312 847.053 121.954 851.084 117.161C854.481 113.121 859.389 108.193 861.989 106.21C871.312 99.101 872.54 102.728 865.183 115.646C847.784 146.198 843 156.573 843 163.757C843 168.828 846.506 174.962 850.75 177.314C861.131 183.068 879.139 179.798 889.721 170.237C894.388 166.021 899.506 156.839 900.463 150.967C901.397 145.24 899.529 139.196 895.423 134.65C891.136 129.906 886.457 127.604 881.099 127.604C878.844 127.604 877 127.238 877 126.791C877 126.344 878.187 123.532 879.638 120.541C883.054 113.501 883.709 107.877 881.591 103.779C878.688 98.165 872.882 95.9041 866.825 98.0281ZM937 98.1321C927.9 100.94 909.215 119.748 912.087 123.209C912.724 123.976 913.532 124.604 913.883 124.604C914.234 124.604 916.911 121.469 919.833 117.638C928.057 106.855 942 98.6321 942 104.566C942 108.117 937.899 117.736 924.355 145.956C917.002 161.275 910.711 174.906 910.374 176.248L909.762 178.689L918.018 178.396L926.274 178.104L934.934 164.052C950.905 138.135 973.208 111.5 984.262 105.139C989.91 101.89 992.54 102.316 991.536 106.318C991.164 107.801 984.304 122.534 976.291 139.059C962.612 167.272 958 177.147 958 178.226C958 178.477 961.887 178.552 966.637 178.393L975.273 178.104L984.079 163.816C994.887 146.278 1006.34 131.496 1019.5 118.096C1033.85 103.482 1043.24 98.6701 1041.62 106.752C1041.28 108.467 1036.53 118.247 1031.06 128.487C1020.17 148.899 1017.52 154.938 1016.5 161.734C1014.35 176.113 1025.46 184.221 1037.05 176.734C1042.5 173.219 1046.32 169.218 1052.95 160.104C1057.84 153.388 1058.75 150.687 1056.42 149.909C1055.82 149.71 1052.1 153.783 1048.16 158.959C1040.65 168.817 1036.05 173.051 1031.64 174.159C1026.34 175.489 1028.1 169.89 1041.66 142.349C1055.91 113.393 1057.2 108.895 1053.11 102.282C1048.79 95.3001 1040.9 95.1421 1031.15 101.843C1024.67 106.293 1010.56 120.143 1004 128.498C999.062 134.786 996 137.171 996 134.729C996 134.248 997.588 130.369 999.529 126.11C1001.47 121.852 1003.77 115.79 1004.65 112.641C1006.11 107.374 1006.11 106.638 1004.6 103.466C1002.62 99.2941 998.386 96.6041 993.792 96.6041C985.722 96.6041 973.029 106.394 958.344 123.943C951.17 132.517 948 135.197 948 132.689C948 132.105 949.575 127.823 951.5 123.172C957.403 108.912 955.601 100.254 946.186 97.6391C941.853 96.4351 942.634 96.3931 937 98.1321ZM1200.99 97.4871C1188.17 101.651 1165.65 123.604 1174.19 123.604C1174.78 123.604 1178.02 120.598 1181.38 116.923C1188.57 109.077 1198.01 102.604 1202.28 102.604C1205.16 102.604 1205.24 102.726 1204.65 106.354C1204.32 108.417 1201.05 118.429 1197.39 128.604C1185.71 161.045 1176.18 190.223 1172.29 205.382C1169.05 218.02 1168.51 221.661 1168.51 231.104C1168.5 240.114 1168.86 242.828 1170.5 246.104C1173.76 252.628 1175.01 251.38 1177.49 239.104C1178.71 233.054 1180.9 224.279 1182.35 219.604C1186.98 204.619 1197.72 176.198 1198.89 175.809C1199.51 175.602 1202.06 176.422 1204.55 177.63C1211.19 180.842 1220.41 180.615 1227.68 177.062C1242.94 169.595 1259.55 146.407 1265.05 124.893C1267.61 114.907 1267.53 109.915 1264.72 104.617C1260.55 96.7221 1252.39 94.7281 1244.42 99.6561C1239.18 102.892 1227.92 115.472 1221 125.819C1217.42 131.163 1213.94 135.55 1213.25 135.569C1211.54 135.617 1211.48 135.941 1216.19 121.898C1220.23 109.85 1220.32 109.277 1218.94 105.351C1218.15 103.115 1216.31 100.407 1214.86 99.335C1211.94 97.172 1204.86 96.2291 1200.99 97.4871ZM1325.67 98.1831C1318.05 100.026 1303.67 107.502 1297.42 112.862C1280.4 127.454 1270 146.392 1270 162.801C1270 179.24 1278.56 184.059 1291.7 175.012C1297.85 170.773 1314.65 153.441 1321.77 143.982C1326.09 138.241 1329 136.072 1329 138.592C1329 139.136 1327.45 143.316 1325.56 147.882C1320.98 158.953 1319.24 168.344 1320.98 172.552C1324.85 181.9 1335.4 181.986 1345.35 172.752C1350.15 168.299 1362.26 150.713 1361.63 149.092C1360.6 146.401 1359.15 147.509 1353.42 155.354C1345.6 166.06 1338.1 173.604 1335.28 173.604C1330.31 173.604 1332.1 168.372 1352.11 124.326C1357.55 112.348 1362 101.918 1362 101.148C1362 100.179 1360.23 99.5651 1356.25 99.1551C1353.09 98.8281 1347.49 98.1211 1343.81 97.5831C1335.38 96.3501 1332.9 96.4321 1325.67 98.1831ZM646.5 99.2551C642.174 101.521 633.467 110.24 629.328 116.451C626.067 121.343 625.9 121.933 627.359 123.391C628.235 124.268 629.104 124.787 629.289 124.544C629.474 124.302 631.769 121.049 634.39 117.316C640.245 108.976 648.213 102.374 651.905 102.803C656.57 103.344 655.093 108.189 642.958 132.143C632.533 152.723 631.723 154.738 631.255 161.286C630.393 173.333 634.135 179.604 642.185 179.604C649.465 179.604 656.489 174.502 668.695 160.346C673.078 155.263 679.945 146.717 683.954 141.354C687.963 135.991 691.864 131.604 692.622 131.604C694.439 131.604 694.364 132.604 692.118 138.317C691.083 140.95 688.329 148.504 685.999 155.104L681.762 167.104L660.915 187.415C649.449 198.586 637.792 210.736 635.011 214.415C618.419 236.363 619.317 253.588 637.054 253.6C657.542 253.614 677.269 225.156 697.541 166.345L701.249 155.586L709.875 147.453C719.644 138.242 720.193 137.535 719.035 135.66C718.386 134.61 717.202 135.124 713.746 137.956C707.102 143.4 705.871 142.944 708.416 135.98C716.224 114.609 721 100.902 721 99.8621C721 98.9661 718.916 98.609 713.75 98.62L706.5 98.6361L702 106.796C687.791 132.559 653.679 173.604 646.477 173.604C643.815 173.604 643.754 173.478 644.26 168.992C644.604 165.94 648.173 157.4 654.813 143.742C666.337 120.037 667 118.246 667 110.837C667 105.818 666.681 105.05 663.118 101.486C659.652 98.02 658.713 97.6081 654.368 97.6441C651.69 97.6661 648.15 98.3911 646.5 99.2551ZM806.973 99.253C799.155 104.468 790.035 115.367 772.791 140.104C753.693 167.501 748.906 172.604 742.306 172.604C739.616 172.604 739 172.213 739 170.508C739 169.356 739.946 167.085 741.101 165.462C743.976 161.424 744.696 155.315 742.663 152.212C739.131 146.822 730.178 148.541 727.421 155.138C724.705 161.64 726.172 168.879 731.312 174.335C741.324 184.963 751.558 178.978 770.557 151.382C792.906 118.919 805.564 103.604 810.045 103.604C813.53 103.604 812.311 108.773 806.004 120.734C788.562 153.812 784.986 163.125 786.94 170.382C789.176 178.686 797.681 181.873 806.375 177.665C811.388 175.238 820.418 166.065 826.436 157.288C829.963 152.143 830.213 151.389 828.846 150.022C827.48 148.655 826.87 149.099 822.968 154.3C812.529 168.219 802.103 176.901 799.898 173.514C798.316 171.083 799.647 167.793 813.018 141.104C823.736 119.708 826.039 114.343 826.021 110.804C825.98 102.569 821.368 97.6041 813.758 97.6041C811.386 97.6041 808.332 98.346 806.973 99.253ZM1088.95 100.442C1083.92 103.653 1078.01 109.808 1073.1 116.952C1070.05 121.387 1069.9 121.937 1071.36 123.393C1072.24 124.269 1073.1 124.787 1073.28 124.544C1073.46 124.302 1076.01 120.814 1078.95 116.793C1085.27 108.125 1092.01 102.604 1096.28 102.604C1099.17 102.604 1099.24 102.725 1098.67 106.354C1098.34 108.417 1093.76 118.537 1088.49 128.845C1077.42 150.471 1075 156.837 1075 164.293C1075 177.388 1083.11 183.158 1093.83 177.689C1100.91 174.081 1121.03 151.89 1133.56 133.875C1136.1 130.219 1139 128.276 1139 130.227C1139 130.57 1136.05 138.982 1132.44 148.92L1125.88 166.989L1104.53 187.809C1082.4 209.384 1074.88 218.248 1070.37 228.109C1063.5 243.105 1067.74 253.591 1080.67 253.6C1088.12 253.606 1094.18 250.579 1102.2 242.843C1114.62 230.855 1124.49 212.557 1137.93 176.604L1145.96 155.104L1155.01 146.604C1159.99 141.929 1164.04 137.316 1164.03 136.354C1163.99 133.804 1162.7 134.178 1158 138.104C1154.13 141.336 1151 142.589 1151 140.904C1151 140.519 1154.15 131.515 1158 120.895C1161.85 110.275 1165 100.915 1165 100.095C1165 98.9101 1163.51 98.606 1157.75 98.615L1150.5 98.6261L1146.62 106.02C1134.39 129.308 1097.62 173.604 1090.51 173.604C1085.32 173.604 1087.76 165.068 1099.55 141.981C1108.66 124.128 1111 117.859 1110.99 111.316C1110.98 102.498 1106.41 97.7051 1097.95 97.6391C1094.61 97.6141 1092.2 98.3651 1088.95 100.442ZM115 101.624C115 102.185 116.037 104.322 117.304 106.374C118.571 108.425 120.856 113.029 122.38 116.604C126.144 125.428 129.439 129.468 134.806 131.843C138.256 133.368 140.531 133.701 144.386 133.245C151.031 132.458 159 129.547 159 127.906C159 126.355 159.069 126.359 151.639 127.575C139.671 129.535 129.982 124.697 130.015 116.777C130.034 112.286 130.78 111.018 134.163 109.732C139.324 107.77 143.681 111.089 140.524 114.577C136.986 118.487 141.206 120.398 145 116.604C147.836 113.768 147.513 109.963 144.15 106.601C140.44 102.89 134.844 101.816 129.407 103.772C125.469 105.187 125.174 105.151 122.59 102.928C119.859 100.579 115 99.744 115 101.624ZM1330.37 104.443C1322.69 107.099 1314.33 112.496 1309.23 118.104C1295.22 133.501 1283 156.87 1283 168.261C1283 172.386 1283.15 172.604 1285.9 172.604C1291.1 172.604 1308.37 154.828 1325.8 131.548C1333.39 121.402 1343 105.938 1343 103.854C1343 102.035 1336.45 102.341 1330.37 104.443ZM93 104.194C92.175 104.491 89.588 105.417 87.25 106.251C84.879 107.098 83 108.416 83 109.232C83 110.694 83.99 110.67 93.112 108.987C97.375 108.201 104.861 110.619 108.056 113.814C111.847 117.605 112.204 123.648 108.777 126.047C105.965 128.017 101.617 128.052 100.011 126.117C98.504 124.301 99.375 121.604 101.469 121.604C102.311 121.604 103 120.929 103 120.104C103 117.898 98.376 118.228 96 120.604C89.177 127.427 100.521 136.826 111.156 133.162C115.177 131.777 115.465 131.817 118.25 134.161C120.956 136.438 126.016 137.545 125.987 135.854C125.98 135.441 123.167 129.504 119.737 122.66C112.09 107.404 108.937 104.378 100.235 103.942C97.081 103.784 93.825 103.898 93 104.194ZM1242.81 107.604C1234.85 112.879 1219.98 133.263 1207.82 155.577C1204.07 162.459 1201 168.615 1201 169.258C1201 171.266 1209.34 174.604 1214.35 174.604C1226.66 174.604 1234.86 166.144 1242.95 145.104C1251.28 123.442 1253.93 104.604 1248.64 104.604C1247.92 104.604 1245.3 105.954 1242.81 107.604ZM867.871 143.862C856.512 164.838 854.792 169.891 857.763 173.56C859.363 175.536 860.176 175.75 863.769 175.143C869.567 174.163 875.405 169.592 880.063 162.385C884.215 155.962 888 145.487 888 140.422C888 135.959 883.216 131.602 878.327 131.612L874.5 131.62L867.871 143.862ZM660.386 194.854C642.306 213.472 633 228.692 633 239.645C633 247.528 636.306 249.544 642.771 245.602C646.219 243.5 654.657 231.322 659.745 221.104C663.215 214.135 675 185.204 675 183.654C675 180.793 671.252 183.665 660.386 194.854ZM1108.91 189.854C1088.46 209.858 1077 227.898 1077 240.07C1077 244.633 1078.86 247.604 1081.7 247.604C1087.31 247.604 1097.23 234.983 1105.39 217.475C1110.2 207.163 1119 185.272 1119 183.638C1119 181.14 1115.81 183.108 1108.91 189.854Z" fill="black"/>
</svg>
