<svg width="1277" height="225" viewBox="0 0 1277 225" fill="none" xmlns="http://www.w3.org/2000/svg">
<g id="Frame 190">
<g id="Group">
<path id="Vector" d="M669.715 223.125C669.715 222.227 671.194 213.882 676.053 186.681C676.951 181.769 678.852 171.047 680.278 162.913C681.757 154.78 683.183 146.487 683.553 144.586C685.243 135.712 689.469 111.364 690.208 106.452C691.053 100.325 690.842 95.9938 689.521 93.3002C688.412 91.0818 687.409 90.2367 684.609 89.0748C682.021 87.9656 682.021 87.7543 684.187 83.6874C686.616 79.1979 693.43 74.4444 700.983 72.1204C704.997 70.8528 713.712 70.3246 717.937 71.1169C724.381 72.2789 729.768 76.5043 731.881 81.8916C732.462 83.4233 732.937 86.2226 733.096 88.441C733.254 90.6065 733.518 92.3494 733.729 92.3494C733.941 92.3494 735.261 90.7649 736.793 88.8107C738.272 86.8564 740.965 83.8459 742.867 82.1557C748.73 76.6627 753.536 73.8634 760.402 71.8035C765.631 70.2718 774.452 70.0077 779.205 71.2753C787.603 73.5465 793.836 78.9338 798.219 87.86C801.969 95.5713 802.656 99.1101 802.656 111.364C802.656 121.505 802.603 121.874 801.124 127.737C797.48 142.473 791.881 152.984 782.955 162.332C775.825 169.832 768.061 174.586 759.24 176.804C755.226 177.861 753.958 177.966 749.046 177.808C744.399 177.597 742.814 177.332 739.856 176.276C733.465 173.899 728.289 169.568 725.173 164.075C724.328 162.544 723.43 161.276 723.166 161.276C722.955 161.223 722.11 164.604 721.37 168.776C720.684 172.896 718.835 183.248 717.25 191.804C715.719 200.361 713.923 210.607 713.183 214.622C712.55 218.636 711.757 222.386 711.546 222.967L711.124 224.023H690.419H669.715V223.019V223.125ZM744.293 148.864C753.589 144.744 760.772 130.378 760.719 115.906C760.719 107.085 758.342 101.751 753.325 99.691C746.511 96.8917 737.849 101.909 732.832 111.575C729.187 118.705 727.867 124.621 727.867 133.336C727.867 138.829 728.025 140.043 728.923 142.526C730.191 145.748 733.043 148.864 735.631 149.709C737.796 150.396 741.652 150.079 744.293 148.917V148.864Z" fill="white"/>
<path id="Vector_2" d="M412.771 208.134C409.655 207.923 409.232 207.764 409.127 206.866C408.968 205.915 410.183 199.313 415.148 173.01C417.841 158.855 417.208 160.228 422.648 156.373C433.687 148.45 442.877 132.341 452.173 104.612C453.863 99.5414 456.345 90.985 457.719 85.492C460.095 75.8264 460.201 75.668 461.521 75.2982C467.807 73.6081 534.462 73.5024 548.67 75.1926C550.73 75.4039 551.1 75.668 551.1 76.4602C551.1 76.9884 550.466 80.9497 549.673 85.2279C547.93 94.6822 540.219 136.302 538.635 144.859C536.997 153.626 536.839 153.045 540.642 153.098C544.92 153.151 550.941 153.732 551.364 154.102C551.839 154.63 546.821 181.461 545.395 186.373C540.8 201.32 530.448 208.081 511.751 208.134C503.934 208.187 502.138 207.923 502.138 206.602C502.138 206.127 503.194 200.053 504.515 193.186C505.835 186.32 506.891 180.141 506.891 179.56V178.45L480.219 178.556L453.599 178.715L452.278 183.785C450.694 189.806 449.743 192.025 447.208 195.775C442.296 202.958 434.479 206.972 422.859 208.081C420.324 208.292 417.789 208.503 417.26 208.451C416.732 208.398 414.725 208.239 412.771 208.134ZM495.589 152.57C495.958 152.359 496.592 150.352 497.067 148.028C497.543 145.757 499.286 136.672 501.029 127.904C503.828 113.538 506.891 97.5343 506.891 97.2174C506.891 97.1118 503.089 97.059 498.441 97.059C492.05 97.059 489.884 97.2174 489.779 97.6928C489.673 97.9569 489.039 101.02 488.3 104.401C486.768 111.478 482.279 127.323 479.902 133.873C477.895 139.313 474.779 146.443 472.93 149.665C472.19 151.038 471.557 152.359 471.557 152.623C471.557 153.257 494.585 153.257 495.536 152.623L495.589 152.57Z" fill="white"/>
<path id="Vector_3" d="M335.125 177.988C310.882 175.611 295.723 165.259 293.241 149.308C291.973 141.015 295.776 132.617 303.065 127.547C306.075 125.487 311.885 123.48 316.85 122.899C324.826 121.948 331.798 123.691 335.178 127.494C336.868 129.396 336.868 129.501 335.442 135.892C334.438 140.223 334.491 142.072 335.6 145.505C336.762 149.361 338.4 151.315 341.516 152.899C348.382 156.227 358.153 154.114 364.386 147.935C369.245 143.128 371.569 137.688 371.569 131.244C371.516 120.734 364.016 115.769 349.386 116.614C344.104 116.878 344.051 116.878 344.051 115.874C343.998 113.55 348.012 94.6947 348.593 94.0609C349.122 93.5855 350.548 93.427 354.403 93.427C364.175 93.427 371.094 90.9446 376.587 85.4516C386.675 75.3107 385.618 58.8317 374.685 55.0817C371.252 53.9197 366.815 53.6556 363.488 54.5535C354.139 56.9303 348.593 63.374 347.22 73.7262C346.481 79.1136 345.53 80.8565 342.044 83.2861C338.558 85.6629 334.702 86.9305 329.738 87.1946C321.973 87.67 316.058 85.6629 312.097 81.3847C309.139 78.1628 308.083 75.1523 308.135 70.1346C308.188 63.1627 311.146 56.2965 316.903 49.7471C324.773 40.821 336.551 34.5357 352.079 31.1026C360.689 29.2012 365.653 28.7787 377.379 29.0956C391.64 29.3596 399.562 30.9442 408.435 35.0639C417.784 39.5006 423.805 45.6274 427.186 54.2366C428.348 57.1415 428.453 57.9338 428.453 64.4303C428.506 70.9269 428.4 71.7719 427.186 75.2579C425.073 81.4903 422.168 85.927 416.781 91.2615C411.657 96.332 407.062 99.3954 400.566 101.983C398.559 102.829 396.921 103.726 396.921 103.938C396.868 104.202 398.559 104.994 400.671 105.733C417.89 111.807 423.119 127.917 413.664 146.033C405.266 162.195 386.463 173.392 361.481 177.301C355.724 178.199 340.988 178.569 335.072 177.988H335.125Z" fill="white"/>
<path id="Vector_4" d="M600.487 177.925C591.983 177.132 582.846 174.175 576.772 170.213C570.328 166.041 563.673 157.748 561.085 150.618C557.546 141.058 557.811 126.797 561.666 116.656C567.846 100.336 579.73 87.29 595.575 79.6843C604.765 75.1949 613.374 73.0822 623.832 72.7125C645.804 71.8674 662.706 80.5822 670.681 96.7972C674.009 103.611 674.959 107.572 675.012 115.6C675.118 125.53 673.48 131.973 668.357 141.85C656.262 165.301 627.741 180.46 600.434 177.872L600.487 177.925ZM616.438 153.259C619.765 151.727 622.3 149.614 624.836 146.181C632.283 136.41 636.667 117.924 634.079 106.938C632.494 99.8077 628.586 96.0049 622.512 95.688C619.66 95.4767 618.92 95.6352 616.279 96.9556C607.881 101.075 601.174 113.91 599.061 129.808C598.427 134.773 598.744 142.431 599.8 145.812C600.751 149.033 603.022 151.991 605.61 153.364C608.515 154.896 613.005 154.896 616.385 153.259H616.438Z" fill="white"/>
<path id="Vector_5" d="M855.807 177.927C834.31 176.607 818.993 165.462 813.342 147.082C812.233 143.332 812.074 142.223 812.074 135.198C812.074 126.377 812.814 122.046 815.719 114.493C818.94 106.201 823.641 99.3877 831.088 92.1517C843.553 80.1094 858.976 73.5072 876.511 72.7678C902.709 71.7114 921.512 83.6481 927.163 105.092C928.536 110.374 928.695 120.779 927.374 126.641C921.829 152.258 899.064 172.804 871.335 177.293C865.684 178.191 862.039 178.35 855.807 177.98V177.927ZM870.543 152.997C879.786 148.402 887.286 132.821 887.92 116.976C888.29 107.944 887.128 103.032 883.8 99.1764C881.635 96.7468 879.152 95.6377 875.349 95.6377C871.23 95.6377 868.325 97.1166 864.416 101.289C857.286 108.842 853.008 120.779 852.479 134.511C852.268 140.902 852.268 141.958 853.219 144.969C855.173 151.413 858.818 154.476 864.627 154.476C867.11 154.476 868.272 154.212 870.596 152.997H870.543Z" fill="white"/>
<path id="Vector_6" d="M970.201 177.515C953.827 175.614 944.003 170.332 939.303 160.878C936.767 155.755 935.922 150.79 936.239 143.659C936.609 136.582 937.19 132.99 941.944 107.216C946.539 82.4442 948.176 74.4688 948.704 73.8878C950.025 72.5674 975.06 70.7188 991.592 70.7188C1010.39 70.7188 1019.43 71.9864 1027.19 75.6836C1036.54 80.1731 1041.13 89.152 1039.02 99.0288C1037.75 105.156 1033.79 110.807 1027.67 115.297C1026.13 116.406 1024.92 117.462 1024.92 117.673C1024.92 117.885 1026.29 118.73 1027.98 119.575C1041.13 126.071 1042.77 143.765 1031.52 157.92C1021.8 170.227 1004.16 177.146 981.662 177.727C977.384 177.832 972.208 177.727 970.201 177.515ZM989.849 153.536C996.24 151.16 1000.57 144.029 999.092 138.431C998.405 135.79 995.712 133.096 992.965 132.304C990.588 131.617 979.919 131.511 979.338 132.145C978.704 132.779 976.961 143.395 976.961 146.512C976.961 149.892 978.018 152.586 979.708 153.642C981.557 154.751 986.627 154.698 989.849 153.483V153.536ZM993.071 112.18C997.666 110.385 1000.62 106.265 1000.62 101.3C1000.68 95.0675 995.976 91.476 988.634 92.2154C986.416 92.4267 985.94 92.6379 985.729 93.483C984.673 97.8668 982.19 112.709 982.454 113.131C982.983 113.923 990.007 113.29 993.071 112.128V112.18Z" fill="white"/>
<path id="Vector_7" d="M1083.11 177.471C1065.9 175.094 1055.7 167.488 1052.48 154.707C1050.47 146.467 1051.74 136.379 1060.24 93.7554C1060.98 90.0054 1061.93 85.1462 1062.3 82.9279C1062.73 80.7095 1063.31 78.1215 1063.52 77.118L1064.05 75.375H1084.49C1103.66 75.375 1104.98 75.4278 1104.98 76.2201C1104.98 76.6426 1104.14 81.449 1103.08 86.7835C1102.02 92.1709 1101.18 96.9773 1101.18 97.5055C1101.18 98.5618 1101.28 98.5618 1106.35 97.7167C1111.48 96.8188 1120.61 96.8188 1125.79 97.7167C1130.97 98.6146 1137.15 100.886 1140.58 103.104C1144.54 105.639 1148.87 110.551 1150.77 114.565C1152.99 119.108 1153.89 123.122 1153.89 128.668C1153.89 137.224 1151.62 144.671 1146.76 152.066C1138.04 165.323 1124.79 173.351 1105.67 176.837C1101.07 177.735 1087.55 178.052 1083.11 177.471ZM1103.24 153.809C1106.99 152.277 1110.37 147.999 1112.53 142.083C1114.38 137.118 1114.91 129.777 1113.7 125.763C1112.74 122.646 1110.69 119.953 1108.04 118.58C1105.61 117.312 1098.8 117.048 1097.64 118.263C1097.27 118.685 1096.11 123.65 1094.95 129.777C1091.99 145.833 1092.2 151.168 1096 153.545C1097.85 154.601 1100.91 154.759 1103.13 153.809H1103.24Z" fill="white"/>
<path id="Vector_8" d="M1204.75 177.521C1196.57 176.412 1189.38 173.56 1182.73 168.964C1167.31 158.348 1161.71 137.697 1168.47 116.517C1171.37 107.379 1176.5 99.0343 1183.79 91.5871C1189.54 85.7243 1194.51 81.9743 1201.69 78.3827C1210.93 73.7348 1218.06 71.6749 1228.73 70.6714C1239.45 69.6679 1249.91 71.3052 1258.05 75.2137C1267.76 79.8616 1273.79 87.4145 1275.53 97.1857C1278.59 114.193 1267.13 128.137 1245.05 134.052C1235.44 136.64 1222.61 137.591 1211.41 136.482L1207.5 136.165V137.432C1207.5 139.492 1209.56 143.401 1211.73 145.514C1216.32 150.003 1223.66 152.01 1233.59 151.535C1243.42 151.059 1251.87 148.894 1261.53 144.352C1268.77 140.918 1269.82 141.764 1266.02 147.943C1256.99 162.679 1241.67 173.19 1224.19 176.887C1219.81 177.838 1209.08 178.207 1204.75 177.574V177.521ZM1224.09 115.83C1232.38 113.506 1237.45 108.277 1237.92 101.517C1238.13 99.1928 1237.92 98.2949 1237.03 96.6047C1235.49 93.5941 1233.91 92.6434 1230.32 92.4321C1227.57 92.2209 1226.88 92.3793 1224.24 93.6998C1218.43 96.4991 1213.47 102.943 1210.3 111.605C1208.61 116.2 1208.56 116.675 1209.98 116.992C1212.1 117.415 1220.76 116.728 1224.09 115.83Z" fill="white"/>
</g>
<path id="Vector_9" fill-rule="evenodd" clip-rule="evenodd" d="M67.6119 4.16429C60.9259 4.751 56.1822 5.70422 50.3881 7.62526C34.2915 12.9621 21.2987 23.9474 14.5321 37.9408C13.0678 40.9692 11.4334 45.483 10.5157 49.0339C9.59603 52.5926 8.7894 63.0684 9.14559 66.8246C10.1345 77.2518 13.1262 87.671 17.8496 97.1387L19.5039 100.454L48.9358 102.455L78.3678 104.456L82.8218 97.3581C85.5062 93.0797 87.5649 90.0896 88.0035 89.8314C88.4036 89.5957 89.1239 89.4297 89.6037 89.4624C91.1845 89.5699 91.0088 89.2533 96.0223 101.045L98.0417 105.794L103.158 106.206C106.391 106.466 108.521 106.747 108.946 106.969C109.383 107.198 110.181 108.483 111.229 110.648C112.56 113.396 112.892 113.889 113.136 113.482C113.299 113.211 116.904 100.041 121.149 84.2146C126.137 65.6129 129.046 55.2355 129.377 54.8637C130.313 53.8135 132.53 53.9427 133.292 55.0919C133.51 55.4217 133.757 56.7913 133.84 58.1358C134.042 61.3908 135.354 81.4695 135.934 90.1784C136.189 94.0006 136.72 102.281 137.115 108.579C137.51 114.877 138.04 123.042 138.292 126.723C138.545 130.404 138.888 135.443 139.056 137.921C139.408 143.111 139.531 143.98 139.873 143.703C140.147 143.481 142.666 136.644 151.235 112.87C152.153 110.325 153.899 105.486 155.116 102.116C156.334 98.7462 158.272 93.3435 159.424 90.11C162.179 82.3731 162.14 82.4598 163.125 81.8978C164.1 81.3417 165.465 81.5252 166.239 82.3163C166.494 82.5767 167.341 84.7359 168.122 87.1143C168.903 89.4927 170.993 95.8611 172.767 101.266L175.992 111.094L208.872 113.33L241.753 115.565L242.989 113.728C249.913 103.436 254.455 93.0394 256.631 82.4989C257.362 78.9601 257.923 70.7621 257.653 67.5791C256.112 49.4334 246.593 33.8615 230.62 23.3588C224.038 19.0307 216.946 16.0429 207.966 13.8145C204.432 12.9375 190.975 11.87 186.556 12.1162C168.96 13.0961 152.385 20.2619 140.423 32.0608C138.821 33.6414 137.137 35.4005 136.682 35.9701C136.221 36.5461 135.632 36.9851 135.355 36.9594C135.064 36.9322 134.227 35.9411 133.348 34.5809C130.134 29.611 123.43 22.5983 118.187 18.7218C110.3 12.8895 101.251 8.62691 91.513 6.15504C88.135 5.29787 87.2278 5.17981 79.2643 4.56301C71.8925 3.99184 70.2276 3.93475 67.6119 4.16429ZM129.445 72.6981C129.258 73.0208 126.381 83.6123 118.177 114.188C115.866 122.798 115.715 123.108 113.732 123.293C112.866 123.373 112.619 123.263 111.872 122.461C111.397 121.953 109.911 119.214 108.57 116.375C107.228 113.535 106.033 111.062 105.913 110.877C105.753 110.631 104.348 110.451 100.597 110.196C95.7417 109.865 95.4633 109.819 94.7592 109.222C94.281 108.817 93.1657 106.597 91.6033 102.943C90.2742 99.8344 89.0543 97.244 88.8919 97.1866C88.7296 97.1292 87.0655 99.5276 85.1937 102.517C83.0923 105.872 81.5027 108.116 81.0377 108.383C80.312 108.799 79.2373 108.743 51.1856 106.836C29.6607 105.372 22.0813 104.933 22.0667 105.147C22.0348 105.616 26.4046 112.674 29.5925 117.302C45.4876 140.379 72.7609 166.896 105.417 191.024C116.314 199.075 123.116 203.716 124.102 203.772C125.371 203.845 142.229 195.006 155.104 187.518C175.058 175.911 192.104 164.202 207.319 151.65C218.241 142.64 228.184 132.788 235.726 123.506C237.29 121.581 238.575 119.91 238.583 119.792C238.591 119.675 223.884 118.578 205.902 117.356C177.826 115.447 173.12 115.074 172.605 114.72C171.925 114.253 171.801 113.916 167.629 101.173C165.954 96.0565 164.532 91.8184 164.468 91.7554C164.405 91.6924 164.283 91.6921 164.198 91.7545C164.048 91.8649 161.448 98.9474 154.854 117.216C153.091 122.099 150.339 129.694 148.738 134.095C147.136 138.496 144.777 145.023 143.495 148.6C139.845 158.786 139.876 158.731 137.793 158.589C136.693 158.514 135.303 157.517 135.346 156.833C135.357 156.651 135.226 154.59 135.055 152.254C134.68 147.136 133.916 135.532 132.444 112.617C131.839 103.205 131.168 92.9546 130.951 89.8396C130.735 86.7245 130.428 82.1175 130.27 79.6016C129.905 73.8078 129.716 72.231 129.445 72.6981Z" fill="white"/>
</g>
</svg>
