<svg width="3741" height="731" viewBox="0 0 3741 731" fill="none" xmlns="http://www.w3.org/2000/svg">
<path fill-rule="evenodd" clip-rule="evenodd" d="M1091.11 228.847C1090.19 229.863 1087.91 234.476 1086.04 239.097C1084.17 243.719 1080.31 252.675 1077.46 259C1074.62 265.325 1069.6 276.8 1066.32 284.5C1038.24 350.41 973.369 451.901 913.888 523C900.329 539.207 872.249 569.401 862.409 578.354C853.395 586.554 834.591 600.594 824.294 606.81C802.037 620.247 779.223 627.305 757.975 627.327C743.776 627.341 736.561 625.747 724.846 620.006C710.176 612.818 700.645 601.753 695.835 586.326C693.551 578.998 693.273 576.699 693.709 568.699C694.281 558.197 696.933 550.541 703.484 540.487C709.003 532.015 708.646 526.991 702.525 527.007C694.833 527.026 685.228 540.01 678.859 559C676.095 567.241 676.008 568.125 676 588C675.993 607.729 676.091 608.754 678.607 615.242C682.468 625.201 687.18 632.507 694.51 639.905C702.37 647.836 709.511 652.212 721.214 656.265C736.616 661.6 757.94 661.262 777.475 655.373C800.985 648.286 821.976 636.685 845.975 617.517C886.93 584.806 927.117 537.991 984.625 456C999.552 434.719 1032.44 383.874 1036.86 375.25C1038.4 372.245 1041.48 370.729 1041.48 372.974C1041.48 373.51 1040.08 377.447 1038.38 381.724C1026.29 412.08 1012.2 454.903 1005.57 481.5C990.976 539.984 989.234 589.831 1000.97 612.994C1015.98 642.611 1052.54 638.69 1084.73 604.013C1109.78 577.019 1125.44 538.428 1127.18 499.407C1128.74 464.249 1118.6 436.122 1098.72 420.506C1089.6 413.341 1082.71 412.199 1080.31 417.454C1078.41 421.64 1080 424.416 1086.87 428.858C1097.97 436.035 1106.69 448.822 1110.54 463.577C1113.55 475.124 1114.21 495.253 1112.05 510C1109.03 530.609 1104.77 544.467 1096.06 562C1089.01 576.209 1082.86 585.298 1075.11 592.941C1054.74 613.051 1036.84 612.882 1030.55 592.52C1026.29 578.704 1025.12 567.999 1025.09 542.5C1025.05 500.563 1031.55 458.78 1046.47 405C1057.41 365.57 1066.11 344.232 1087.18 305.155C1098.83 283.554 1108.2 263.969 1111.61 254.093C1115.07 244.067 1113.58 235.72 1107.3 229.984C1104.48 227.413 1103.25 227 1098.41 227C1094.21 227 1092.36 227.468 1091.11 228.847ZM1338.96 396.102C1329.56 401.062 1325.28 407.423 1312.43 435.5C1306.9 447.6 1299.43 463.665 1295.84 471.201C1288.77 486.036 1288.54 487.954 1293.55 490.032C1299.71 492.581 1302.18 489.793 1311.96 469.25C1315.17 462.512 1318.3 457 1318.91 457C1319.52 457 1320.53 459.682 1321.15 462.961C1324.19 478.94 1335.17 482.149 1353.98 472.552C1358.93 470.026 1363.31 467.968 1363.73 467.98C1365.35 468.024 1364.19 470.695 1356.89 483.624C1347.04 501.073 1336.08 524.089 1332.46 534.919C1324.24 559.511 1327.97 577.201 1342.92 584.515C1347.99 586.997 1349.27 587.205 1356.74 586.772C1362.66 586.429 1366.94 585.494 1371.98 583.443C1387.02 577.314 1410.39 558.858 1429.97 537.648C1438.04 528.906 1441.48 526.308 1441.48 528.949C1441.48 529.472 1437.15 538.635 1431.85 549.313C1422.32 568.542 1422.24 568.764 1423.48 572.613C1426.2 581.096 1432.99 586.99 1440.05 586.996C1445.03 587.001 1446.04 585.987 1454.48 572.5C1461.95 560.583 1467.16 550.248 1474.98 531.843L1480.78 518.186L1499.38 517.806C1509.61 517.598 1518.16 517.555 1518.39 517.711C1518.62 517.867 1516.48 523.959 1513.63 531.248C1507.14 547.88 1505.21 555.51 1505.09 565C1504.98 573.989 1506.56 578.986 1511.1 584.011C1516.54 590.026 1523.19 592.428 1534.48 592.446C1545.71 592.464 1554.24 590.159 1567.8 583.435C1577.57 578.593 1582.39 575.302 1596.59 563.793C1601.87 559.507 1606.65 556 1607.2 556C1607.75 556 1608.44 558.927 1608.72 562.505C1610.42 583.673 1628.56 593.598 1647.76 583.871C1656.1 579.645 1670.18 566.968 1677.89 556.75C1681.84 551.507 1683.88 551.71 1682.91 557.25C1681.48 565.421 1682.2 577.196 1684.51 583.361C1688.46 593.928 1694.89 599.057 1706.53 600.931C1726.59 604.162 1752.04 591.508 1780.83 563.988C1786 559.045 1790.66 555 1791.19 555C1791.72 555 1792.76 556.83 1793.5 559.066C1795.26 564.411 1801.88 571.824 1806.94 574.122C1811.97 576.407 1820.82 576.538 1827.06 574.419C1834.26 571.976 1844.73 565.296 1855.32 556.385C1865.08 548.186 1888.7 525.339 1898.38 514.75C1903.11 509.573 1907.48 507.305 1907.48 510.022C1907.48 510.584 1905.74 514.522 1903.63 518.772C1901.51 523.022 1897.66 531.771 1895.08 538.214C1891.37 547.452 1890.37 551.171 1890.34 555.805C1890.31 561.846 1892.25 567.959 1895.26 571.355C1901.39 578.261 1917.81 580.148 1931.44 575.513C1945.71 570.657 1961.64 560.617 1978.26 546C1987.71 537.687 2005.91 517.315 2008.98 511.614C2010.79 508.253 2010.83 507.724 2009.44 505.225C2008.38 503.332 2006.97 502.407 2004.81 502.195C2001.98 501.918 2000.15 503.443 1984.34 519.253C1966.03 537.566 1954.72 546.786 1944.26 551.933C1935.94 556.029 1931.39 556.773 1929.04 554.422C1926.44 551.824 1927.35 546.861 1933.39 530.645C1941.79 508.104 1940.48 498.659 1928.24 493.548C1926.21 492.696 1923.18 492 1921.51 492C1917.49 492 1917.61 490.397 1922.12 483.348C1937.39 459.475 1938.34 433.156 1924.39 420.613C1917.5 414.417 1911.46 412.51 1898.98 412.596C1881.23 412.716 1868.3 417.685 1856.11 429.07C1850.57 434.239 1847.63 437.965 1845.12 442.991C1836.3 460.61 1838.48 481.631 1850.53 495.326C1855.31 500.757 1866.37 506.652 1873.56 507.606C1876.27 507.965 1878.48 508.77 1878.48 509.395C1878.48 510.548 1861.61 527.489 1849.2 538.806C1836.3 550.561 1827.88 554.607 1824.59 550.634C1823.96 549.883 1822.98 545.535 1822.41 540.972C1821.19 531.258 1820.44 529.555 1816.17 526.96C1814.42 525.897 1811.84 523.336 1810.44 521.269C1809.03 519.201 1807.18 517.373 1806.31 517.206C1805.38 517.027 1802.33 519.687 1798.86 523.701C1766.98 560.659 1741.27 580.495 1723.62 581.758C1717.51 582.195 1716.59 582.005 1714 579.771C1708.05 574.656 1709.62 561.977 1719.16 538C1728.41 514.753 1761.62 445 1763.43 445C1764.04 445 1766.16 445.675 1768.13 446.5C1770.1 447.325 1773.01 448 1774.6 448C1777.81 448 1781.48 444.931 1781.47 442.25C1781.47 439.162 1777.59 434.024 1773.97 432.297C1770.54 430.662 1770.47 430.509 1771.06 426.06C1771.56 422.274 1771.28 421.013 1769.4 418.629C1764.98 413.017 1755.63 411.376 1747.98 414.871C1743.71 416.818 1736.62 423.896 1734.16 428.652C1732.77 431.33 1732.03 431.618 1723.64 432.762C1705.7 435.205 1690.74 441.447 1673.98 453.49C1650.66 470.237 1630.7 493.732 1617.48 520C1613.43 528.065 1611.35 530.806 1603.73 538.147C1594.69 546.856 1580.53 557.857 1570.62 563.866C1562.54 568.761 1556.04 571 1549.89 571C1536.95 571 1535.62 561.013 1545.1 535C1550.08 521.339 1571.98 477.495 1583.06 459C1587.84 451.025 1592.36 443.052 1593.11 441.282C1596.1 434.225 1594.09 429.092 1587.09 425.914C1579.69 422.553 1570.77 423.998 1565.64 429.39C1561.59 433.645 1554.67 445.981 1539.71 475.656C1524.98 504.856 1528.56 501.98 1506.98 501.975C1493.37 501.973 1489.48 501.469 1489.48 499.713C1489.48 499.134 1494.88 486.814 1501.48 472.336C1510.51 452.518 1513.48 445.01 1513.48 441.957C1513.48 429.878 1498.36 420.208 1491.26 427.75C1488.54 430.644 1478.75 449.767 1468.97 471.3C1465.34 479.286 1462.37 484.507 1461.07 485.182C1456.24 487.682 1449.85 493.87 1440.78 504.838C1428.44 519.76 1402.26 545.908 1392.15 553.417C1381.72 561.16 1372.28 566.004 1367.65 565.985C1363.41 565.967 1362.22 565.343 1360.63 562.316C1355.54 552.661 1365.39 527.483 1398.68 465C1406.15 450.975 1412.58 438.028 1412.95 436.23C1413.55 433.401 1413.22 432.56 1410.48 430.005C1405.66 425.505 1396.23 423.624 1390.12 425.947C1388.75 426.467 1383.46 430.717 1378.36 435.389C1367.56 445.298 1360.9 449.278 1354.9 449.408C1347.19 449.576 1343.48 443.785 1343.48 431.581C1343.48 419.269 1345.82 411.022 1351.12 404.673C1354 401.217 1354.11 398.633 1351.48 396C1348.87 393.393 1344.02 393.433 1338.96 396.102ZM1201.44 433.75C1196.43 436.37 1195.75 437.233 1187.2 452C1168.12 484.956 1153.85 514.58 1146 537.506C1142.99 546.279 1142.14 550.419 1141.78 558C1141.37 566.502 1141.57 567.973 1143.65 572C1148.24 580.886 1160.55 583.541 1171.5 578.009C1179.17 574.143 1189.3 565.059 1197.65 554.574C1202.07 549.033 1206.26 544.364 1206.97 544.197C1207.98 543.961 1208.15 545.739 1207.74 552.294C1207.1 562.502 1208.87 568.762 1214.12 574.899C1219.54 581.23 1226.22 584.18 1236.47 584.763C1254.64 585.796 1272.04 577.616 1294.98 557.257C1308.8 544.989 1327.74 522.789 1329.14 517.216C1329.64 515.212 1329.19 514.152 1327.07 512.329C1325.58 511.048 1323.53 510 1322.5 510C1321.39 510 1316.28 514.78 1309.94 521.75C1281.72 552.734 1262.88 565.735 1247.59 564.785C1242.17 564.448 1240.86 563.983 1238.9 561.713C1234.13 556.165 1234.8 546.026 1241.22 526.605C1245.39 513.961 1258.09 487.735 1268.37 470.53C1272.31 463.947 1276.03 456.891 1276.64 454.852C1279.58 445.025 1270.34 431.015 1260.9 431.004C1255.68 430.997 1252.59 435.491 1234.82 469C1210.91 514.065 1185.65 550 1177.89 550C1175.27 550 1175.22 549.888 1175.84 545.34C1177.4 534.003 1193.98 498.857 1215.4 461.5C1228.75 438.205 1229.7 435.201 1224.53 432.526C1222.66 431.559 1218.85 431 1214.14 431C1207.97 431 1205.81 431.468 1201.44 433.75ZM1880.98 433.892C1869.05 436.965 1864.84 444.219 1865.73 460.12C1866.7 477.453 1875 488.456 1888.65 490.503L1893.28 491.197L1895.87 486.769C1900.52 478.828 1902.66 471.162 1903.21 460.393C1903.76 449.678 1902.83 444.823 1899.26 439.735C1895.8 434.801 1887.6 432.183 1880.98 433.892ZM1713.74 450.421C1704.12 453.997 1696.76 458.81 1688.42 467C1662.05 492.862 1636.39 547.031 1645.3 558.026C1647 560.126 1647.37 560.188 1651.05 558.978C1659.68 556.131 1676.68 536.486 1693.42 510C1703.25 494.451 1724.48 453.18 1724.48 449.612C1724.48 447.385 1721.26 447.627 1713.74 450.421Z" fill="white"/>
<path fill-rule="evenodd" clip-rule="evenodd" d="M2943.39 403.598C2940.42 404.839 2937.48 409.045 2929.02 424.138C2909.94 458.193 2900.42 471.35 2882.2 488.881C2867.83 502.712 2853.92 510.777 2837.76 514.652C2827.96 517 2819.03 517.302 2819.03 515.284C2819.03 514.539 2821.09 509.519 2823.61 504.129C2837.62 474.16 2841.17 443.145 2832.26 428.716C2826.52 419.432 2819.09 415.44 2806.43 414.842C2796.02 414.351 2789.12 415.911 2779.78 420.866C2772.15 424.917 2760.59 437.115 2755.83 446.138C2752.43 452.591 2751.63 453.399 2745.63 456.473C2738.33 460.215 2728.04 470.319 2721.05 480.607C2716.83 486.821 2707.07 506.11 2707.05 508.29C2707.04 508.924 2702.64 513.597 2697.28 518.676C2665.67 548.61 2641 561.217 2635.37 550.318C2631.53 542.905 2635.8 528.894 2655.06 485.683C2671.41 449.002 2673.26 443.666 2673.42 432.969C2673.51 426.164 2673.19 424.337 2671.47 422.03C2667.19 416.286 2664.57 415.138 2655.71 415.138C2648.22 415.138 2646.9 415.458 2640.03 418.945C2626.29 425.918 2606.27 444.072 2592.03 462.457C2585.37 471.053 2583.57 471.652 2584.71 464.888C2585.99 457.247 2585.44 444.383 2583.6 438.839C2579.22 425.651 2563.53 420.924 2548.53 428.27C2538.9 432.986 2526.68 445.616 2515.03 462.899C2511.03 468.828 2508.03 471.333 2508.03 468.737C2508.03 468.241 2510.05 462.623 2512.51 456.253C2519.37 438.502 2524.03 423.958 2524.03 420.31C2524.03 413.473 2514.39 408.388 2505.8 410.699C2499.46 412.409 2497.36 414.271 2491.09 423.79C2486.37 430.965 2485.13 433.717 2484.55 438.332C2483.63 445.694 2479.18 460.516 2474.12 473.087L2470.11 483.035L2451.82 501.422C2424.93 528.459 2407.38 542.383 2388.8 551.442C2371.49 559.878 2357.57 560.89 2350.18 554.249C2344.82 549.421 2343.53 545.098 2343.59 532.138C2343.64 522.388 2344.15 518.323 2346.3 510.456C2356.3 473.896 2374.61 443.816 2389.37 439.683C2394.27 438.31 2399.63 438.859 2404.15 441.199C2407.7 443.036 2411.03 448.584 2413.06 456.062C2414.33 460.725 2415.31 462.434 2417.3 463.411C2423.22 466.311 2434.64 461.238 2438.78 453.874C2441.42 449.18 2442.99 439.902 2442.04 434.685C2441.11 429.599 2436.75 422.284 2433.09 419.682C2428.28 416.256 2422.23 414.638 2414.22 414.638C2375.2 414.638 2327.43 458.222 2309 510.638L2305.31 521.138L2294.42 530.96C2282.69 541.537 2268.11 551.843 2258.51 556.338C2253.32 558.77 2251.32 559.138 2243.3 559.138C2234.58 559.138 2233.93 558.989 2231.34 556.399C2227.54 552.606 2226.99 543.212 2229.87 531.797C2234.14 514.904 2247.93 486.217 2264.61 459.499C2268.61 453.097 2272.31 446.287 2272.84 444.365C2275.64 434.234 2267.34 421.01 2257 419.138C2254.27 418.643 2252.87 418.976 2250.79 420.617C2247.48 423.215 2240.28 434.773 2228.03 457.138C2203.5 501.939 2172.99 543.655 2164.78 543.642C2161.07 543.637 2161.14 540.963 2165.15 529.283C2171.17 511.748 2186.1 482.763 2207.93 446.237C2219.19 427.405 2220.16 424.077 2215.33 420.911C2213.27 419.563 2210.57 419.138 2204.08 419.138C2194.63 419.138 2187.75 421.145 2184.28 424.913C2180.35 429.19 2162.61 460.336 2150.55 484.138C2137.8 509.317 2131.86 523.248 2127.59 538C2122.89 554.284 2124.66 567.472 2132.31 573.049C2136.21 575.892 2147.11 576.439 2154.03 574.139C2163.6 570.96 2178.55 557.866 2192 540.888C2197.12 534.418 2198.21 535.115 2197.43 544.388C2196.18 559.38 2202.1 571.373 2213.57 577.093C2221.81 581.206 2235.91 581.891 2247.4 578.737C2261.02 575.001 2278.77 564.614 2293.53 551.747C2297.38 548.391 2301.26 545.643 2302.15 545.641C2303.34 545.639 2303.95 546.948 2304.42 550.514C2305.35 557.504 2310.37 566.888 2315.7 571.576C2324.6 579.409 2340.21 582.876 2356.8 580.706C2383.47 577.217 2407.39 563.709 2439.67 533.92C2445.8 528.265 2451.36 523.638 2452.04 523.638C2453.82 523.638 2453 526.282 2446.13 542.801C2442.78 550.866 2440.04 558.741 2440.04 560.301C2440.05 563.981 2445.19 572.902 2448.75 575.434C2452.84 578.338 2458.58 579.692 2461.9 578.535C2464.08 577.775 2466.25 574.729 2472.02 564.353C2502.82 508.958 2521.06 480.347 2537.96 460.95C2546.5 451.144 2552.44 446.638 2556.83 446.638H2560.29L2559.82 453.888C2558.99 466.417 2551.55 485.325 2528.62 533.113C2523.34 544.1 2519.03 554.271 2519.03 555.716C2519.03 558.785 2522.43 564.14 2526.11 566.864C2531.67 570.983 2541.72 571.043 2546.2 566.983C2547.32 565.975 2552.89 555.923 2558.58 544.644C2574.08 513.95 2587.16 493.147 2602.62 474.638C2615.42 459.313 2629.09 446.638 2632.82 446.638C2636.53 446.638 2631.65 460.832 2616.49 494.138C2599.86 530.69 2597.05 538.772 2597.07 550.138C2597.08 560.255 2602.63 568.735 2612.03 572.981C2618.26 575.797 2632.19 576.372 2641.53 574.199C2655.95 570.845 2672.32 561.024 2690.53 544.794C2694.93 540.873 2699.09 537.66 2699.78 537.652C2700.56 537.643 2701.04 539.055 2701.05 541.388C2701.07 547.152 2703.79 557.432 2706.73 562.825C2715.82 579.522 2735.58 585.433 2757.23 577.928C2772.33 572.694 2787.56 559.925 2801.69 540.67L2807.53 532.704L2817.17 532.671C2828.87 532.631 2840.98 530.451 2851.03 526.577C2859.02 523.496 2876.84 513.117 2881.09 509.073C2883.63 506.649 2886.03 505.876 2886.03 507.481C2886.03 507.945 2881.39 517.957 2875.73 529.731C2870.06 541.505 2863.87 554.638 2861.98 558.917C2858.84 565.995 2856.87 568.427 2840.13 585.917C2795.6 632.433 2768.41 666.822 2757.05 690.968C2751.61 702.533 2750.03 708.165 2750.03 716.016C2750.03 722.322 2751.1 725.702 2753.99 728.598C2755.81 730.412 2757.29 730.638 2767.38 730.638C2777.63 730.638 2779.2 730.39 2783.53 728.086C2807.95 715.105 2838.07 672.035 2877.21 594.138C2884.4 579.838 2890.45 567.95 2890.65 567.721C2890.86 567.491 2896.13 568.3 2902.35 569.517C2923.1 573.577 2949.52 572.351 2973.77 566.203C3002.9 558.82 3038.38 541.796 3060.76 524.462C3066.86 519.741 3069.03 518.713 3069.03 520.555C3069.03 521.059 3067.39 526.347 3065.38 532.305C3062.39 541.164 3061.66 544.96 3061.33 553.138C3060.97 562.184 3061.15 563.511 3063.23 567.044C3067.22 573.818 3069.94 575.139 3079.86 575.129C3087.39 575.122 3089.25 574.752 3094.01 572.306C3102.47 567.958 3112.49 559.179 3122.45 547.392C3127.45 541.482 3132.01 536.644 3132.59 536.642C3133.28 536.639 3133.63 540.602 3133.59 547.888C3133.54 557.717 3133.82 559.671 3135.79 563.36C3141.99 574.967 3150.07 579.704 3164.9 580.418C3183.03 581.291 3199.34 575.143 3219.8 559.721C3226.25 554.858 3232.39 549.924 3233.44 548.758C3236.03 545.869 3237.88 546.096 3238.56 549.388C3241.36 563.032 3246.46 569.838 3256.42 573.226C3274.46 579.366 3294.94 567.011 3337.25 524.464C3349.29 512.354 3356.69 505.638 3358 505.638C3359.12 505.638 3360.03 505.996 3360.03 506.434C3360.03 506.872 3356.65 514.485 3352.51 523.352C3343.22 543.269 3341.29 550.315 3342.9 558.358C3346.79 577.73 3369.63 582.125 3397.37 568.844C3415.5 560.164 3441.29 538.326 3458.11 517.423C3465 508.854 3466.03 507.058 3466.03 503.63C3466.03 500.263 3465.59 499.464 3463.03 498.138C3458.67 495.882 3456.31 497.476 3444.53 510.66C3427.27 529.976 3405.44 547.537 3393.46 551.746C3386.84 554.074 3384.65 554.117 3382.5 551.961C3379.93 549.398 3381.33 542.143 3387.18 527.638C3393.52 511.894 3394.5 503.65 3390.86 496.696C3388.13 491.495 3383.69 488.859 3376.16 487.967C3373.14 487.609 3371.03 486.86 3371.03 486.147C3371.03 485.48 3373.06 481.842 3375.55 478.062C3384.86 463.873 3389.34 446.785 3387.17 433.663C3383.97 414.299 3372.51 405.638 3350.09 405.638C3318.52 405.638 3292.57 425.552 3287.85 453.388C3283.84 477.055 3299.39 499.479 3322.84 503.84C3326.91 504.596 3329.03 505.468 3329.03 506.382C3329.03 509.061 3296.12 539.745 3285.98 546.512C3279.62 550.76 3275.17 551.716 3273.14 549.271C3272.52 548.519 3271.4 543.484 3270.65 538.082C3269.37 528.874 3269.07 528.06 3265.77 525.033C3263.83 523.258 3261.46 520.479 3260.5 518.857C3258.54 515.533 3254.22 512.638 3251.22 512.638C3250.01 512.638 3244.83 516.986 3238.16 523.597C3220.44 541.157 3203.65 553.462 3191.66 557.678C3185.63 559.796 3174.9 560.298 3170.6 558.663C3155.61 552.965 3166.85 514.997 3199.23 461.966C3208.7 446.455 3209.46 444.819 3209.46 440.074C3209.46 429.548 3201.03 419.513 3192 419.276C3188.32 419.179 3187.38 419.631 3184.66 422.814C3182.94 424.821 3176.16 436.065 3169.6 447.801C3154.45 474.921 3151 480.68 3138.57 499.638C3121.44 525.767 3105.94 543.638 3100.42 543.638C3097.85 543.638 3097.78 543.494 3098.37 539.165C3100.28 525.257 3120.92 483.554 3145.19 444.558C3154.8 429.12 3155.83 426.504 3153.64 423.16C3150.22 417.949 3134.59 417.169 3125.35 421.75C3121.04 423.887 3119.72 425.452 3112.79 436.638C3108.54 443.513 3100.29 457.762 3094.47 468.303L3083.89 487.468L3073.21 496.4C3053.81 512.63 3037.66 523.556 3018.8 533.208C3007.73 538.873 2991.28 545.638 2988.57 545.638C2985.64 545.638 2987.06 542.38 2992.56 536.433C3012.36 515.051 3023.54 485.175 3017.08 470.947C3013.78 463.665 3003.88 460.315 2992.47 462.614C2979.04 465.318 2954.97 479.183 2936.68 494.754C2931.27 499.365 2926.23 503.572 2925.48 504.103C2922.52 506.212 2922.72 503.169 2925.93 497.312C2932.72 484.902 2949.03 456.736 2958.41 441.209C2969.45 422.937 2969.8 421.423 2964.69 413.997C2959.35 406.223 2949.08 401.213 2943.39 403.598ZM2952.03 502.797C2956.16 499.69 2963.09 495.008 2967.44 492.393C2971.79 489.778 2976.46 487.638 2977.82 487.638C2980.11 487.638 2980.25 487.908 2979.69 491.333C2978.85 496.532 2971.91 510.588 2965.23 520.63C2962.12 525.31 2955.06 533.671 2949.55 539.211C2937.19 551.636 2930.81 555.201 2921.29 554.999C2913.44 554.833 2902.03 552.725 2902.03 551.44C2902.03 548.208 2937.31 513.885 2952.03 502.797ZM2825.9 624.388C2792.93 662.761 2774.56 691.197 2772.36 707.258C2771.9 710.631 2772.11 711.73 2773.31 712.191C2780.94 715.118 2799.43 688.85 2826.11 637.182C2831.57 626.615 2836.03 617.445 2836.03 616.804C2836.03 613.915 2832.86 616.29 2825.9 624.388ZM2735.34 544.417C2734.46 532.608 2739.8 509.949 2746.66 496.388C2747.98 493.776 2749.63 491.638 2750.31 491.638C2751 491.638 2752.34 493.838 2753.3 496.526C2757.24 507.633 2766.52 518.031 2778.27 524.522C2780.87 525.961 2783.01 527.758 2783.02 528.517C2783.06 532.543 2768.08 551.004 2760.74 555.982C2753.27 561.043 2747.94 562.251 2743.25 559.942C2738.19 557.449 2735.99 553.133 2735.34 544.417ZM2787.03 436.756C2777.64 440.482 2770.03 456.315 2770.03 472.138C2770.03 485.824 2774 495.762 2783.08 504.843C2790.27 512.038 2792.12 512.203 2794.81 505.888C2801.23 490.783 2805.03 472.901 2805.03 457.739C2805.03 448.654 2804.7 446.397 2802.78 442.603C2799.55 436.194 2793.81 434.066 2787.03 436.756ZM3316.49 464.539C3312.18 448.316 3317.02 432.162 3327.19 428.912C3329.03 428.324 3333.17 427.796 3336.4 427.74C3343.66 427.614 3348.9 430.275 3351.9 435.613C3354.91 440.972 3356.2 451.555 3354.9 460.138C3353.68 468.09 3348.98 480.952 3345.96 484.556C3344 486.897 3343.74 486.937 3337.74 485.82C3326.93 483.81 3319.69 476.562 3316.49 464.539Z" fill="white"/>
<path d="M40.9277 67.7793H206.411V304H158.716V107.74H87.6562V208.609C87.6562 237.506 86.6895 257.701 84.7559 269.195C82.8223 280.582 78.0957 289.498 70.5762 295.943C63.1641 302.281 51.5088 305.45 35.6104 305.45C30.0244 305.45 19.873 304.913 5.15625 303.839V266.939L15.791 267.101C25.7812 267.101 32.4951 265.758 35.9326 263.072C39.3701 260.387 41.0889 253.78 41.0889 243.253L40.9277 202.647V67.7793ZM255.879 67.7793H303.574V166.393H341.924C344.717 137.281 354.976 112.896 372.7 93.2383C390.425 73.5801 416.206 63.751 450.044 63.751C482.593 63.751 508.481 74.2783 527.71 95.333C546.938 116.388 556.553 146.466 556.553 185.567C556.553 211.134 552.363 232.994 543.984 251.148C535.605 269.195 523.735 283.214 508.374 293.204C493.12 303.087 474.106 308.028 451.333 308.028C428.13 308.028 409.653 304.376 395.903 297.071C382.261 289.767 370.283 277.95 359.971 261.622C349.766 245.294 343.75 226.764 341.924 206.031H303.574V304H255.879V67.7793ZM389.619 186.212C389.619 212.423 394.829 232.672 405.249 246.959C415.669 261.139 430.332 268.229 449.238 268.229C468.682 268.229 483.237 261.192 492.905 247.12C502.681 232.94 507.568 211.725 507.568 183.473C507.568 156.402 501.929 136.583 490.649 124.015C479.478 111.446 465.137 105.162 447.627 105.162C430.547 105.162 416.582 111.554 405.732 124.337C394.99 137.013 389.619 157.638 389.619 186.212ZM606.665 67.7793H769.893V264.361H790.679V355.562H751.04V304H602.314V355.562H562.676V264.361H582.656C592.432 244.166 598.877 220.748 601.992 194.107C605.107 167.359 606.665 133.575 606.665 92.7549V67.7793ZM652.104 107.418C652.104 179.176 645.605 231.49 632.607 264.361H722.358V107.418H652.104ZM823.55 67.7793H868.184V225.045L963.896 67.7793H1011.43V304H966.797V149.796L871.245 304H823.55V67.7793ZM1152.74 67.7793H1200.44V168.326C1211.07 167.252 1218.27 164.513 1222.03 160.108C1225.79 155.704 1231.59 143.458 1239.43 123.37C1249.32 97.8037 1259.25 81.9053 1269.24 75.6748C1279.13 69.4443 1295.08 66.3291 1317.1 66.3291C1318.17 66.3291 1320.48 66.2754 1324.03 66.168V101.456L1317.26 101.295C1307.49 101.295 1300.34 102.53 1295.83 105.001C1291.32 107.364 1287.67 111.017 1284.87 115.958C1282.08 120.899 1277.94 131.051 1272.47 146.412C1269.57 154.576 1266.4 161.397 1262.96 166.876C1259.63 172.354 1253.67 177.511 1245.07 182.345C1255.71 185.353 1264.46 191.422 1271.34 200.553C1278.32 209.684 1285.95 222.574 1294.22 239.225L1326.45 304H1270.37L1242.17 242.931C1241.74 242.071 1240.83 240.406 1239.43 237.936C1238.9 237.076 1236.91 233.37 1233.47 226.817C1227.35 215.216 1222.3 207.965 1218.33 205.064C1214.46 202.164 1208.5 200.66 1200.44 200.553V304H1152.74V67.7793ZM1354.64 67.7793H1402.34V162.203H1466.15C1482.91 162.203 1497.3 164.513 1509.33 169.132C1521.47 173.644 1531.57 181.808 1539.62 193.624C1547.68 205.333 1551.71 218.814 1551.71 234.068C1551.71 250.074 1547.52 263.878 1539.14 275.479C1530.76 286.974 1521.42 294.601 1511.1 298.36C1500.9 302.12 1485.91 304 1466.15 304H1354.64V67.7793ZM1402.34 264.361H1448.91C1463.73 264.361 1474.04 263.663 1479.84 262.267C1485.75 260.763 1490.96 257.433 1495.47 252.276C1500.09 247.12 1502.4 240.836 1502.4 233.424C1502.4 222.896 1498.64 215.001 1491.12 209.737C1483.71 204.474 1470.28 201.842 1450.84 201.842H1402.34V264.361ZM1579.26 67.7793H1626.96V304H1579.26V67.7793ZM1676.59 304V67.7793H1753.12C1782.13 67.7793 1801.04 68.9609 1809.84 71.3242C1823.38 74.8691 1834.71 82.6035 1843.84 94.5273C1852.97 106.344 1857.54 121.651 1857.54 140.45C1857.54 154.952 1854.91 167.145 1849.64 177.027C1844.38 186.91 1837.67 194.698 1829.5 200.392C1821.45 205.978 1813.23 209.684 1804.85 211.51C1793.46 213.766 1776.97 214.894 1755.38 214.894H1724.28V304H1676.59ZM1724.28 107.74V174.771H1750.39C1769.18 174.771 1781.75 173.536 1788.09 171.065C1794.43 168.595 1799.37 164.728 1802.92 159.464C1806.57 154.2 1808.39 148.077 1808.39 141.095C1808.39 132.501 1805.87 125.411 1800.82 119.825C1795.77 114.239 1789.38 110.748 1781.65 109.352C1775.95 108.277 1764.51 107.74 1747.32 107.74H1724.28ZM1899.11 67.7793H2059.12V107.418H1946.81V304H1899.11V67.7793ZM2085.22 67.7793H2132.92V162.203H2196.72C2213.48 162.203 2227.88 164.513 2239.91 169.132C2252.05 173.644 2262.14 181.808 2270.2 193.624C2278.26 205.333 2282.29 218.814 2282.29 234.068C2282.29 250.074 2278.1 263.878 2269.72 275.479C2261.34 286.974 2251.99 294.601 2241.68 298.36C2231.47 302.12 2216.49 304 2196.72 304H2085.22V67.7793ZM2132.92 264.361H2179.48C2194.31 264.361 2204.62 263.663 2210.42 262.267C2216.33 260.763 2221.54 257.433 2226.05 252.276C2230.67 247.12 2232.98 240.836 2232.98 233.424C2232.98 222.896 2229.22 215.001 2221.7 209.737C2214.29 204.474 2200.86 201.842 2181.42 201.842H2132.92V264.361ZM2309.84 67.7793H2357.53V304H2309.84V67.7793ZM2440.84 132.232L2394.43 121.437C2404.42 82.9795 2432.84 63.751 2479.67 63.751C2507.39 63.751 2528.28 69.874 2542.35 82.1201C2556.53 94.2588 2563.62 108.546 2563.62 124.981C2563.62 136.261 2560.4 146.466 2553.96 155.597C2547.51 164.62 2537.84 172.569 2524.95 179.444C2540.63 184.815 2552.4 192.442 2560.24 202.325C2568.08 212.101 2572 224.186 2572 238.58C2572 259.312 2564.38 276.07 2549.12 288.854C2533.97 301.637 2511.25 308.028 2480.96 308.028C2456.25 308.028 2436.76 303.946 2422.47 295.782C2408.18 287.511 2397.44 272.096 2390.24 249.537L2433.91 235.196C2438.42 249.376 2444.38 258.561 2451.8 262.75C2459.32 266.939 2468.55 269.034 2479.51 269.034C2494.55 269.034 2505.51 265.812 2512.38 259.366C2519.26 252.813 2522.7 245.348 2522.7 236.969C2522.7 227.301 2518.77 219.513 2510.93 213.604C2503.2 207.696 2491.49 204.742 2475.81 204.742H2465.01V169.132H2470.49C2485.1 169.132 2496.27 165.855 2504 159.303C2511.74 152.75 2515.61 144.049 2515.61 133.199C2515.61 124.605 2512.44 117.354 2506.1 111.446C2499.87 105.538 2490.9 102.584 2479.19 102.584C2459.21 102.584 2446.43 112.467 2440.84 132.232ZM2756.82 217.149L2803.07 231.812C2795.98 257.594 2784.16 276.769 2767.62 289.337C2751.18 301.798 2730.29 308.028 2704.94 308.028C2673.57 308.028 2647.79 297.34 2627.59 275.963C2607.4 254.479 2597.3 225.152 2597.3 187.984C2597.3 148.668 2607.45 118.16 2627.75 96.4609C2648.06 74.6543 2674.75 63.751 2707.84 63.751C2736.73 63.751 2760.21 72.291 2778.25 89.3711C2788.99 99.4688 2797.05 113.971 2802.42 132.877L2755.21 144.156C2752.42 131.91 2746.56 122.242 2737.65 115.152C2728.84 108.062 2718.1 104.518 2705.42 104.518C2687.91 104.518 2673.68 110.802 2662.72 123.37C2651.87 135.938 2646.45 156.295 2646.45 184.439C2646.45 214.303 2651.82 235.572 2662.56 248.248C2673.3 260.924 2687.27 267.262 2704.45 267.262C2717.13 267.262 2728.03 263.233 2737.16 255.177C2746.29 247.12 2752.85 234.444 2756.82 217.149ZM2888.95 304V107.74H2818.86V67.7793H3006.58V107.74H2936.65V304H2888.95ZM3229.58 304H3177.7L3157.08 250.343H3062.65L3043.15 304H2992.56L3084.57 67.7793H3135L3229.58 304ZM3141.77 210.543L3109.22 122.887L3077.31 210.543H3141.77ZM3255.21 304V67.7793H3302.9V160.753H3396.36V67.7793H3444.05V304H3396.36V200.714H3302.9V304H3255.21ZM3706.54 304H3654.65L3634.03 250.343H3539.6L3520.11 304H3469.51L3561.52 67.7793H3611.95L3706.54 304ZM3618.72 210.543L3586.17 122.887L3554.27 210.543H3618.72Z" fill="white"/>
</svg>
