<svg width="762" height="216" viewBox="0 0 762 216" fill="none" xmlns="http://www.w3.org/2000/svg">
<path fill-rule="evenodd" clip-rule="evenodd" d="M42 33.9356C38.206 35.0946 31.854 38.5976 28.5 41.3806L25.5 43.8715L27.601 46.0086L29.701 48.1466L34.546 45.0736C43.717 39.2576 43 35.3745 43 90.8436V139.686L45.303 144.041C49.801 152.547 60.055 155.194 71.024 150.681C77.826 147.882 86 142.367 86 140.575C86 137.506 83.536 137.127 79.492 139.574C74.574 142.551 70.905 142.658 68.405 139.897C66.601 137.905 66.473 135.185 66 88.6466C65.725 61.6166 65.107 38.8916 64.627 38.1466C62.038 34.1326 49.189 31.7406 42 33.9356ZM561.424 35.0576C558.633 36.1316 554.435 38.6485 552.097 40.6495L547.845 44.2896L549.85 46.2955L551.856 48.3015L556.766 45.1506C565.727 39.4006 565 34.9055 565 96.0325V150.064L576.705 149.783L588.409 149.501L588.115 94.5005C587.902 54.6145 587.503 39.1136 586.661 38.0926C582.584 33.1456 570.25 31.6626 561.424 35.0576ZM110.5 36.9545C104.354 39.4965 101.566 47.1765 104.525 53.4125C106.617 57.8196 110.431 60.0006 116.05 60.0006C119.436 60.0006 120.826 59.3745 123.6 56.6005C126.489 53.7115 127 52.5035 127 48.5655C127 45.9435 126.284 42.8376 125.352 41.4146C122.324 36.7936 115.699 34.8045 110.5 36.9545ZM724.531 62.3056C724.331 62.9626 723.914 64.6255 723.604 66.0005C722.836 69.4145 719.323 74.9396 717.468 75.6516C716.632 75.9716 712.813 75.2266 708.982 73.9946C700.141 71.1516 687.191 71.5195 679.741 74.8255C673.272 77.6955 665.204 85.4375 662.363 91.5005C657.591 101.683 659.844 115.059 667.868 124.198C671.661 128.518 671.715 129.363 668.445 133.249C665.279 137.011 661.472 144.458 660.562 148.667C659.667 152.809 661.542 159.652 664.724 163.857C668.957 169.451 671.582 169.999 694.218 170.016C717.416 170.033 719.325 170.484 719.798 176.064C720.005 178.506 719.349 180.681 717.654 183.179L715.212 186.777L717.54 188.022C719.62 189.135 720.138 188.962 722.426 186.384C729.684 178.207 732.902 164.943 729.305 158.035C725.722 151.154 723.353 150.562 697.168 150.001C675.545 149.538 673.731 149.359 672.418 147.56C670.48 144.907 670.632 142.728 673.162 136.847C675.578 131.229 675.216 131.295 686 134.502C697.287 137.857 711.941 134.456 720.901 126.4C733.175 115.365 734.977 99.1046 725.406 85.7486C723.533 83.1346 722 80.7415 722 80.4315C722 80.1215 723.075 78.4345 724.388 76.6835C726.596 73.7415 732.382 63.0006 731.76 63.0006C731.61 63.0006 730.004 62.5756 728.191 62.0556C725.802 61.3706 724.795 61.4386 724.531 62.3056ZM102.844 72.3945C98.025 74.1155 90.938 78.3066 88.741 80.7346C87.062 82.5896 87.069 82.7525 88.892 84.4025C90.712 86.0495 91.053 85.9876 96.231 83.0656C99.218 81.3796 102.188 80.0005 102.831 80.0005C103.696 80.0005 104.001 87.4805 104.006 108.751C104.009 125.101 104.449 139.076 105.025 141.153C106.321 145.817 112.725 151.671 117.516 152.57C125.377 154.045 135.496 150.736 144.194 143.848C147.891 140.919 148.006 140.665 146.414 138.906C144.783 137.104 144.658 137.109 141.878 139.088C138.152 141.741 133.012 142.526 130.695 140.796C127.652 138.523 127.049 132.541 127.024 104.406C127.001 78.9065 126.886 77.2075 125.066 75.5605C120.418 71.3545 109.937 69.8605 102.844 72.3945ZM197.161 74.5055C194.225 75.8725 190.555 77.8926 189.007 78.9956C185.337 81.6086 184.736 81.5465 179.918 78.0565C172.62 72.7695 162.004 71.9746 151.645 75.9386C149.173 76.8846 148.883 77.3965 149.477 79.7635C150.373 83.3365 150.148 83.2545 154.314 81.5135C156.306 80.6815 158.85 80.0005 159.968 80.0005C161.972 80.0005 162 80.4825 162 115.001V150.001H174H186L186.004 120.751C186.007 93.1535 186.122 91.3125 188.03 88.1825C192.082 81.5375 203.283 79.2836 208.137 84.1376C209.877 85.8776 210 88.1185 210 118.001V150.001H221.5H233V121.235C233 88.6966 233.23 87.5455 240.604 83.2095C245.45 80.3595 252.122 80.6796 255.362 83.9156C257.42 85.9716 257.519 87.1146 258 114.456C258.469 141.117 258.626 143.034 260.559 145.681C267.9 155.739 285.178 155.057 297.978 144.205C301.004 141.64 301.281 141.045 300.106 139.629C298.35 137.513 297.355 137.576 294.273 140.001C291.286 142.35 285.266 142.647 282.441 140.583C280.626 139.258 280.468 137.424 280 112.333C279.452 82.9305 279.255 81.9166 273.061 76.7056C268.543 72.9036 263.728 71.6996 255.119 72.2176C249.149 72.5766 246.163 73.3556 241.323 75.8156C237.925 77.5426 234.861 79.4155 234.514 79.9785C233.473 81.6615 229.142 81.1335 228.106 79.1975C227.575 78.2065 224.911 76.1815 222.185 74.6975C215.328 70.9655 204.937 70.8855 197.161 74.5055ZM333.665 74.3915C322.605 79.0445 316.882 84.3036 311.709 94.5636C297.727 122.295 319.847 154.874 351.199 152.725C387.007 150.27 401.963 106.501 375.37 81.9875C367.955 75.1525 361.251 72.6305 349.5 72.2555C340.702 71.9745 338.798 72.2315 333.665 74.3915ZM455.254 73.4605C452.918 74.1905 448.829 76.1855 446.166 77.8935C443.503 79.6025 440.815 81.0005 440.192 81.0005C439.568 81.0005 437.133 79.6515 434.779 78.0035C428.404 73.5385 420.694 72.2946 412.275 74.3726C404.205 76.3646 403.276 77.1166 404.79 80.4386C405.891 82.8546 406.03 82.8855 409.43 81.4655C411.358 80.6595 413.85 80.0005 414.968 80.0005C416.972 80.0005 417 80.4825 417 115.001V150.001H428.958H440.916L441.208 120.055L441.5 90.1086L444.928 86.5735C448.971 82.4035 453.856 80.5536 458.732 81.3446C466.048 82.5316 465.997 82.3285 466.024 110.406C466.037 124.208 466.457 137.266 466.957 139.424C468.867 147.655 474.171 152.011 483.13 152.706C491.205 153.332 498.859 150.637 505.427 144.856C509.122 141.604 509.827 140.497 508.908 139.39C507.356 137.52 506.278 137.637 503.273 140.001C500.061 142.527 492.851 142.73 490.872 140.35C489.814 139.078 489.386 132.57 489 111.933L488.5 85.1665L485.487 80.8335C481.183 74.6455 475.428 71.9826 466.538 72.0676C462.667 72.1046 457.589 72.7315 455.254 73.4605ZM605.503 72.9966C605.164 73.5436 606.038 74.5165 607.444 75.1565C611.511 77.0095 610.685 80.6575 602.5 97.0005C598.375 105.237 595 112.426 595 112.976C595 113.526 597.992 120.969 601.649 129.516C608.956 146.592 611.622 150.011 619.237 152.069C626.365 153.995 637.204 150.603 645.301 143.912C648.898 140.94 649.012 140.672 647.432 138.926C645.815 137.139 645.659 137.159 642.537 139.541C637.88 143.093 633.702 142.814 630.703 138.751C628.107 135.235 619.988 115.57 619.996 112.816C619.998 111.889 624.244 102.327 629.431 91.5656L638.862 72.0005H622.49C612.701 72.0005 605.871 72.4006 605.503 72.9966ZM690.971 78.6245C678.638 86.2855 677.749 118.579 689.615 127.913C695.764 132.749 703.051 129.581 707.254 120.244C710.301 113.472 710.9 98.2706 708.429 90.4136C705.02 79.5776 697.554 74.5355 690.971 78.6245ZM342.957 80.2505C336.348 84.7045 332.031 97.1095 332.012 111.702C331.993 126.599 334.768 135.873 341.304 142.751C347.041 148.788 355.301 146.213 360.048 136.907C364.526 128.13 366.249 111.966 363.995 99.8866C362.507 91.9166 357.582 82.5235 353.6 80.0625C349.332 77.4245 347.092 77.4635 342.957 80.2505ZM521.19 130.027C518.024 131.957 515 137.106 515 140.568C515 146.455 521.174 152.201 527.5 152.201C533.826 152.201 540 146.455 540 140.568C540 134.511 533.528 128.008 527.5 128.008C525.85 128.008 523.01 128.917 521.19 130.027Z" fill="white"/>
</svg>
