<svg width="2661" height="728" viewBox="0 0 2661 728" fill="none" xmlns="http://www.w3.org/2000/svg">
<path fill-rule="evenodd" clip-rule="evenodd" d="M328.511 11.4719C263.849 21.249 217.534 38.1156 171.1 68.7948C69.2145 136.114 10.0209 244.544 10 363.898C9.98746 432.235 30.2902 498.594 69.0556 556.922C108.103 615.673 162.374 660.15 230.238 689.017C242.032 694.034 245.181 695.131 265.086 701.156C270.836 702.895 277.109 704.832 279.026 705.456C284.755 707.324 301.159 710.663 315.268 712.832C394.166 724.956 468.536 712.921 540.389 676.395C622.421 634.699 686.37 560.213 715.369 472.589C727.74 435.208 732.046 406.695 732 362.468C731.938 304.153 721.586 258.018 697.893 210.484C649.488 113.374 564.206 45.2512 458.844 19.5331C428.102 12.0281 406.946 9.78944 368.935 10.0153C351.301 10.1212 333.111 10.7763 328.511 11.4719ZM331.995 42.5637C303.768 46.1642 288.985 49.5724 261.602 58.7877C232.375 68.6234 210.753 79.4222 183.541 97.7748C122.167 139.166 74.2508 203.984 54.3314 272.559C37.4299 330.741 36.581 385.596 51.6829 443.652C65.586 497.099 92.5755 544.497 132.803 586.114C151.606 605.567 163.612 615.496 166.835 614.258C168.736 613.529 168.938 605.749 168.595 546.687L168.208 479.938L158.868 470.04C130.833 440.322 116.155 407.813 111.778 365.741C107.665 326.198 121.346 272.563 147.637 225.165C164.457 194.843 193.826 154.264 202.549 149.295C208.389 145.969 221.403 145.344 226.424 148.15C237.031 154.079 241.713 161.793 241.823 173.52C241.914 183.024 241.366 184.132 228.038 201.468C198.045 240.48 174.911 287.205 167.306 324.135C164.908 335.78 164.967 366.672 167.408 377.801C171.503 396.477 182.963 418.061 194.941 429.657L200.268 434.816L268.571 435.233L336.874 435.65L342.981 439.135C346.339 441.051 352.582 446.598 356.855 451.46C365.854 461.703 383.338 476.078 393.574 481.648C408.959 490.023 417.881 489.022 428.896 477.691C436.306 470.069 445.746 453.261 449.768 440.529C451.099 436.312 453.729 430.167 455.613 426.874C458.124 422.48 458.795 419.784 458.13 416.752C456.758 410.509 453.895 408.468 446.509 408.468C437.979 408.468 433.998 405.613 432.894 398.709C432.175 394.215 431.361 393.138 428.155 392.434C420.374 390.725 419.101 387.519 419.259 370.023C419.416 352.508 420.208 350.498 427.481 349.134C431.648 348.352 432.166 347.704 432.985 342.241C433.482 338.925 434.848 335.416 436.021 334.443C437.548 333.175 446.916 332.501 469.093 332.064L500.036 331.454L504.384 335.112C509.628 339.525 511.537 339.584 529.3 335.87C564.441 328.524 598.353 312.82 621.544 293.155C637.061 279.996 638.415 281.822 642.949 322.044C645.389 343.683 646.084 383.922 644.342 402.558C642.491 422.349 639.078 447.578 637.802 450.904C636.505 454.285 627.153 453.75 623.893 450.108C618.949 444.586 596.439 430.411 580.919 423.046C562.388 414.252 552.133 410.679 532.722 406.254C514.561 402.114 508.876 401.993 505.541 405.68C504.064 407.311 501.228 408.476 498.703 408.488C492.492 408.514 488.116 409.925 488.116 411.897C488.116 412.838 491.197 416.206 494.963 419.38C499.443 423.159 502.638 427.324 504.208 431.436C506.541 437.544 506.523 439.183 503.982 452.733C503.42 455.728 504.096 459.752 505.971 464.581C513.023 482.734 510.845 487.991 495.106 490.804L485.37 492.543L479.659 501.308C476.517 506.13 469.138 514.665 463.26 520.277C446.591 536.188 431.902 542.246 409.937 542.271C395.339 542.287 385.39 539.78 370.762 532.396C357.231 525.566 358.48 517.948 358.48 607.308V686.269L385.313 685.466C447.344 683.608 504.06 665.478 556.419 630.773C631.49 581.015 683.748 501.608 697.219 416.832C698.132 411.082 699.444 402.969 700.134 398.803C702.171 386.502 701.637 338.232 699.277 321.424C684.964 219.463 626.232 133.981 534.813 82.0553C497.389 60.7978 455.113 47.4467 407.807 41.9462C391.454 40.0449 349.036 40.3905 331.995 42.5637ZM282.511 262.105C280.977 262.764 278.201 263.347 276.34 263.401C269.93 263.586 250.615 274.182 242.535 281.945C228.992 294.958 221.982 308.245 218.232 328.014C215.871 340.461 217.011 352.405 221.901 366.448C234.201 401.773 271.804 423.981 308.475 417.58C336.402 412.704 359.17 393.77 369.892 366.509C372.337 360.292 372.875 355.83 372.984 340.862C373.1 325.053 372.694 321.584 369.805 313.68C365.507 301.92 355.839 287.353 347.596 280.219C339.449 273.167 324.135 265.422 313.158 262.802C303.983 260.612 286.89 260.223 282.511 262.105Z" fill="white"/>
<path d="M883.893 260.021C919.736 260.021 945.839 267.813 962.202 283.397C978.825 298.721 987.137 319.889 987.137 346.902C987.137 359.109 985.319 370.797 981.682 381.966C978.046 392.875 971.942 402.744 963.371 411.575C955.06 420.147 944.021 426.9 930.255 431.835C916.489 436.769 899.477 439.237 879.218 439.237H853.894V538.195H795.064V260.021H883.893ZM880.776 308.331H853.894V390.927H873.374C884.542 390.927 894.152 389.498 902.204 386.641C910.256 383.784 916.489 379.239 920.905 373.005C925.32 366.771 927.528 358.72 927.528 348.85C927.528 335.084 923.762 324.954 916.23 318.461C908.697 311.708 896.879 308.331 880.776 308.331ZM1122.69 321.578C1142.43 321.578 1159.31 325.344 1173.34 332.876C1187.62 340.408 1198.66 351.317 1206.45 365.603C1214.25 379.888 1218.14 397.42 1218.14 418.198V446.25H1081C1081.52 462.613 1086.33 475.47 1095.42 484.82C1104.77 494.171 1117.63 498.846 1133.99 498.846C1147.75 498.846 1160.22 497.547 1171.39 494.95C1182.56 492.093 1194.12 487.807 1206.06 482.093V526.897C1195.68 532.092 1184.64 535.858 1172.95 538.195C1161.52 540.793 1147.62 542.091 1131.26 542.091C1109.96 542.091 1091.13 538.195 1074.77 530.403C1058.41 522.352 1045.55 510.274 1036.2 494.171C1026.85 478.067 1022.17 457.808 1022.17 433.393C1022.17 408.459 1026.33 387.81 1034.64 371.446C1043.21 354.824 1055.03 342.356 1070.09 334.045C1085.16 325.733 1102.69 321.578 1122.69 321.578ZM1123.08 362.875C1111.91 362.875 1102.56 366.512 1095.03 373.784C1087.76 381.057 1083.47 392.355 1082.17 407.679H1163.6C1163.6 399.108 1162.04 391.446 1158.92 384.693C1156.07 377.94 1151.65 372.615 1145.68 368.719C1139.7 364.823 1132.17 362.875 1123.08 362.875ZM1458.46 325.474V538.195H1400.41V369.109H1323.26V538.195H1265.21V325.474H1458.46ZM1712.61 431.445C1712.61 449.107 1710.14 464.821 1705.21 478.587C1700.53 492.352 1693.65 504.04 1684.56 513.651C1675.73 523.001 1664.95 530.144 1652.22 535.079C1639.49 539.754 1625.08 542.091 1608.97 542.091C1594.17 542.091 1580.4 539.754 1567.68 535.079C1555.21 530.144 1544.43 523.001 1535.34 513.651C1526.25 504.04 1519.11 492.352 1513.91 478.587C1508.98 464.821 1506.51 449.107 1506.51 431.445C1506.51 407.809 1510.67 387.94 1518.98 371.836C1527.29 355.473 1539.24 343.006 1554.82 334.435C1570.4 325.863 1588.85 321.578 1610.14 321.578C1630.14 321.578 1647.81 325.863 1663.13 334.435C1678.45 343.006 1690.53 355.473 1699.36 371.836C1708.19 387.94 1712.61 407.809 1712.61 431.445ZM1565.73 431.445C1565.73 445.471 1567.16 457.288 1570.01 466.899C1573.13 476.249 1577.94 483.392 1584.43 488.327C1590.92 493.002 1599.36 495.339 1609.75 495.339C1620.14 495.339 1628.45 493.002 1634.69 488.327C1641.18 483.392 1645.86 476.249 1648.71 466.899C1651.83 457.288 1653.39 445.471 1653.39 431.445C1653.39 417.419 1651.83 405.731 1648.71 396.381C1645.86 387.031 1641.18 380.018 1634.69 375.343C1628.2 370.667 1619.75 368.33 1609.36 368.33C1594.04 368.33 1582.87 373.654 1575.86 384.303C1569.11 394.693 1565.73 410.407 1565.73 431.445ZM1879.02 321.578C1902.92 321.578 1922.27 330.928 1937.07 349.629C1951.88 368.07 1959.28 395.342 1959.28 431.445C1959.28 455.6 1955.77 475.989 1948.76 492.612C1941.75 508.975 1932.14 521.313 1919.93 529.624C1907.72 537.936 1893.57 542.091 1877.46 542.091C1867.33 542.091 1858.5 540.793 1850.97 538.195C1843.7 535.598 1837.47 532.221 1832.27 528.066C1827.08 523.91 1822.53 519.495 1818.63 514.819H1815.52C1816.56 519.754 1817.34 524.949 1817.86 530.403C1818.37 535.598 1818.63 540.793 1818.63 545.987V631.699H1760.58V325.474H1807.73L1815.91 353.135H1818.63C1822.53 347.421 1827.21 342.227 1832.66 337.551C1838.11 332.616 1844.61 328.72 1852.14 325.863C1859.93 323.006 1868.89 321.578 1879.02 321.578ZM1860.32 367.94C1850.19 367.94 1842.14 370.018 1836.17 374.174C1830.19 378.329 1825.78 384.693 1822.92 393.264C1820.32 401.576 1818.89 412.095 1818.63 424.822V431.055C1818.63 444.821 1819.93 456.509 1822.53 466.119C1825.13 475.47 1829.54 482.612 1835.78 487.547C1842.01 492.482 1850.45 494.95 1861.1 494.95C1869.93 494.95 1877.2 492.482 1882.92 487.547C1888.63 482.612 1892.92 475.34 1895.78 465.73C1898.63 456.12 1900.06 444.432 1900.06 430.666C1900.06 409.887 1896.81 394.303 1890.32 383.914C1884.09 373.265 1874.09 367.94 1860.32 367.94ZM2179.42 369.109H2109.68V538.195H2051.63V369.109H1981.9V325.474H2179.42V369.109ZM2302.52 321.578C2322.26 321.578 2339.15 325.344 2353.17 332.876C2367.46 340.408 2378.5 351.317 2386.29 365.603C2394.08 379.888 2397.98 397.42 2397.98 418.198V446.25H2260.84C2261.36 462.613 2266.16 475.47 2275.25 484.82C2284.6 494.171 2297.46 498.846 2313.82 498.846C2327.59 498.846 2340.06 497.547 2351.22 494.95C2362.39 492.093 2373.95 487.807 2385.9 482.093V526.897C2375.51 532.092 2364.47 535.858 2352.78 538.195C2341.35 540.793 2327.46 542.091 2311.09 542.091C2289.8 542.091 2270.97 538.195 2254.6 530.403C2238.24 522.352 2225.38 510.274 2216.03 494.171C2206.68 478.067 2202.01 457.808 2202.01 433.393C2202.01 408.459 2206.16 387.81 2214.47 371.446C2223.05 354.824 2234.86 342.356 2249.93 334.045C2264.99 325.733 2282.52 321.578 2302.52 321.578ZM2302.91 362.875C2291.74 362.875 2282.39 366.512 2274.86 373.784C2267.59 381.057 2263.3 392.355 2262.01 407.679H2343.43C2343.43 399.108 2341.87 391.446 2338.76 384.693C2335.9 377.94 2331.48 372.615 2325.51 368.719C2319.54 364.823 2312 362.875 2302.91 362.875ZM2563.49 321.578C2587.38 321.578 2606.73 330.928 2621.54 349.629C2636.34 368.07 2643.74 395.342 2643.74 431.445C2643.74 455.6 2640.24 475.989 2633.22 492.612C2626.21 508.975 2616.6 521.313 2604.39 529.624C2592.19 537.936 2578.03 542.091 2561.93 542.091C2551.8 542.091 2542.97 540.793 2535.43 538.195C2528.16 535.598 2521.93 532.221 2516.73 528.066C2511.54 523.91 2506.99 519.495 2503.1 514.819H2499.98C2501.02 519.754 2501.8 524.949 2502.32 530.403C2502.84 535.598 2503.1 540.793 2503.1 545.987V631.699H2445.05V325.474H2492.19L2500.37 353.135H2503.1C2506.99 347.421 2511.67 342.227 2517.12 337.551C2522.58 332.616 2529.07 328.72 2536.6 325.863C2544.4 323.006 2553.36 321.578 2563.49 321.578ZM2544.78 367.94C2534.66 367.94 2526.6 370.018 2520.63 374.174C2514.66 378.329 2510.24 384.693 2507.38 393.264C2504.79 401.576 2503.36 412.095 2503.1 424.822V431.055C2503.1 444.821 2504.4 456.509 2506.99 466.119C2509.59 475.47 2514.01 482.612 2520.24 487.547C2526.47 492.482 2534.92 494.95 2545.56 494.95C2554.4 494.95 2561.67 492.482 2567.38 487.547C2573.1 482.612 2577.38 475.34 2580.24 465.73C2583.1 456.12 2584.52 444.432 2584.52 430.666C2584.52 409.887 2581.28 394.303 2574.78 383.914C2568.55 373.265 2558.55 367.94 2544.78 367.94Z" fill="white"/>
</svg>
