<svg width="1813" height="576" viewBox="0 0 1813 576" fill="none" xmlns="http://www.w3.org/2000/svg">
<g clip-path="url(#clip0_1336_31)">
<path fill-rule="evenodd" clip-rule="evenodd" d="M174.499 95.9835C147.181 98.7985 129.205 103.911 105.999 115.464C89.648 123.605 80.318 129.741 65.852 141.87C57.412 148.946 40.759 166.694 35.707 173.997C27.798 185.43 27.639 185.69 21.806 196.755C13.524 212.465 7.536 229.114 3.733 246.997C1.68 256.651 1.5 260.155 1.5 290.497C1.499 320.946 1.674 324.324 3.76 334.196C7.965 354.097 16.29 375.334 26.049 391.055C27.946 394.113 29.949 397.338 30.499 398.223C38.359 410.875 52.389 426.744 65.499 437.812C96.614 464.082 133.129 478.712 175.999 482.086C190.82 483.252 212.166 482.748 223.999 480.951C232.671 479.635 248.08 476.339 251.499 475.069C252.599 474.66 257.324 473.087 261.999 471.572C278.312 466.287 296.044 456.768 312.499 444.461C322.84 436.726 341.823 418.849 346.174 412.748L348.134 409.998L330.158 391.248C320.272 380.935 309.689 370.06 306.642 367.081L301.101 361.666L289.119 373.217C273.325 388.445 261.618 396.252 240.999 405.308C234.421 408.197 221.507 411.056 207.574 412.708C195.692 414.117 191.867 414.183 181.506 413.155C164.923 411.51 146.037 406.327 134.706 400.311C120.091 392.551 106.219 381.16 96.379 368.84C90.273 361.195 88.799 358.829 82.513 346.585C70.625 323.426 66.918 289.444 73.121 260.497C74.459 254.256 77.812 242.159 78.943 239.497C82.986 229.978 88.912 218.856 91.416 216.088C92.287 215.127 92.999 213.919 92.999 213.405C92.999 211.77 106.27 197.382 112.499 192.263C117.645 188.035 121.865 185.077 132.523 178.227C133.61 177.528 136.074 176.283 137.999 175.459C139.924 174.636 142.849 173.307 144.499 172.507C146.149 171.707 150.93 169.953 155.123 168.608C179.994 160.631 211.778 161.227 237.499 170.153C256.032 176.584 284.714 196.273 296.633 210.747C298.558 213.085 300.669 214.997 301.324 214.997C301.979 214.997 313.254 204.25 326.381 191.116L350.246 167.234L342.373 158.989C330.898 146.974 313.067 132.162 303.247 126.487C302.285 125.932 298.799 123.885 295.499 121.94C273.908 109.211 253.337 102.077 223.499 96.9695C215.409 95.5855 184.416 94.9605 174.499 95.9835ZM762.499 195.091C734.23 200.01 712.866 209.789 692.208 227.268C663.863 251.251 646.517 285.111 642.919 323.48C639.934 355.317 647.172 385.992 664.258 413.918C673.486 429 691.13 447.162 705.5 456.37C716.911 463.682 717.337 463.943 718.999 464.63C719.824 464.971 722.749 466.271 725.499 467.517C736.577 472.539 754.294 477.209 768.973 478.977C780.431 480.356 788.522 480.249 800.999 478.552C825.33 475.243 833.783 472.396 856.999 459.691C864.83 455.406 879.771 443.148 887.847 434.384C899.692 421.529 910.95 403.483 916.162 388.997C917.251 385.972 918.554 382.597 919.057 381.497C920.746 377.81 923.034 367.587 924.523 357.073C926.415 343.713 926.4 328.976 924.483 316.423C923.103 307.391 922.565 304.791 920.458 296.997C919.357 292.922 912.747 274.582 911.989 273.497C911.604 272.947 909.583 269.354 907.498 265.512C887.766 229.164 849.358 202.254 807.529 195.47C797.657 193.868 770.821 193.643 762.499 195.091ZM1655.5 195.595C1637.16 199.018 1615.55 208.363 1601.27 219.038C1585.34 230.955 1572.93 244.379 1563.68 259.684C1558.33 268.538 1550 286.495 1550 289.166C1550 289.953 1549.62 291.025 1549.15 291.547C1548.23 292.582 1545.6 303.96 1544.07 313.497C1540.16 337.999 1543.07 367.357 1551.66 389.997C1556.28 402.173 1559.91 408.709 1571.65 425.997C1575.33 431.408 1593.95 449.445 1602 455.382C1621.95 470.106 1645.05 478.112 1672.09 479.673C1689.22 480.662 1711.97 476.765 1722.72 471.004C1724.78 469.9 1726.83 468.997 1727.27 468.997C1729.16 468.997 1743.23 458.5 1749.37 452.516C1753.04 448.93 1756.47 445.997 1756.99 445.997C1757.53 445.997 1758.06 451.779 1758.22 459.247L1758.5 472.497L1785.25 472.763L1812 473.03V336.513V199.997H1785H1758V211.997C1758 225.137 1757.42 226.208 1752.92 221.414C1744.2 212.115 1724.2 200.582 1710.31 196.843C1699.89 194.037 1667.77 193.305 1655.5 195.595ZM394.666 200.664C394.299 201.03 393.999 261.915 393.999 335.964C393.999 439.345 394.278 470.876 395.199 471.797C396.666 473.264 505.807 473.475 523.999 472.046C543.466 470.517 556.222 467.276 570.95 460.118C585.376 453.107 597.962 438.505 603.522 422.326C605.81 415.672 606.287 412.321 606.703 399.997C607.071 389.131 606.804 383.668 605.64 378.2C603.576 368.503 597.293 355.652 591.424 349.124C584.357 341.265 569.278 331.677 560.749 329.622C558.214 329.011 556.743 325.997 558.98 325.997C561.254 325.997 570.938 318.767 576.574 312.863C584.238 304.831 590.302 293.06 592.019 282.879C593.741 272.671 592.8 253.175 590.239 245.993C582.934 225.508 568.251 211.71 546.758 205.131C530.799 200.246 526.649 200.004 458.916 200C423.945 199.998 395.032 200.297 394.666 200.664ZM1078.34 203.747C1076.61 207.934 1073.75 214.468 1071.01 220.497C1070.01 222.697 1066.4 231.022 1062.99 238.997C1056.07 255.185 1041.74 288.34 1039 294.497C1038.02 296.697 1035.32 302.997 1033 308.497C1030.68 313.997 1027.98 320.297 1027.01 322.497C1026.03 324.697 1023.78 329.872 1022.01 333.997C1017.48 344.526 1016.1 347.639 1012.85 354.64C1011.28 358.019 1010 361.084 1010 361.452C1010 361.82 1008.91 364.455 1007.58 367.309C1006.25 370.162 1004.04 375.197 1002.67 378.497C1001.3 381.797 998.785 387.495 997.087 391.159C995.389 394.823 993.999 398.072 993.999 398.379C993.999 399.67 988.645 410.639 987.229 412.247C985.862 413.8 983.514 413.997 966.344 413.997H946.999V468.011V522.025L978.749 521.761L1010.5 521.497L1011 497.497L1011.5 473.497L1101.39 473.242C1166.26 473.057 1191.65 473.296 1192.62 474.099C1193.66 474.958 1194.02 480.483 1194.23 498.354L1194.5 521.497L1225.61 521.761C1251.06 521.977 1256.94 521.774 1257.87 520.648C1258.71 519.644 1258.95 505.05 1258.76 466.884L1258.5 414.497L1238.78 414.226L1219.06 413.955L1216.62 409.726C1215.28 407.4 1213.5 403.472 1212.66 400.997C1211.82 398.522 1209.77 393.72 1208.11 390.325C1206.45 386.931 1203.9 381.306 1202.44 377.825C1200.99 374.345 1198.67 369.022 1197.3 365.997C1195.92 362.972 1192.8 355.772 1190.37 349.997C1187.93 344.222 1185.52 338.597 1185 337.497C1181.41 329.833 1172 307.762 1172 306.997C1172 306.48 1171.18 304.582 1170.18 302.777C1169.18 300.973 1165.76 293.422 1162.58 285.997C1159.4 278.572 1155.99 270.697 1154.99 268.497C1150.12 257.746 1148 252.898 1148 252.492C1148 252.247 1146.65 249.1 1145 245.497C1143.35 241.894 1142 238.383 1142 237.694C1142 237.006 1141.35 235.515 1140.56 234.381C1139.76 233.248 1138.35 230.335 1137.41 227.909C1136.48 225.482 1133.98 219.776 1131.86 215.228C1129.74 210.68 1128 206.501 1128 205.942C1128 205.384 1127.27 203.817 1126.38 202.462L1124.77 199.997H1102.33H1079.9L1078.34 203.747ZM1294.24 336.234L1294.5 472.497H1328H1361.5L1362 428.497C1362.45 388.819 1362.67 384.178 1364.28 381.247C1365.25 379.456 1366.85 377.997 1367.84 377.997C1368.83 377.997 1372.04 380.96 1375.06 384.649C1381.11 392.047 1388.77 401.194 1403.1 418.143C1417.44 435.091 1434.62 455.468 1442.41 464.769L1449.33 473.018L1492.33 472.757C1521.78 472.579 1535.44 472.16 1535.69 471.427C1535.88 470.838 1531.42 465.01 1525.77 458.476C1520.12 451.942 1509.42 439.564 1502 430.97C1494.57 422.376 1482.87 408.906 1476 401.036C1469.12 393.166 1461.92 384.824 1460 382.497C1458.07 380.17 1451.04 372.018 1444.38 364.382C1437.71 356.745 1429.04 346.812 1425.12 342.308C1421.2 337.804 1418.01 333.529 1418.03 332.808C1418.05 331.609 1428.24 320.146 1480.5 262.481C1518.5 220.549 1535 201.934 1535 200.984C1535 200.351 1520.37 199.997 1494.24 199.997H1453.47L1447.99 206.326C1441.93 213.315 1409.06 249.827 1382.18 279.426C1372.66 289.915 1364.22 298.642 1363.44 298.819C1362.23 299.093 1361.98 291.865 1361.76 249.819L1361.5 200.497L1327.74 200.234L1293.99 199.97L1294.24 336.234ZM462.999 276.44C462.999 302.612 463.09 303.948 464.969 305.264C467.36 306.938 493.619 306.766 501.377 305.026C517.833 301.333 527.157 285.58 522.702 268.997C521.386 264.098 515.585 254.997 513.78 254.997C513.162 254.997 511.9 254.312 510.975 253.476C507.865 250.661 496.285 249.033 479.249 249.014L462.999 248.997V276.44ZM774.499 257.999C760.996 260.029 745.422 267.208 735.978 275.754C723.107 287.402 715.742 301.149 711.47 321.497C708.019 337.936 711.459 361.111 719.426 375.093C720.806 377.515 722.677 381.069 723.582 382.991C725.505 387.068 740.124 401.954 744.499 404.29C765.032 415.251 779.968 418.086 797.784 414.406C826.044 408.569 847.323 388.025 855.176 358.997C858.432 346.964 858.453 327.182 855.223 314.997C846.864 283.463 823.224 261.846 792.944 258.049C783.727 256.894 781.879 256.889 774.499 257.999ZM1674.48 257.985C1663.64 259.578 1654.19 263.092 1643.32 269.577C1638.06 272.712 1625.15 286.357 1622.51 291.568C1621.41 293.729 1620 296.172 1619.38 296.997C1617.64 299.274 1613.32 312.567 1611.56 320.997C1606.79 343.932 1614.15 372.854 1629.17 390.194C1640.76 403.57 1655.08 411.607 1673.38 414.998C1685.28 417.203 1701.88 414.893 1713.33 409.437C1723.52 404.58 1726.62 402.376 1735.04 393.997C1741.99 387.089 1744.35 383.905 1747.67 376.997C1752.95 365.987 1754.38 361.707 1756.92 349.171C1760.5 331.53 1754.71 305.455 1743.43 288.362C1739.79 282.838 1727.5 270.918 1723.16 268.687C1721.69 267.937 1718.7 266.297 1716.51 265.041C1710.75 261.751 1702.1 259.197 1692.72 258.021C1683.76 256.897 1681.9 256.893 1674.48 257.985ZM782.634 277.07C780.634 278.642 779.999 280.036 779.999 282.847C779.999 287.876 782.262 290.782 786.778 291.551C807.748 295.122 819.933 307.847 822.622 328.984C823.396 335.068 827.132 339.997 830.972 339.997C833.87 339.997 838.619 337.429 839.378 335.452C840.625 332.202 839.95 322.549 838.025 316.105C835.766 308.541 833.791 304.433 829.241 297.836C818.142 281.747 791.678 269.955 782.634 277.07ZM1100.14 305.247C1099.43 307.035 1097.36 312.547 1095.55 317.497C1093.74 322.447 1090.8 330.097 1089.02 334.497C1087.24 338.897 1084.53 345.872 1083 349.997C1077.24 365.534 1069.87 384.61 1068.46 387.648C1067.66 389.381 1067 391.113 1067 391.497C1067 392.151 1066.51 393.336 1062.39 402.639C1061.5 404.642 1060.54 408.017 1060.25 410.139L1059.74 413.997H1102.37C1126.04 413.997 1145 413.608 1145 413.123C1145 412.074 1142.36 404.306 1141.05 401.497C1140.54 400.397 1139.12 396.572 1137.89 392.997C1136.66 389.422 1135.35 386.047 1134.96 385.497C1134.58 384.947 1133.69 382.697 1133 380.497C1132.31 378.297 1131.41 376.047 1131.01 375.497C1130.6 374.947 1129.95 373.147 1129.56 371.497C1129.17 369.847 1128.23 367.147 1127.48 365.497C1125.19 360.453 1120.92 349.722 1119.52 345.497C1118.79 343.297 1115.01 333.172 1111.11 322.997C1107.22 312.822 1104.02 303.935 1104.01 303.247C1103.99 300.747 1101.41 302.079 1100.14 305.247ZM463.235 388.098L463.499 419.497L480.999 419.816C506.02 420.273 515.02 418.499 523.681 411.402C530.086 406.153 532.348 400.489 532.431 389.497C532.492 381.438 532.19 379.888 529.547 374.671C525.538 366.759 519.334 362.151 508.499 359.039C506.299 358.406 495.155 357.622 483.735 357.295L462.97 356.7L463.235 388.098ZM600.588 476.147C547.908 529.449 548.482 528.702 548.521 543.982C548.539 550.946 548.971 553.316 550.892 556.997C554.425 563.767 559.44 569.48 564.406 572.39C568.591 574.842 569.637 574.997 582.026 574.997C592.123 574.997 595.997 574.617 598.628 573.369C602.26 571.645 693.999 479.696 693.999 477.779C693.999 477.433 689.387 473.587 683.749 469.233C672.615 460.634 660.817 448.666 652.217 437.247C649.214 433.259 646.632 429.997 646.479 429.997C646.326 429.997 625.675 450.764 600.588 476.147Z" fill="white"/>
<g clip-path="url(#clip1_1336_31)">
<path fill-rule="evenodd" clip-rule="evenodd" d="M1494.77 18.3932C1488.53 19.3324 1483.66 21.9734 1479.73 26.5439C1478.92 27.4844 1478.13 28.2854 1477.97 28.3238C1477.77 28.3714 1477.38 27.1671 1476.75 24.5473C1476.09 21.8481 1475.67 20.5583 1475.34 20.2232C1474.87 19.7541 1474.66 19.7445 1463.29 19.6819C1456.11 19.6426 1451.49 19.7042 1451.12 19.8443C1450.79 19.9684 1450.34 20.3543 1450.11 20.7017C1449.74 21.2626 1449.69 22.0217 1449.62 27.4383C1449.52 35.4082 1449.63 35.7453 1452.28 36.2124C1454.05 36.5242 1455.03 37.1267 1455.51 38.2044C1455.87 38.9983 1455.9 41.8437 1455.9 76.6591L1455.89 114.257L1455.36 115.336C1454.79 116.529 1453.72 117.195 1451.92 117.479C1451.38 117.565 1450.65 117.875 1450.31 118.168L1449.69 118.701V125.408V132.116L1450.45 132.791L1451.21 133.466L1468.32 133.405L1485.44 133.343L1485.96 132.82C1486.48 132.302 1486.49 132.217 1486.55 125.626L1486.62 118.955L1485.98 118.314C1485.53 117.865 1484.92 117.591 1483.96 117.401C1482.25 117.065 1481.23 116.462 1480.69 115.474C1480.32 114.791 1480.27 113.888 1480.21 106.266C1480.15 99.0768 1480.19 97.8149 1480.47 97.8149C1480.65 97.8149 1480.93 97.9808 1481.1 98.1829C1481.69 98.8954 1483.97 100.52 1485.38 101.227C1489.74 103.429 1496.77 103.688 1501.71 101.829C1512.79 97.6626 1520.15 85.7796 1522.13 68.8725C1523.2 59.7594 1522.59 47.9067 1520.64 39.9213C1517.79 28.2592 1511.83 21.0326 1503.33 18.9214C1501.48 18.4632 1496.39 18.1488 1494.77 18.3932ZM1581.47 18.6064C1576.98 19.4542 1571.94 22.5451 1569.15 26.1579C1567.88 27.8101 1567.78 27.6526 1567.78 24.0995C1567.78 22.3839 1567.67 20.7907 1567.55 20.5594C1567.43 20.3281 1567 20.0245 1566.6 19.8847C1565.66 19.5593 1539.79 19.5272 1538.94 19.8502C1538.62 19.9712 1538.18 20.3545 1537.95 20.7022C1537.58 21.2727 1537.54 21.9531 1537.54 27.6687C1537.54 31.1525 1537.62 34.286 1537.71 34.6322C1537.95 35.469 1538.67 35.9058 1540.32 36.2094C1541.98 36.5157 1542.74 36.9455 1543.31 37.8857C1543.73 38.5743 1543.75 39.455 1543.75 60.6773C1543.75 81.3661 1543.72 82.7997 1543.34 83.4979C1542.85 84.3873 1541.63 85.0608 1540.07 85.2943C1539.28 85.4122 1538.73 85.6617 1538.29 86.1035L1537.65 86.7417V93.2823C1537.65 99.5312 1537.67 99.8494 1538.13 100.423C1538.38 100.753 1538.98 101.135 1539.45 101.271C1540.03 101.441 1545.49 101.497 1556.82 101.449L1573.33 101.379L1573.97 100.661L1574.61 99.9432L1574.72 94.5122C1574.84 87.7827 1574.73 86.6581 1573.93 85.9685C1573.61 85.6864 1572.86 85.3842 1572.27 85.2961C1570.87 85.086 1569.84 84.6402 1569.24 83.9804C1568.11 82.7368 1568.12 82.9514 1568.12 61.712C1568.12 42.8764 1568.14 41.7515 1568.55 40.5063C1569.59 37.3536 1572.69 35.5704 1575.67 36.4065C1577.69 36.9712 1578.74 38.6639 1579.03 41.7922C1579.34 45.2326 1579.42 45.2705 1586.43 45.2705C1592.05 45.2705 1592.51 45.1849 1593.11 44.038C1593.35 43.5619 1593.43 41.3716 1593.49 33.8878C1593.53 28.6391 1593.49 23.6734 1593.41 22.8532C1593.27 21.5013 1593.16 21.272 1592.3 20.4079C1591.59 19.6966 1590.94 19.3257 1589.73 18.947C1587.63 18.2819 1583.99 18.132 1581.47 18.6064ZM1636.19 18.3864C1630.5 19.2084 1627.78 19.9733 1624.35 21.711C1621.44 23.1777 1620.15 24.0283 1617.9 25.9544C1611.13 31.7435 1606.31 41.2578 1604.68 52.0541C1604.16 55.5096 1603.96 63.9909 1604.33 67.6232C1605.01 74.4277 1606.9 81.183 1609.44 85.8575C1614.54 95.231 1622.05 100.618 1632.74 102.584C1635.95 103.174 1642.83 103.103 1645.9 102.448C1652.29 101.088 1657.68 98.0804 1662.22 93.3596C1665.72 89.7187 1668.33 85.4408 1669.89 80.799C1670.68 78.4263 1670.64 77.6274 1669.71 76.892C1669.15 76.4456 1668.8 76.429 1659.82 76.429C1651.82 76.429 1650.41 76.4805 1649.75 76.7918C1648.98 77.1575 1648.57 77.8185 1648.03 79.5337C1646.74 83.6307 1643.8 85.616 1639.42 85.3401C1634.79 85.0494 1632.38 82.5205 1631.13 76.6591C1630.74 74.8186 1630.33 70.448 1630.33 68.2086L1630.32 66.541L1649.93 66.5284C1664.5 66.5187 1669.73 66.4448 1670.31 66.2411C1671.69 65.7598 1672.05 64.9901 1672.14 62.3593C1672.38 55.4414 1670.72 45.2174 1668.38 39.1448C1664.02 27.8255 1656.61 20.9321 1646.65 18.9157C1644.54 18.4887 1637.83 18.149 1636.19 18.3864ZM1710.35 18.4953C1696.59 20.0209 1687.76 27.6537 1685.6 39.8755C1685.12 42.621 1685.12 47.1964 1685.59 49.5833C1686.56 54.4222 1688.28 57.6104 1691.82 61.1552C1695.35 64.6896 1699.99 67.5454 1707.59 70.8641C1715.17 74.1776 1717.9 75.752 1719.04 77.47C1720.73 80.0092 1719.87 83.6004 1717.28 84.9178C1715.27 85.9422 1712 86.0847 1709.57 85.2543C1707.99 84.7192 1706.62 83.3085 1706.01 81.6031C1704.82 78.309 1705.51 78.499 1694.73 78.499C1685 78.499 1684.71 78.5373 1684 79.9068C1682.82 82.1931 1685.18 90.1348 1688.24 94.1614C1691.6 98.5886 1697.22 101.415 1705.17 102.67C1707.69 103.067 1716.63 103.077 1718.85 102.684C1723.2 101.915 1727.21 100.496 1730.4 98.5949C1732.78 97.1745 1736.78 93.3052 1738.29 90.9531C1741.55 85.8798 1742.95 80.3171 1742.7 73.555C1742.46 67.1585 1740.84 62.8852 1737.21 59.0606C1733.76 55.4248 1729.39 52.9789 1719.55 49.1774C1712.14 46.3198 1709.18 44.5753 1708.25 42.52C1707.73 41.3783 1707.71 40.6786 1708.18 39.3788C1708.96 37.1404 1711.16 35.901 1714.38 35.8783C1717.46 35.8566 1719.19 37.0209 1719.9 39.5945C1720.43 41.5215 1720.61 41.8693 1721.31 42.3264C1721.89 42.7079 1722.65 42.741 1730.8 42.741C1740.43 42.741 1740.74 42.7037 1741.46 41.4885C1741.97 40.6194 1741.95 39.1772 1741.39 36.3839C1739.31 26.2059 1733.46 20.8473 1722.31 18.9159C1719.23 18.3817 1713.26 18.172 1710.35 18.4953ZM1780.48 18.5121C1773.04 19.2735 1766.77 22.0362 1762.4 26.4791C1754.93 34.0722 1753.16 47.9957 1758.55 56.9042C1760.52 60.1628 1763.89 63.3711 1767.95 65.8577C1770.12 67.1871 1775.12 69.7332 1777.38 70.662C1781.25 72.2524 1787.05 75.2312 1788.11 76.1732C1789.5 77.4025 1790.14 78.7348 1790.14 80.3538C1790.13 82.5914 1789.02 84.203 1786.81 85.2016C1785.27 85.8947 1781.68 85.9507 1779.83 85.3104C1778.22 84.7541 1776.76 83.3451 1776.24 81.8331C1776.03 81.2008 1775.69 80.3417 1775.52 79.9234C1774.92 78.5419 1774.61 78.499 1764.91 78.4995C1755.17 78.4995 1755.01 78.5242 1754.2 80.1088C1753.73 81.048 1753.81 82.252 1754.55 85.5101C1755.55 89.8938 1757.2 92.9785 1760.11 95.876C1763.67 99.4264 1767.81 101.322 1774.66 102.551C1777.85 103.119 1786.63 103.144 1789.57 102.592C1800.65 100.51 1808.35 94.2581 1811.51 84.7592C1813.55 78.6592 1813.49 70.4978 1811.37 65.1955C1808.59 58.2205 1803.01 54.1343 1789.22 48.9481C1779.82 45.4131 1776.93 42.7173 1778.62 39.0617C1779.56 37.0386 1781.65 35.8755 1784.39 35.8553C1786.56 35.8392 1787.99 36.3628 1789.08 37.5675C1789.53 38.0587 1790 38.9065 1790.14 39.4511C1790.66 41.4592 1790.87 41.9077 1791.48 42.3197C1792.04 42.7045 1792.79 42.7474 1800.14 42.815C1804.57 42.8558 1808.74 42.8222 1809.41 42.7401C1812.23 42.3942 1812.7 40.4548 1811.3 34.9858C1809.53 28.141 1806.09 23.8436 1800.22 21.14C1795.19 18.8287 1787.45 17.7988 1780.48 18.5121ZM1485.87 36.509C1483.74 37.0828 1482.31 38.3976 1481.22 40.7961C1480.18 43.0841 1480.14 43.9733 1480.21 62.2872L1480.28 79.5337L1480.81 80.8385C1482.28 84.476 1486.25 86 1490.56 84.5761C1492.75 83.8505 1494.5 81.2986 1495.21 77.7705C1495.81 74.8117 1496.03 71.3791 1496.18 62.9768C1496.4 50.4362 1495.78 42.784 1494.32 39.8877C1492.8 36.8946 1489.43 35.549 1485.87 36.509ZM1637.21 36.5005C1634.52 37.2251 1632.67 39.326 1631.6 42.856C1631.18 44.2582 1630.57 48.4085 1630.56 49.9271V50.9044H1639.29H1648.03V49.6971C1648.02 47.7443 1647.42 43.7498 1646.88 42.1521C1646.25 40.2423 1645.06 38.437 1643.85 37.5643C1642.08 36.2841 1639.53 35.8751 1637.21 36.5005Z" fill="white"/>
<path fill-rule="evenodd" clip-rule="evenodd" d="M1015.68 0.361405C1012.45 3.38861 1000.53 14.6566 989.733 24.9006C985.359 29.0486 981.091 33.0946 980.249 33.8915C975.196 38.6705 959.02 54.0054 958.556 54.4564L958 54.996L958.044 78.1285L958.089 101.261L958.957 101.245C959.434 101.236 964.558 101.222 970.343 101.214L980.861 101.198V78.0501V54.9028L984.895 51.0326C987.114 48.904 991.778 44.4555 995.26 41.1473C998.742 37.8388 1005.45 31.4545 1010.16 26.9601C1020.16 17.4126 1024.19 13.5809 1033.53 4.73068C1037.31 1.15548 1040.43 -1.85457 1040.46 -1.95812C1040.51 -2.07127 1036.12 -2.14398 1029.44 -2.14051L1018.34 -2.13479L1015.68 0.361405ZM1042.33 1.68954C1040.47 3.45522 1035.06 8.57624 1030.31 13.0695C1025.56 17.5627 1020.45 22.3878 1018.97 23.792C1017.48 25.1961 1012.51 29.8834 1007.91 34.2081C1003.32 38.5328 997.088 44.4149 994.066 47.2793C991.045 50.1437 987.986 53.0234 987.269 53.6786L985.966 54.8701L986.018 78.0456L986.069 101.221L991.89 101.305C995.092 101.351 1000.4 101.332 1003.68 101.262L1009.66 101.136V78.2069C1009.66 65.596 1009.71 55.142 1009.77 54.976C1009.84 54.8095 1012.62 52.0676 1015.95 48.883C1019.28 45.6981 1025.69 39.554 1030.18 35.2293C1034.68 30.9046 1041.4 24.4731 1045.1 20.9369C1048.8 17.4009 1053.06 13.3096 1054.55 11.8453L1057.26 9.18263L1051.66 3.88267C1048.58 0.967596 1045.98 -1.44079 1045.88 -1.46918C1045.79 -1.49757 1044.19 -0.07607 1042.33 1.68954ZM1053.66 18.1137C1047.11 24.285 1037.35 33.5433 1026.33 44.0115C1023.08 47.1006 1019.2 50.7769 1017.71 52.181L1014.99 54.7339L1014.98 77.9483L1014.97 101.162L1015.73 101.251C1016.51 101.341 1026.57 101.339 1034.93 101.248L1039.48 101.198V78.0335V54.869L1045.55 49.0803C1048.9 45.8964 1055.58 39.5706 1060.41 35.0226C1072.41 23.7256 1072.36 23.7709 1072.36 23.4797C1072.36 23.3377 1072.02 22.9231 1071.59 22.5583C1071.17 22.1936 1068.53 19.7207 1065.72 17.0629C1062.91 14.4052 1060.52 12.1708 1060.4 12.0977C1060.27 12.0242 1057.26 14.7163 1053.66 18.1137ZM1073.15 28.0346C1061.49 38.9562 1056.98 43.1955 1051.27 48.5664L1044.58 54.865V78.0169V101.169L1056.68 101.235C1063.34 101.271 1069.12 101.268 1069.53 101.23C1070.09 101.176 1070.31 101.048 1070.4 100.719C1070.46 100.477 1070.52 90.0316 1070.52 77.5065L1070.53 54.7339L1079.05 46.4744C1083.74 41.9315 1087.58 38.1058 1087.58 37.9728C1087.58 37.8397 1085.37 35.6641 1082.66 33.1383C1075.89 26.8069 1075.28 26.2428 1075.16 26.2428C1075.11 26.2428 1074.2 27.0492 1073.15 28.0346ZM1086.34 44.4733C1084.1 46.6172 1080.77 49.8208 1078.95 51.5924L1075.64 54.814L1075.62 78.0072L1075.6 101.2L1090.63 101.25L1105.65 101.3V78.0936V54.8867L1102.33 51.7588C1100.51 50.0384 1097.36 47.0526 1095.34 45.1238C1093.31 43.1947 1091.38 41.3824 1091.04 41.0958L1090.42 40.5752L1086.34 44.4733Z" fill="white"/>
<path fill-rule="evenodd" clip-rule="evenodd" d="M1233.29 -4.80794C1233.21 -4.73144 1233.15 -0.353373 1233.15 4.9212V14.5114L1236.07 14.6681C1237.68 14.7542 1239.39 15.0178 1239.89 15.2533C1241.71 16.1234 1241.66 15.3401 1241.66 47.8288C1241.66 64.3632 1241.54 78.4621 1241.4 79.1597C1240.98 81.1095 1239.7 81.7298 1236.07 81.731L1233.15 81.7321V91.5858V101.439H1254.17H1275.19L1275.39 99.686C1275.51 98.7217 1275.56 94.3248 1275.5 89.9159L1275.4 81.8992L1273.97 81.7087C1272.17 81.4683 1270.84 80.4885 1270.33 79.0286C1270.09 78.3591 1269.92 75.8828 1269.91 73.0082L1269.89 68.1248L1273.57 63.1539C1275.67 60.3262 1277.48 58.1836 1277.79 58.1836C1278.31 58.1836 1281.01 63.6198 1285.6 73.9124C1288.25 79.8356 1287.86 81.7321 1284.01 81.7321H1282.25V91.5858V101.439H1305.3H1328.34V91.6127V81.7859L1326.7 81.2417C1323.09 80.041 1320.25 77.2334 1317.89 72.5354C1316.75 70.2577 1307.15 49.4732 1300.12 34.0646C1299.3 32.2675 1298.94 31.0597 1299.07 30.5573C1299.37 29.3795 1304.87 23.0364 1307.7 20.6057C1312.5 16.4728 1315.82 14.9831 1320.91 14.6794L1324 14.495V4.85739V-4.78021H1303.29H1282.58V4.9065V14.5932H1284.43C1286.49 14.5932 1286.98 15.0762 1286.26 16.416C1285.29 18.2274 1270.96 36.4812 1270.43 36.5841C1269.88 36.6897 1269.85 36.0961 1269.95 27.049C1270.04 18.5371 1270.12 17.2965 1270.64 16.5102C1271.43 15.3001 1272.18 14.957 1274.55 14.7091L1276.57 14.4981V4.85911V-4.78021L1275.82 -4.7919C1269.22 -4.89578 1233.39 -4.90948 1233.29 -4.80794ZM1339.78 -4.91315C1339.46 -4.76852 1339.37 -2.46942 1339.37 4.93425V14.5932L1342.46 14.5952C1346.25 14.5972 1347.87 15.0128 1348.64 16.1819C1349.18 17.0086 1349.22 19.159 1349.22 47.814C1349.22 64.7237 1349.1 78.9771 1348.96 79.4882C1348.49 81.1787 1347.01 81.7298 1342.96 81.731L1339.37 81.7321V91.5892V101.446L1356.94 101.359L1374.52 101.273L1375.8 97.9325C1377.62 93.1716 1390.91 58.6128 1392.72 53.9246C1395.17 47.5832 1395.19 47.6647 1395.08 64.7804C1394.97 80.9304 1395 80.7009 1393.02 81.3922C1392.48 81.5793 1391.01 81.7321 1389.75 81.7321H1387.47V91.5858V101.439H1410.51H1433.56V91.5858V81.7321H1429.69C1425.9 81.7321 1425.81 81.7155 1424.88 80.7884C1424.12 80.0221 1423.9 79.443 1423.72 77.6992C1423.6 76.5186 1423.55 62.4757 1423.6 46.4926C1423.72 15.1017 1423.66 16.1071 1425.49 15.271C1425.97 15.0519 1427.98 14.7873 1429.96 14.6831L1433.56 14.493V4.85642C1433.56 -2.62441 1433.47 -4.78255 1433.14 -4.7909C1427.52 -4.93687 1398.98 -4.73044 1398.82 -4.54272C1398.69 -4.39775 1396.82 0.455632 1394.66 6.24262C1392.51 12.0296 1388.49 22.7769 1385.73 30.1254C1382.97 37.474 1380.17 44.9518 1379.51 46.7432C1377.44 52.3239 1377.4 52.0829 1377.51 33.7162C1377.62 16.1434 1377.63 16.0907 1379.4 15.2539C1379.89 15.0255 1381.37 14.7636 1382.71 14.6721L1385.13 14.5054V4.86243V-4.78021H1364.63C1353.36 -4.78021 1343.25 -4.85269 1342.17 -4.94121C1341.09 -5.02939 1340.01 -5.01704 1339.78 -4.91315ZM1139.62 4.9065V14.5932L1142.21 14.6267C1145.5 14.6691 1146.34 14.9122 1146.95 16.0055C1147.58 17.1215 1147.4 17.9993 1144.45 28.5852C1141.16 40.3556 1137.69 52.863 1134.29 65.1981C1132.62 71.2604 1131.02 76.8219 1130.73 77.5567C1129.69 80.2448 1128.02 81.3453 1124.56 81.6354L1122.25 81.8294V91.6345V101.439H1140.45H1158.66V91.5858V81.7321H1156.81C1153.54 81.7321 1152.72 80.0588 1153.77 75.5526L1154.15 73.8826H1168.01H1181.87L1182.26 75.5526C1182.89 78.2801 1182.81 80.294 1182.04 81.0643C1181.48 81.6211 1180.93 81.7321 1178.7 81.7321H1176.03V91.5858V101.439H1197.41H1218.78V91.5858V81.7321H1216.66C1215.01 81.7321 1214.29 81.5633 1213.4 80.9761C1211.96 80.0118 1211.38 78.7917 1210.14 74.0497C1208.9 69.3341 1198.06 25.3879 1194.22 9.49969C1192.68 3.1158 1191.26 -2.70891 1191.06 -3.44377L1190.7 -4.78021H1165.16H1139.62V4.9065ZM1164.37 37.3931C1162.27 44.9698 1160.49 51.4322 1160.4 51.7535C1160.26 52.2982 1160.79 52.3382 1168.14 52.3382C1175.41 52.3382 1176.03 52.2924 1176.03 51.7572C1176.03 51.2358 1171.93 34.6631 1170.35 28.7893C1170.01 27.5033 1169.56 25.8122 1169.36 25.0316C1169.15 24.2509 1168.81 23.6129 1168.58 23.6146C1168.33 23.6159 1166.7 28.944 1164.37 37.3931Z" fill="white"/>
</g>
</g>
<defs>
<clipPath id="clip0_1336_31">
<rect width="1813" height="576" fill="white"/>
</clipPath>
<clipPath id="clip1_1336_31">
<rect width="855" height="138.494" fill="white" transform="translate(958 -5)"/>
</clipPath>
</defs>
</svg>
