<svg width="1271" height="277" viewBox="0 0 1271 277" fill="none" xmlns="http://www.w3.org/2000/svg">
<path fill-rule="evenodd" clip-rule="evenodd" d="M268.734 5.25005L262.951 10.476L265.016 17.976C276.174 58.498 306.964 88.261 346.281 96.531C360.813 99.588 386.08 98.003 400.039 93.157C423.566 84.991 445.296 65.4771 455.956 42.9421C457.639 39.3861 459.016 35.9451 459.016 35.2961C459.017 34.1901 440.461 16.3161 438.716 15.7401C438.275 15.5951 436.853 18.087 435.556 21.278C431.646 30.9 426.91 37.784 419.017 45.323C406.662 57.125 394.245 62.414 372.724 65.044C351.901 67.589 329.904 62.0981 311.83 49.8431C295.171 38.5471 282.472 22.288 277.375 5.72605C276.402 2.56405 275.361 -0.012951 275.061 4.897e-05C274.762 0.014049 271.915 2.37605 268.734 5.25005ZM63.169 102.425L0 165.875L0.257996 219.675L0.516998 273.476L17.267 273.75L34.017 274.024L34.037 219.75L34.058 165.476L95.99 102.976C130.053 68.601 157.944 40.139 157.97 39.726C157.996 39.314 150.89 38.976 142.178 38.976H126.339L63.169 102.425ZM104.575 103.726L42.056 166.476L42.036 220.226L42.017 273.976H59.017H76.017V219.756V165.537L130.203 111.29L184.388 57.044L182.453 54.8171C178.448 50.2111 168.771 40.976 167.95 40.976C167.48 40.976 138.961 69.214 104.575 103.726ZM135.634 115.019L82.999 168.061L83.258 220.769L83.517 273.476H100.517H117.517L118.017 219.842L118.517 166.208L161.161 122.842C184.616 98.991 204.167 79.125 204.608 78.696C205.355 77.97 190.344 61.976 188.917 61.976C188.561 61.976 164.584 85.845 135.634 115.019ZM167.238 125.893L125.017 168.811V221.393V273.976H142.017H159.017L159.047 220.726L159.077 167.476L170.162 155.976C176.258 149.651 191.425 134.242 203.866 121.734L226.485 98.9911L218.525 90.984C214.146 86.579 210.315 82.976 210.011 82.976C209.707 82.976 190.459 102.289 167.238 125.893ZM1145.02 182.451V272.976L1152.77 273.036C1157.03 273.069 1162.77 273.32 1165.52 273.594C1168.27 273.867 1171.98 273.82 1173.77 273.488L1177.02 272.885V217.431V161.976L1185.27 161.988C1208.71 162.022 1223.12 173.083 1230.84 196.976C1235.56 211.615 1237.12 223.312 1237.73 248.726C1238.13 265.282 1238.67 272.994 1239.42 273.031C1242.14 273.168 1256.2 273.207 1262.92 273.097L1270.32 272.976L1269.7 248.226C1269.05 221.816 1267.65 209.825 1263.54 195.666C1256.36 170.884 1243.88 154.477 1223.97 143.652C1213.44 137.926 1196.75 133.976 1183.1 133.976H1177.06L1176.79 113.226L1176.52 92.476L1160.77 92.201L1145.02 91.925V182.451ZM199.252 136.241L167.017 168.487V221.232V273.976H184.017H201.017V220.306V166.636L223.517 143.889C235.892 131.377 246.017 120.53 246.017 119.783C246.017 119.037 242.748 115.179 238.752 111.21L231.488 103.994L199.252 136.241ZM347.017 193.431V272.885L350.267 273.479C352.055 273.805 359.142 273.938 366.017 273.774L378.517 273.476L378.773 193.726L379.029 113.976H363.023H347.017V193.431ZM229.675 147.067L208.15 169.158L208.586 214.317C208.825 239.155 209.02 262.738 209.019 266.726L209.017 273.976H226.017H243.017V220.24V166.504L255.49 153.99L267.963 141.476L260.205 133.226C255.939 128.688 252.167 124.976 251.824 124.976C251.481 124.976 241.514 134.917 229.675 147.067ZM417.017 151.802C417.017 178.009 419.453 199.373 424.218 214.956C432.677 242.62 453.518 263.296 479.517 269.815C489.953 272.432 507.924 273.976 527.939 273.976H544.017V203.976V133.976H528.017H512.017V189.976V245.976L506.267 245.959C487.695 245.903 469.157 236.576 461.421 223.396C458.627 218.636 455.495 209.964 453.504 201.476C451.654 193.591 449.019 166.971 449.01 156.086C449.006 151.35 448.716 144.438 448.365 140.726L447.728 133.976H432.372H417.017V151.802ZM620.017 135.575C599.386 140.011 582.805 155.595 574.906 177.976C572.67 184.309 572.602 185.612 572.249 228.752L571.886 273.027L587.702 272.752L603.517 272.476L604.017 228.476C604.498 186.188 604.602 184.269 606.693 179.167C609.897 171.351 613.308 167.471 619.759 164.304C624.812 161.822 626.558 161.492 634.017 161.608C642.02 161.733 646.518 162.863 657.312 167.46C658.992 168.176 659.064 167.621 658.437 158.85C658.068 153.694 657.485 146.776 657.142 143.476L656.517 137.476L650.017 135.794C642.14 133.756 628.923 133.659 620.017 135.575ZM742.017 135.506C701.584 141.141 679.049 164.396 668.886 210.976C667.194 218.73 666.718 225.272 666.3 246.567L665.787 272.657L679.796 273.326C687.501 273.694 694.528 273.717 695.411 273.378C696.777 272.854 697.017 270.723 697.018 259.119C697.019 243.788 698.364 227.16 700.508 215.976C706.574 184.339 717.765 169.12 739.148 163.429C749.009 160.804 747.966 154.588 748.259 217.726L748.517 273.476L763.941 273.753C775.611 273.963 779.563 273.719 780.176 272.753C780.622 272.051 780.993 246.839 781.002 216.726C781.013 177.414 781.329 161.976 782.123 161.976C785.336 161.976 796.248 165.533 801.348 168.243C808.356 171.966 816.603 180.751 820.432 188.57C827.156 202.303 831.017 225.926 831.017 253.335C831.017 276.498 828.985 274.191 849.017 273.764L862.517 273.476L862.823 255.976C863.512 216.619 857.276 188.604 843.239 168.003C830.778 149.714 812.372 139.11 786.768 135.47C774.319 133.7 754.862 133.716 742.017 135.506ZM878.443 135.095C877.404 136.777 878.927 174.75 880.589 188.587C882.978 208.485 888.405 225.829 895.731 236.976C904 249.559 919.211 262.202 931.866 267.011C944.582 271.842 965.809 274.294 990.517 273.785L1005.52 273.476L1005.77 203.726L1006.03 133.976H990.024H974.017V189.976V245.976H967.177C949.482 245.976 932.81 238.019 924.803 225.754C915.579 211.623 911.93 193.093 910.42 152.726L909.719 133.976H894.427C884.224 133.976 878.905 134.348 878.443 135.095ZM1068.21 135.944C1058.55 138.551 1051.61 142.378 1045.52 148.476C1037.64 156.351 1035.52 161.558 1035.52 172.976C1035.52 189.189 1038.93 193.695 1067.09 214.689C1085.14 228.147 1087.83 230.838 1088.64 236.307C1089.43 241.617 1086.14 245.592 1079.33 247.575C1068.97 250.585 1045.16 247.66 1034.1 242.019C1031.9 240.895 1029.85 239.976 1029.56 239.976C1027.97 239.976 1030.74 268.022 1032.45 269.228C1034.4 270.604 1046.42 273.811 1053.71 274.901C1077 278.383 1098.49 273.986 1109.92 263.402C1118.06 255.873 1120.46 250.205 1120.49 238.476C1120.51 230.538 1120.17 228.768 1117.6 223.476C1113.61 215.283 1102.82 204.816 1085.38 192.232C1077.6 186.62 1070.06 180.632 1068.63 178.925C1063.19 172.459 1066.69 164.505 1076.11 161.936C1083.13 160.02 1097.87 161.331 1108.52 164.818C1113.47 166.44 1117.7 167.598 1117.91 167.39C1118.13 167.183 1117.46 160.611 1116.41 152.786L1114.52 138.559L1107.52 136.651C1096.87 133.751 1077.62 133.405 1068.21 135.944ZM261.5 156.992L250.517 168.008L250.213 217.742C250.045 245.096 250.18 268.948 250.512 270.746L251.115 274.016L271.816 273.746L292.517 273.476L292.776 219.967L293.034 166.457L282.759 156.217L272.483 145.976L261.5 156.992Z" fill="white"/>
</svg>
