<svg width="1071" height="1006" viewBox="0 0 1071 1006" fill="none" xmlns="http://www.w3.org/2000/svg">
<path id="Vector" fill-rule="evenodd" clip-rule="evenodd" d="M0 503V1006H373.41H746.819L751.261 999.25C753.704 995.538 764.258 979.225 774.715 963C785.172 946.775 805.986 914.6 820.967 891.5C835.949 868.4 855.247 838.585 863.853 825.245C872.459 811.905 882.65 796.127 886.5 790.184C894.452 777.908 919.202 739.549 935.011 715C940.854 705.925 961.774 673.525 981.499 643C1001.22 612.475 1026.73 572.959 1038.18 555.186L1059 523L1071 503L1059 484.051L1037.68 451.275C1025.96 433.249 1004.95 400.95 990.997 379.5C977.045 358.05 941.592 303.6 912.212 258.5C882.832 213.4 855.433 171.325 851.326 165C847.22 158.675 837.254 143.361 829.18 130.97C805.251 94.244 762.522 28.539 752.95 13.75L744.05 0H372.025H0V503ZM590.843 92.473C572.858 95.419 555.463 104.017 542.154 116.537C526.072 131.666 518.779 148.327 516.097 176.063C512.496 213.309 514.59 253.772 521.165 274C530.098 301.48 551.539 320.596 583.068 329.19C590.407 331.191 593.834 331.489 609.5 331.489C630.262 331.489 638.188 329.925 652.928 322.924C679.183 310.454 694.947 289.957 700.403 261.2C704.396 240.151 704.954 193.725 701.509 169.264C697.296 139.359 684.665 118.965 661.773 105.106C654.328 100.599 642.029 95.627 633 93.473C623.697 91.254 601.494 90.727 590.843 92.473ZM81.246 211.75L81.5 329.5L110.75 329.765L140 330.03V293.961V257.892L149.667 246.912C154.983 240.874 159.68 236.286 160.103 236.717C160.527 237.147 171.062 255.275 183.516 277C195.969 298.725 207.943 319.538 210.124 323.25L214.089 330H248.545C278.493 330 283 329.804 283 328.501C283 327.677 276.324 316.089 268.163 302.751C236.108 250.356 201.919 193.949 201.493 192.756C201.059 191.539 209.101 181.931 259.25 123.756C272.312 108.602 283 95.708 283 95.102C283 94.32 272.744 94 247.687 94H212.374L209.817 96.75C207.661 99.067 194.756 114.868 147.743 172.75C144.505 176.738 141.437 180 140.927 180C140.372 180 140 162.753 140 137V94H110.496H80.992L81.246 211.75ZM305 119V144H336.5H368V237V330H397H426V237V144H457.5H489V119V94H397H305V119ZM597 143.659C584.162 148.121 577.725 157.587 575.007 176C573.121 188.776 573.361 239.079 575.361 250C579.406 272.098 590.895 281.886 611.517 280.804C630.151 279.826 639.576 270.178 643.081 248.494C644.807 237.816 644.835 186.57 643.121 175.108C640.551 157.927 634.327 148.511 622.653 144.143C615.698 141.541 603.745 141.315 597 143.659ZM376 379.881C345.375 386.547 321.65 405.364 311.728 430.859C306.927 443.194 305.077 454.409 304.115 477C303.219 498.047 304.161 534.218 305.86 544C308.45 558.918 314.018 572.808 321.486 582.981C346.905 617.609 402.24 629.026 444.585 608.379C467.396 597.257 483.868 575.389 489.55 548.685C490.347 544.936 491 541.224 491 540.435C491 539.221 486.469 539 461.579 539H432.159L431.454 542.21C429.25 552.244 422.267 561.276 413.727 565.137C409.342 567.119 406.889 567.498 398.5 567.487C389.855 567.475 387.755 567.124 383 564.893C373.2 560.296 367.206 551.994 364.399 539.131C361.044 523.755 361.683 467.424 365.371 453.5C368.246 442.645 374.372 434.981 383.5 430.819C390.728 427.523 406.276 427.524 413.5 430.821C422.244 434.811 428.656 442.639 431.053 452.25L432.237 457H461.707H491.176L490.518 452.75C487.045 430.331 475.341 409.457 459.29 397.055C450.866 390.546 437.042 383.731 426.5 380.889C414.975 377.783 388.104 377.246 376 379.881ZM81.672 380.661C81.302 381.031 81 434.133 81 498.667V616H169.517H258.035L257.767 591.25L257.5 566.5L198.75 566.242L140 565.984V543.992V522H190.5H241V497V472H190.5H140V451V430H198.017H256.035L255.767 405.25L255.5 380.5L168.922 380.245C121.304 380.104 82.042 380.291 81.672 380.661ZM517.667 380.667C517.3 381.033 517 392.283 517 405.667V430H548.5H580V523V616H609H638V523V430H669.5H701V405V380H609.667C559.433 380 518.033 380.3 517.667 380.667ZM729.667 380.667C729.3 381.033 729 434.156 729 498.716V616.099L790.75 615.759C857.795 615.391 855.326 615.583 870.217 609.568C902.413 596.564 919.08 566.49 915.047 528.675C911.974 499.854 895.803 478.364 869.834 468.589C857.108 463.799 849.605 462.916 818.02 462.487L788.5 462.086L788.239 421.043L787.978 380H759.156C743.303 380 730.033 380.3 729.667 380.667ZM788 538.939V566H812.322C840.003 566 843.684 565.316 850 559C852.043 556.957 854.454 553.116 855.357 550.464C857.27 544.851 857.503 534.411 855.839 528.858C854.337 523.843 848.882 517.518 843.643 514.716C839.725 512.62 838.102 512.483 813.75 512.189L788 511.877V538.939ZM592.5 665.396C576.561 668.065 566.019 672.141 553.483 680.483C541.115 688.712 532.111 698.799 526.043 711.222C516.982 729.773 514.412 749.166 515.3 792.288C516.046 828.561 518.174 841.553 525.968 857.446C536.87 879.674 555.902 894.779 581.792 901.751C590.539 904.106 593.281 904.368 609.5 904.391C630.879 904.423 638.438 902.85 654.5 895.028C680.38 882.426 695.347 861.659 700.55 831.133C704.304 809.111 703.996 754.607 700.007 735.034C697.56 723.027 692.73 710.445 687.601 702.718C682.659 695.272 668.857 682.321 660.973 677.731C652.733 672.933 641.009 668.4 631.743 666.428C621.591 664.268 602.27 663.76 592.5 665.396ZM81.246 784.75L81.5 902.5L110.75 902.765L140 903.03V867.242V831.455L149.25 820.298C154.338 814.161 158.903 809.243 159.395 809.369C159.887 809.494 172.454 830.612 187.321 856.298L214.352 903H248.676C269.752 903 283 902.632 283 902.047C283 901.524 264.749 870.892 242.442 833.977C220.135 797.062 201.666 766.294 201.401 765.604C201.136 764.913 219.163 743.051 241.46 717.022C263.757 690.993 282 669.09 282 668.348C282 667.243 275.696 667 247 667H212L203.574 677.25C198.939 682.888 183.295 702.089 168.81 719.921C154.325 737.753 141.917 752.528 141.237 752.754C140.267 753.078 140 743.86 140 710.083V667H110.496H80.992L81.246 784.75ZM305.233 691.75L305.5 716.5L336.75 716.764L368 717.028V810.014V903H397H426V810V717H457.5H489V692V667H396.983H304.965L305.233 691.75ZM595.063 717.137C583.746 721.597 577.311 731.343 575.076 747.406C573.381 759.599 573.686 812.935 575.511 823.404C578.059 838.017 582.828 845.567 592.648 850.538C598.078 853.287 599.293 853.5 609.5 853.5C619.826 853.5 620.828 853.318 625.859 850.532C635.716 845.072 640.708 836.768 643.174 821.727C644.827 811.642 644.79 756.958 643.123 746.5C640.821 732.062 635.41 723.379 625.5 718.217C621.271 716.014 618.959 715.565 610.5 715.303C602.148 715.044 599.604 715.347 595.063 717.137Z" fill="white"/>
</svg>
